<svg width="28" height="25" viewBox="0 0 28 25" fill="none" xmlns="http://www.w3.org/2000/svg">
<path fill-rule="evenodd" clip-rule="evenodd" d="M8.94812 22.619C8.94812 21.3095 10.0135 20.2441 11.3231 20.2441C12.6326 20.2441 13.698 21.3095 13.698 22.619C13.698 23.9286 12.6326 24.994 11.3231 24.994C10.0135 24.994 8.94812 23.9286 8.94812 22.619ZM10.2742 22.6189C10.2742 23.1973 10.7447 23.6678 11.3231 23.6678C11.9014 23.6678 12.372 23.1974 12.372 22.6189C12.372 22.0406 11.9014 21.57 11.3231 21.57C10.7447 21.57 10.2742 22.0406 10.2742 22.6189Z" fill="#68D6F4"/>
<path d="M13.698 22.619H13.948V22.619L13.698 22.619ZM11.3231 19.9941C9.87545 19.9941 8.69812 21.1714 8.69812 22.619H9.19812C9.19812 21.4476 10.1516 20.4941 11.3231 20.4941V19.9941ZM13.948 22.619C13.948 21.1714 12.7706 19.9941 11.3231 19.9941V20.4941C12.4945 20.4941 13.448 21.4476 13.448 22.6191L13.948 22.619ZM11.3231 25.244C12.7707 25.244 13.948 24.0667 13.948 22.619H13.448C13.448 23.7905 12.4945 24.744 11.3231 24.744V25.244ZM8.69812 22.619C8.69812 24.0667 9.87545 25.244 11.3231 25.244V24.744C10.1516 24.744 9.19812 23.7905 9.19812 22.619H8.69812ZM11.3231 23.4178C10.8828 23.4178 10.5242 23.0592 10.5242 22.6189H10.0242C10.0242 23.3353 10.6066 23.9178 11.3231 23.9178V23.4178ZM12.122 22.6189C12.122 23.0593 11.7633 23.4178 11.3231 23.4178V23.9178C12.0394 23.9178 12.622 23.3355 12.622 22.6189H12.122ZM11.3231 21.82C11.7633 21.82 12.122 22.1787 12.122 22.6189H12.622C12.622 21.9025 12.0395 21.32 11.3231 21.32V21.82ZM10.5242 22.6189C10.5242 22.1786 10.8828 21.82 11.3231 21.82V21.32C10.6067 21.32 10.0242 21.9025 10.0242 22.6189H10.5242Z" fill="#68D6F4"/>
<path fill-rule="evenodd" clip-rule="evenodd" d="M17.2786 22.619C17.2786 21.3095 18.344 20.2441 19.6535 20.2441C20.963 20.2441 22.0284 21.3095 22.0285 22.619C22.0285 23.9286 20.9631 24.994 19.6535 24.994C18.344 24.994 17.2786 23.9286 17.2786 22.619ZM18.6046 22.6189C18.6046 23.1973 19.0751 23.6678 19.6535 23.6678C20.2318 23.6678 20.7024 23.1974 20.7024 22.6189C20.7024 22.0406 20.2319 21.57 19.6535 21.57C19.0752 21.57 18.6046 22.0406 18.6046 22.6189Z" fill="#68D6F4"/>
<path d="M22.0285 22.619H22.2785V22.619L22.0285 22.619ZM19.6535 19.9941C18.2059 19.9941 17.0286 21.1714 17.0286 22.619H17.5286C17.5286 21.4476 18.482 20.4941 19.6535 20.4941V19.9941ZM22.2785 22.619C22.2784 21.1714 21.1011 19.9941 19.6535 19.9941V20.4941C20.8249 20.4941 21.7784 21.4476 21.7785 22.6191L22.2785 22.619ZM19.6535 25.244C21.1011 25.244 22.2785 24.0667 22.2785 22.619H21.7785C21.7785 23.7905 20.825 24.744 19.6535 24.744V25.244ZM17.0286 22.619C17.0286 24.0667 18.2059 25.244 19.6535 25.244V24.744C18.482 24.744 17.5286 23.7905 17.5286 22.619H17.0286ZM19.6535 23.4178C19.2132 23.4178 18.8546 23.0592 18.8546 22.6189H18.3546C18.3546 23.3353 18.9371 23.9178 19.6535 23.9178V23.4178ZM20.4524 22.6189C20.4524 23.0593 20.0938 23.4178 19.6535 23.4178V23.9178C20.3699 23.9178 20.9524 23.3355 20.9524 22.6189H20.4524ZM19.6535 21.82C20.0938 21.82 20.4524 22.1787 20.4524 22.6189H20.9524C20.9524 21.9026 20.37 21.32 19.6535 21.32V21.82ZM18.8546 22.6189C18.8546 22.1786 19.2133 21.82 19.6535 21.82V21.32C18.9371 21.32 18.3546 21.9025 18.3546 22.6189H18.8546Z" fill="#68D6F4"/>
<path d="M20.2382 7.74024H10.7366C10.3704 7.74024 10.0736 8.03708 10.0736 8.40327C10.0736 8.76946 10.3705 9.0663 10.7366 9.0663H20.2382C20.6044 9.0663 20.9012 8.76946 20.9012 8.40327C20.9012 8.03702 20.6044 7.74024 20.2382 7.74024Z" fill="#68D6F4" stroke="#68D6F4" stroke-width="0.5"/>
<path d="M19.721 11.1833H11.2538C10.8877 11.1833 10.5908 11.4801 10.5908 11.8463C10.5908 12.2125 10.8877 12.5093 11.2538 12.5093H19.721C20.0872 12.5093 20.384 12.2125 20.384 11.8463C20.384 11.4802 20.0872 11.1833 19.721 11.1833Z" fill="#68D6F4" stroke="#68D6F4" stroke-width="0.5"/>
<path fill-rule="evenodd" clip-rule="evenodd" d="M25.6779 4.29779C26.0782 4.29779 26.4529 4.47574 26.7058 4.78608C26.9587 5.09636 27.0574 5.49926 26.9767 5.89125L25.1221 14.8931C24.9958 15.5064 24.4495 15.9515 23.8233 15.9515H7.42608L7.81632 17.8458H23.7006C24.0667 17.8458 24.3636 18.1427 24.3636 18.5089C24.3636 18.8751 24.0667 19.1719 23.7006 19.1719H7.81627C7.19006 19.1719 6.64385 18.7267 6.51748 18.1134L3.30936 2.54061L0.399127 1.27737C0.0633149 1.13165 -0.0908518 0.74114 0.0550343 0.405169C0.200762 0.0693042 0.591216 -0.0848624 0.927186 0.0610764L3.83737 1.32426C4.23299 1.49604 4.52107 1.85069 4.60815 2.27305L5.02523 4.29779H25.6779ZM7.15292 14.6256H23.8233L25.6778 5.62384L5.29844 5.62379L7.15292 14.6256Z" fill="#68D6F4"/>
<path d="M26.7058 4.78608L26.512 4.94399L26.512 4.94402L26.7058 4.78608ZM26.9767 5.89125L27.2215 5.94169V5.94169L26.9767 5.89125ZM25.1221 14.8931L24.8772 14.8426L24.8772 14.8427L25.1221 14.8931ZM7.42608 15.9515V15.7015H7.11933L7.18122 16.002L7.42608 15.9515ZM7.81632 17.8458L7.57146 17.8963L7.61257 18.0958H7.81632V17.8458ZM6.51748 18.1134L6.27262 18.1639L6.27263 18.1639L6.51748 18.1134ZM3.30936 2.54061L3.55422 2.49017L3.52802 2.36299L3.4089 2.31128L3.30936 2.54061ZM0.399127 1.27737L0.498671 1.04805L0.498649 1.04804L0.399127 1.27737ZM0.0550343 0.405169L0.284349 0.504743L0.284377 0.504678L0.0550343 0.405169ZM0.927186 0.0610764L0.827582 0.290378L0.827645 0.290405L0.927186 0.0610764ZM3.83737 1.32426L3.93694 1.09495L3.93691 1.09493L3.83737 1.32426ZM4.60815 2.27305L4.853 2.22261L4.853 2.22257L4.60815 2.27305ZM5.02523 4.29779L4.78038 4.34823L4.82148 4.54779H5.02523V4.29779ZM23.8233 14.6256V14.8756H24.0271L24.0682 14.676L23.8233 14.6256ZM7.15292 14.6256L6.90807 14.676L6.94918 14.8756H7.15292V14.6256ZM25.6778 5.62384L25.9227 5.67428L25.9846 5.37384L25.6778 5.37384V5.62384ZM5.29844 5.62379L5.29844 5.37379L4.99169 5.37379L5.05358 5.67423L5.29844 5.62379ZM26.8996 4.62817C26.5992 4.25953 26.1534 4.04779 25.6779 4.04779V4.54779C26.0031 4.54779 26.3066 4.69195 26.512 4.94399L26.8996 4.62817ZM27.2215 5.94169C27.3174 5.47609 27.1999 4.99667 26.8996 4.62813L26.512 4.94402C26.7174 5.19606 26.7974 5.52243 26.7318 5.8408L27.2215 5.94169ZM25.3669 14.9435L27.2215 5.94169L26.7318 5.8408L24.8772 14.8426L25.3669 14.9435ZM23.8233 16.2015C24.5681 16.2015 25.2167 15.673 25.3669 14.9435L24.8772 14.8427C24.7748 15.3397 24.3309 15.7015 23.8233 15.7015V16.2015ZM7.42608 16.2015H23.8233V15.7015H7.42608V16.2015ZM8.06118 17.7954L7.67094 15.9011L7.18122 16.002L7.57146 17.8963L8.06118 17.7954ZM23.7006 17.5958H7.81632V18.0958H23.7006V17.5958ZM24.6136 18.5089C24.6136 18.0046 24.2048 17.5958 23.7006 17.5958V18.0958C23.9287 18.0958 24.1136 18.2807 24.1136 18.5089H24.6136ZM23.7006 19.4219C24.2048 19.4219 24.6136 19.0131 24.6136 18.5089H24.1136C24.1136 18.737 23.9287 18.9219 23.7006 18.9219V19.4219ZM7.81627 19.4219H23.7006V18.9219H7.81627V19.4219ZM6.27263 18.1639C6.42294 18.8934 7.07143 19.4219 7.81627 19.4219V18.9219C7.30868 18.9219 6.86477 18.5601 6.76234 18.063L6.27263 18.1639ZM3.0645 2.59105L6.27262 18.1639L6.76234 18.063L3.55422 2.49017L3.0645 2.59105ZM0.299583 1.5067L3.20982 2.76994L3.4089 2.31128L0.498671 1.04805L0.299583 1.5067ZM-0.17428 0.305596C-0.375165 0.768226 -0.162893 1.30601 0.299605 1.50671L0.498649 1.04804C0.289523 0.957285 0.193461 0.714053 0.284349 0.504743L-0.17428 0.305596ZM1.02679 -0.168225C0.564121 -0.369199 0.0263836 -0.156882 -0.174308 0.30566L0.284377 0.504678C0.375141 0.295491 0.61831 0.199474 0.827582 0.290378L1.02679 -0.168225ZM3.93691 1.09493L1.02673 -0.168252L0.827645 0.290405L3.73782 1.55359L3.93691 1.09493ZM4.853 2.22257C4.74949 1.7205 4.40721 1.29914 3.93694 1.09495L3.73779 1.55358C4.05877 1.69295 4.29265 1.98087 4.3633 2.32353L4.853 2.22257ZM5.27009 4.24735L4.853 2.22261L4.36329 2.32349L4.78038 4.34823L5.27009 4.24735ZM25.6779 4.04779H5.02523V4.54779H25.6779V4.04779ZM23.8233 14.3756H7.15292V14.8756H23.8233V14.3756ZM25.433 5.5734L23.5785 14.5751L24.0682 14.676L25.9227 5.67428L25.433 5.5734ZM5.29844 5.87379L25.6778 5.87384V5.37384L5.29844 5.37379L5.29844 5.87379ZM7.39778 14.5751L5.5433 5.57334L5.05358 5.67423L6.90807 14.676L7.39778 14.5751Z" fill="#68D6F4"/>
</svg>
