<svg width="32" height="34" viewBox="0 0 32 34" fill="none" xmlns="http://www.w3.org/2000/svg">
<path d="M11.9504 17.1207C11.8387 16.8856 11.5576 16.7857 11.3225 16.8974C11.0875 17.0091 10.9875 17.2902 11.0992 17.5252C11.1819 17.6993 11.2239 17.8864 11.2239 18.0812V19.0918C11.2239 19.807 10.642 20.389 9.92669 20.389C9.21144 20.389 8.62951 19.807 8.62951 19.0918V18.0812C8.62951 17.366 9.21144 16.784 9.92669 16.784C10.1869 16.784 10.3979 16.573 10.3979 16.3128C10.3979 16.0526 10.1869 15.8416 9.92669 15.8416C8.69177 15.8416 7.68706 16.8463 7.68706 18.0812V19.0918C7.68706 20.3268 8.69177 21.3314 9.92669 21.3314C11.1616 21.3314 12.1663 20.3268 12.1663 19.0918V18.0812C12.1663 17.7454 12.0937 17.4223 11.9504 17.1207Z" fill="white" stroke="white" stroke-width="0.6"/>
<path d="M23.5715 17.1207C23.4598 16.8856 23.1787 16.7855 22.9437 16.8974C22.7086 17.0091 22.6086 17.2902 22.7203 17.5252C22.8031 17.6993 22.845 17.8864 22.845 18.0812V19.0918C22.845 19.807 22.2631 20.389 21.5478 20.389C20.8326 20.389 20.2507 19.807 20.2507 19.0918V18.0812C20.2507 17.366 20.8326 16.784 21.5478 16.784C21.8081 16.784 22.0191 16.573 22.0191 16.3128C22.0191 16.0526 21.8081 15.8416 21.5478 15.8416C20.3129 15.8416 19.3082 16.8463 19.3082 18.0812V19.0918C19.3082 20.3268 20.3129 21.3314 21.5478 21.3314C22.7828 21.3314 23.7875 20.3268 23.7875 19.0918V18.0812C23.7875 17.7454 23.7149 17.4223 23.5715 17.1207Z" fill="white" stroke="white" stroke-width="0.6"/>
<path fill-rule="evenodd" clip-rule="evenodd" d="M19.97 26.3014C20.1638 26.1276 20.4616 26.1438 20.6354 26.3376C20.8092 26.5314 20.793 26.8292 20.5992 27.003C19.9543 27.5814 19.1248 27.8999 18.2635 27.8999C18.257 27.8999 18.2506 27.8998 18.2441 27.8996C18.2392 27.8995 18.2344 27.8993 18.2295 27.8993V28.4393C18.2295 29.8135 17.1114 30.9315 15.7372 30.9315C14.363 30.9315 13.2449 29.8135 13.2449 28.4393V27.8993C13.24 27.8993 13.2352 27.8995 13.2303 27.8996C13.2238 27.8998 13.2174 27.8999 13.2109 27.8999C12.3496 27.8999 11.5201 27.5814 10.8752 27.003C10.6814 26.8292 10.6652 26.5313 10.839 26.3376C11.0128 26.1438 11.3106 26.1276 11.5044 26.3014C11.9762 26.7245 12.5822 26.9575 13.2109 26.9575C13.728 26.9575 14.2261 26.8039 14.6514 26.5134C15.3009 26.0697 16.1736 26.0697 16.823 26.5134C17.2483 26.8039 17.7464 26.9575 18.2635 26.9575C18.8922 26.9575 19.4983 26.7244 19.97 26.3014ZM15.7373 29.9891C16.5918 29.9891 17.2871 29.2939 17.2871 28.4393V27.7613C16.9347 27.6591 16.5991 27.5018 16.2914 27.2915C16.2647 27.2733 16.2368 27.257 16.2085 27.2418V27.934C16.2085 28.1942 15.9975 28.4052 15.7373 28.4052C15.477 28.4052 15.266 28.1942 15.266 27.934V27.2418C15.2377 27.257 15.2099 27.2733 15.1831 27.2915C14.8754 27.5018 14.5398 27.6591 14.1874 27.7613V28.4393C14.1874 29.2939 14.8827 29.9891 15.7373 29.9891Z" fill="white"/>
<path d="M20.6354 26.3376L20.4121 26.5379L20.6354 26.3376ZM19.97 26.3014L20.1703 26.5247L20.1703 26.5247L19.97 26.3014ZM20.5992 27.003L20.7995 27.2264L20.7995 27.2264L20.5992 27.003ZM18.2441 27.8996L18.2517 27.5997H18.2517L18.2441 27.8996ZM18.2295 27.8993L18.2328 27.5993L17.9295 27.596V27.8993H18.2295ZM13.2449 27.8993H13.5449V27.596L13.2416 27.5993L13.2449 27.8993ZM13.2303 27.8996L13.2227 27.5997H13.2227L13.2303 27.8996ZM10.8752 27.003L11.0755 26.7797L11.0755 26.7797L10.8752 27.003ZM10.839 26.3376L11.0623 26.5379L11.0623 26.5379L10.839 26.3376ZM11.5044 26.3014L11.3041 26.5247L11.3041 26.5247L11.5044 26.3014ZM14.6514 26.5134L14.4822 26.2657L14.4821 26.2657L14.6514 26.5134ZM16.823 26.5134L16.9923 26.2657L16.9923 26.2657L16.823 26.5134ZM17.2871 27.7613H17.5871V27.5359L17.3706 27.4731L17.2871 27.7613ZM16.2914 27.2915L16.1219 27.5391L16.1222 27.5392L16.2914 27.2915ZM16.2085 27.2418L16.3508 26.9777L15.9085 26.7394V27.2418H16.2085ZM15.266 27.2418H15.566V26.7394L15.1237 26.9777L15.266 27.2418ZM15.1831 27.2915L15.0139 27.0438L15.0139 27.0438L15.1831 27.2915ZM14.1874 27.7613L14.1039 27.4731L13.8874 27.5359V27.7613H14.1874ZM20.8588 26.1373C20.5744 25.8202 20.0868 25.7936 19.7697 26.0781L20.1703 26.5247C20.2407 26.4616 20.3489 26.4675 20.4121 26.5379L20.8588 26.1373ZM20.7995 27.2264C21.1166 26.942 21.1432 26.4544 20.8588 26.1373L20.4121 26.5379C20.4752 26.6083 20.4694 26.7165 20.3989 26.7797L20.7995 27.2264ZM18.2635 28.1999C19.1992 28.1999 20.0999 27.8538 20.7995 27.2264L20.3989 26.7797C19.8087 27.309 19.0504 27.5999 18.2635 27.5999V28.1999ZM18.2365 28.1995C18.2423 28.1996 18.2526 28.1999 18.2635 28.1999V27.5999C18.2615 27.5999 18.2588 27.5999 18.2517 27.5997L18.2365 28.1995ZM18.2262 28.1993C18.2285 28.1993 18.2313 28.1994 18.2365 28.1995L18.2517 27.5997C18.2472 27.5996 18.2402 27.5994 18.2328 27.5993L18.2262 28.1993ZM18.5295 28.4393V27.8993H17.9295V28.4393H18.5295ZM15.7372 31.2315C17.2771 31.2315 18.5295 29.9792 18.5295 28.4393H17.9295C17.9295 29.6478 16.9457 30.6315 15.7372 30.6315V31.2315ZM12.9449 28.4393C12.9449 29.9792 14.1973 31.2315 15.7372 31.2315V30.6315C14.5287 30.6315 13.5449 29.6478 13.5449 28.4393H12.9449ZM12.9449 27.8993V28.4393H13.5449V27.8993H12.9449ZM13.2379 28.1995C13.2431 28.1994 13.2459 28.1993 13.2482 28.1993L13.2416 27.5993C13.2342 27.5994 13.2272 27.5996 13.2227 27.5997L13.2379 28.1995ZM13.2109 28.1999C13.2218 28.1999 13.2321 28.1996 13.2379 28.1995L13.2227 27.5997C13.2156 27.5999 13.2129 27.5999 13.2109 27.5999V28.1999ZM10.6749 27.2264C11.3744 27.8538 12.2752 28.1999 13.2109 28.1999V27.5999C12.424 27.5999 11.6657 27.309 11.0755 26.7797L10.6749 27.2264ZM10.6157 26.1372C10.3312 26.4543 10.3578 26.942 10.6749 27.2264L11.0755 26.7797C11.005 26.7165 10.9992 26.6082 11.0623 26.5379L10.6157 26.1372ZM11.7047 26.0781C11.3876 25.7936 10.9 25.8202 10.6156 26.1373L11.0623 26.5379C11.1255 26.4675 11.2337 26.4616 11.3041 26.5247L11.7047 26.0781ZM13.2109 26.6575C12.6568 26.6575 12.1219 26.4522 11.7047 26.0781L11.3041 26.5247C11.8305 26.9968 12.5076 27.2575 13.2109 27.2575V26.6575ZM14.4821 26.2657C14.107 26.522 13.6679 26.6575 13.2109 26.6575V27.2575C13.7881 27.2575 14.3453 27.0858 14.8206 26.7611L14.4821 26.2657ZM16.9923 26.2657C16.2408 25.7523 15.2337 25.7523 14.4822 26.2657L14.8206 26.7611C15.3681 26.3871 16.1064 26.3872 16.6538 26.7611L16.9923 26.2657ZM18.2635 26.6575C17.8065 26.6575 17.3674 26.522 16.9923 26.2657L16.6538 26.7611C17.1291 27.0858 17.6863 27.2575 18.2635 27.2575V26.6575ZM19.7697 26.0781C19.3525 26.4522 18.8176 26.6575 18.2635 26.6575V27.2575C18.9668 27.2575 19.644 26.9967 20.1703 26.5247L19.7697 26.0781ZM16.9871 28.4393C16.9871 29.1282 16.4261 29.6891 15.7373 29.6891V30.2891C16.7575 30.2891 17.5871 29.4596 17.5871 28.4393H16.9871ZM16.9871 27.7613V28.4393H17.5871V27.7613H16.9871ZM16.1222 27.5392C16.4563 27.7675 16.8209 27.9384 17.2035 28.0494L17.3706 27.4731C17.0486 27.3797 16.7419 27.236 16.4607 27.0438L16.1222 27.5392ZM16.0662 27.5059C16.0892 27.5183 16.1071 27.5289 16.1219 27.5391L16.4609 27.044C16.4223 27.0176 16.3845 26.9958 16.3508 26.9777L16.0662 27.5059ZM16.5085 27.934V27.2418H15.9085V27.934H16.5085ZM15.7373 28.7052C16.1632 28.7052 16.5085 28.3599 16.5085 27.934H15.9085C15.9085 28.0285 15.8318 28.1052 15.7373 28.1052V28.7052ZM14.966 27.934C14.966 28.3599 15.3113 28.7052 15.7373 28.7052V28.1052C15.6427 28.1052 15.566 28.0285 15.566 27.934H14.966ZM14.966 27.2418V27.934H15.566V27.2418H14.966ZM15.3523 27.5393C15.3675 27.5289 15.3856 27.5182 15.4083 27.5059L15.1237 26.9777C15.0898 26.9959 15.0522 27.0176 15.0139 27.0438L15.3523 27.5393ZM14.271 28.0494C14.6536 27.9384 15.0182 27.7675 15.3523 27.5392L15.0139 27.0438C14.7326 27.236 14.426 27.3797 14.1039 27.4731L14.271 28.0494ZM14.4874 28.4393V27.7613H13.8874V28.4393H14.4874ZM15.7373 29.6891C15.0484 29.6891 14.4874 29.1282 14.4874 28.4393H13.8874C13.8874 29.4596 14.717 30.2891 15.7373 30.2891V29.6891Z" fill="white"/>
<path fill-rule="evenodd" clip-rule="evenodd" d="M16.853 21.7555C17.2592 21.7555 17.6203 21.9832 17.7953 22.3498C17.9703 22.7163 17.9204 23.1402 17.6651 23.4561L16.5493 24.8366C16.3501 25.083 16.0541 25.2243 15.7373 25.2243C15.4204 25.2243 15.1244 25.083 14.9252 24.8366L13.8094 23.4561C13.5541 23.1402 13.5042 22.7163 13.6792 22.3498C13.8543 21.9833 14.2153 21.7555 14.6215 21.7555H16.853ZM15.8163 24.244L16.9321 22.8637C16.9589 22.8306 16.9631 22.7943 16.9448 22.7559C16.9265 22.7175 16.8955 22.698 16.8529 22.698H14.6215C14.5789 22.698 14.548 22.7175 14.5296 22.7559C14.5113 22.7944 14.5155 22.8306 14.5422 22.8637L15.658 24.2441C15.6832 24.2753 15.715 24.2819 15.7371 24.2819C15.7593 24.2819 15.7911 24.2753 15.8163 24.244Z" fill="white"/>
<path d="M17.7953 22.3498L18.0661 22.2205L18.066 22.2205L17.7953 22.3498ZM17.6651 23.4561L17.8985 23.6447L17.8985 23.6447L17.6651 23.4561ZM16.5493 24.8366L16.7826 25.0252L16.7827 25.0252L16.5493 24.8366ZM14.9252 24.8366L14.6919 25.0252L14.6919 25.0252L14.9252 24.8366ZM13.8094 23.4561L14.0427 23.2675L14.0427 23.2675L13.8094 23.4561ZM13.6792 22.3498L13.4085 22.2205L13.4085 22.2205L13.6792 22.3498ZM16.9321 22.8637L16.699 22.6748L16.6988 22.6751L16.9321 22.8637ZM15.8163 24.244L15.583 24.0554L15.5829 24.0556L15.8163 24.244ZM16.9448 22.7559L16.674 22.8851L16.6741 22.8853L16.9448 22.7559ZM14.5296 22.7559L14.8004 22.8851L14.8004 22.8851L14.5296 22.7559ZM14.5422 22.8637L14.3086 23.0519L14.3089 23.0522L14.5422 22.8637ZM15.658 24.2441L15.4247 24.4327L15.4247 24.4328L15.658 24.2441ZM18.066 22.2205C17.8412 21.7496 17.3748 21.4555 16.853 21.4555V22.0555C17.1436 22.0555 17.3994 22.2168 17.5246 22.479L18.066 22.2205ZM17.8985 23.6447C18.2264 23.2389 18.2908 22.6914 18.0661 22.2205L17.5246 22.479C17.6498 22.7413 17.6144 23.0416 17.4318 23.2676L17.8985 23.6447ZM16.7827 25.0252L17.8985 23.6447L17.4318 23.2676L16.316 24.648L16.7827 25.0252ZM15.7373 25.5243C16.1447 25.5243 16.5264 25.3421 16.7826 25.0252L16.3161 24.648C16.1738 24.8239 15.9635 24.9243 15.7373 24.9243V25.5243ZM14.6919 25.0252C14.9481 25.3421 15.3298 25.5243 15.7373 25.5243V24.9243C15.511 24.9243 15.3008 24.8239 15.1585 24.648L14.6919 25.0252ZM13.5761 23.6447L14.6919 25.0252L15.1585 24.648L14.0427 23.2675L13.5761 23.6447ZM13.4085 22.2205C13.1836 22.6913 13.2481 23.2389 13.5761 23.6447L14.0427 23.2675C13.86 23.0415 13.8247 22.7413 13.9499 22.479L13.4085 22.2205ZM14.6215 21.4555C14.0997 21.4555 13.6334 21.7497 13.4085 22.2205L13.9499 22.4791C14.0752 22.2169 14.3309 22.0555 14.6215 22.0555V21.4555ZM16.853 21.4555H14.6215V22.0555H16.853V21.4555ZM16.6988 22.6751L15.583 24.0554L16.0496 24.4326L17.1654 23.0522L16.6988 22.6751ZM16.6741 22.8853C16.663 22.8621 16.6519 22.8239 16.6574 22.7767C16.663 22.7295 16.6827 22.6949 16.699 22.6748L17.1652 23.0525C17.2082 22.9994 17.2435 22.9301 17.2533 22.8469C17.2631 22.7636 17.2449 22.6881 17.2155 22.6265L16.6741 22.8853ZM16.8529 22.998C16.8274 22.998 16.7882 22.9917 16.748 22.9663C16.7077 22.9409 16.6851 22.9082 16.674 22.8851L17.2156 22.6267C17.1862 22.5652 17.1389 22.5035 17.068 22.4587C16.997 22.414 16.921 22.398 16.8529 22.398V22.998ZM14.6215 22.998H16.8529V22.398H14.6215V22.998ZM14.8004 22.8851C14.7893 22.9082 14.7667 22.9409 14.7265 22.9663C14.6862 22.9917 14.647 22.998 14.6215 22.998V22.398C14.5534 22.398 14.4774 22.414 14.4064 22.4587C14.3355 22.5035 14.2882 22.5652 14.2589 22.6267L14.8004 22.8851ZM14.7757 22.6754C14.7918 22.6953 14.8115 22.7299 14.817 22.777C14.8225 22.8241 14.8113 22.8621 14.8004 22.8851L14.2589 22.6267C14.2295 22.6882 14.2113 22.7635 14.2211 22.8466C14.2308 22.9298 14.2659 22.9989 14.3086 23.0519L14.7757 22.6754ZM15.8913 24.0555L14.7755 22.6751L14.3089 23.0522L15.4247 24.4327L15.8913 24.0555ZM15.7371 23.9819C15.7547 23.9819 15.7806 23.9844 15.81 23.9961C15.8415 24.0087 15.87 24.0292 15.8912 24.0554L15.4247 24.4328C15.5239 24.5554 15.6553 24.5819 15.7371 24.5819V23.9819ZM15.5829 24.0556C15.6041 24.0294 15.6326 24.0088 15.6642 23.9961C15.6936 23.9844 15.7196 23.9819 15.7371 23.9819V24.5819C15.8191 24.5819 15.9506 24.5553 16.0497 24.4325L15.5829 24.0556Z" fill="white"/>
<path fill-rule="evenodd" clip-rule="evenodd" d="M30.5123 23.4368C30.2531 23.3671 29.9771 23.3047 29.6897 23.2487C30.1278 21.9208 30.3559 20.5231 30.3559 19.0918C30.3559 17.3234 30.0084 15.6061 29.3454 14.009V2.26736C29.3454 1.69014 29.0216 1.17745 28.5004 0.929399C27.9792 0.681346 27.3772 0.75335 26.9292 1.11732L20.8132 6.08661C19.2098 5.52491 17.4973 5.23093 15.7371 5.23093C13.977 5.23093 12.2645 5.52491 10.6611 6.08661L4.54518 1.11732C4.0972 0.75335 3.4951 0.681284 2.97399 0.929399C2.45281 1.17745 2.12905 1.69014 2.12905 2.26736V14.009C1.46607 15.6061 1.11849 17.3234 1.11849 19.0918C1.11849 20.5231 1.34663 21.9209 1.78474 23.2487C1.4973 23.3047 1.22135 23.367 0.962111 23.4368C0.710791 23.5043 0.561821 23.7628 0.629363 24.0141C0.68591 24.2245 0.876222 24.3632 1.08413 24.3632C1.12459 24.3632 1.16581 24.3579 1.20677 24.3469C1.48938 24.2709 1.79524 24.2041 2.11661 24.1451C2.43365 24.9141 2.82433 25.655 3.28443 26.3606C2.7958 26.5631 2.32131 26.7798 1.87761 27.0106C1.64671 27.1307 1.55686 27.4152 1.67693 27.6461C1.76087 27.8076 1.92517 27.9 2.09537 27.9C2.16857 27.9 2.2429 27.8829 2.31239 27.8468C2.78833 27.5993 3.30604 27.3676 3.84117 27.1524C4.30825 27.7693 4.83131 28.3547 5.40947 28.902C8.16946 31.5141 11.8372 32.9527 15.7371 32.9527C19.6371 32.9527 23.3049 31.5141 26.0648 28.902C26.643 28.3547 27.1662 27.7693 27.6332 27.1524C28.1682 27.3675 28.686 27.5993 29.162 27.8468C29.2314 27.8829 29.3057 27.9 29.379 27.9C29.5492 27.9 29.7135 27.8076 29.7975 27.6461C29.9175 27.4152 29.8277 27.1307 29.5968 27.0106C29.1531 26.7799 28.6786 26.5631 28.19 26.3607C28.6501 25.6551 29.0408 24.9142 29.3578 24.1452C29.6791 24.2042 29.985 24.271 30.2676 24.3469C30.3085 24.3579 30.3498 24.3632 30.3902 24.3632C30.5981 24.3632 30.7884 24.2245 30.845 24.0142C30.9126 23.7628 30.7636 23.5043 30.5123 23.4368ZM27.5236 1.84879C27.6891 1.71433 27.9029 1.6887 28.0955 1.78043C28.2867 1.87141 28.4011 2.05167 28.4027 2.26296L27.4921 3.28961C27.3193 3.48432 27.3372 3.78213 27.5319 3.95485C27.6216 4.03446 27.7333 4.07354 27.8444 4.07354C27.9745 4.07354 28.104 4.01994 28.1971 3.91502L28.403 3.68292V12.16C27.7679 11.1207 26.9857 10.1531 26.065 9.2817C25.5857 8.82807 25.0784 8.41069 24.5478 8.02918L26.8613 5.42099C27.034 5.22628 27.0162 4.92846 26.8215 4.75574C26.6268 4.58309 26.3289 4.60093 26.1562 4.79558L23.7581 7.49915C23.1388 7.11224 22.4916 6.77252 21.8217 6.48162L27.5236 1.84879ZM3.95087 1.84873C3.78537 1.71433 3.57163 1.6887 3.37899 1.78037C3.1878 1.87135 3.07339 2.0516 3.07175 2.2629L7.71633 7.49915C8.33571 7.11218 8.98286 6.77252 9.65275 6.48156L3.95087 1.84873ZM3.0715 3.68286L6.92668 8.02912C6.39615 8.41062 5.88886 8.82794 5.40953 9.28164C4.48882 10.153 3.70659 11.1207 3.0715 12.16V3.68286ZM22.1968 22.7893C22.3746 22.784 25.8565 22.6861 28.7416 23.0915C29.177 21.8315 29.4134 20.4874 29.4134 19.0918C29.4134 11.9686 23.2782 6.17344 15.7371 6.17344C8.19604 6.17344 2.06088 11.9686 2.06088 19.0918C2.06088 20.4874 2.29725 21.8315 2.73266 23.0915C5.61775 22.686 9.09972 22.7839 9.27759 22.7893C9.53777 22.7971 9.74228 23.0143 9.73443 23.2744C9.72658 23.5345 9.50969 23.7408 9.24926 23.7313C9.20766 23.7299 5.86687 23.6362 3.08539 23.9955C3.39212 24.699 3.76238 25.3716 4.19006 26.0067C6.96872 24.9795 9.86983 24.4071 10.026 24.3767C10.2815 24.3271 10.5288 24.4936 10.5785 24.7491C10.6284 25.0045 10.4616 25.2519 10.2062 25.3017C10.17 25.3088 7.42769 25.8501 4.76961 26.8008C7.26515 29.9605 11.2525 32.0102 15.7372 32.0102C20.2221 32.0102 24.2094 29.9604 26.7049 26.8007C24.0461 25.8496 21.3045 25.3088 21.2682 25.3018C21.0128 25.252 20.846 25.0046 20.8958 24.7491C20.9456 24.4936 21.193 24.327 21.4484 24.3767C21.6046 24.4071 24.5057 24.9795 27.2843 26.0067C27.712 25.3716 28.0823 24.699 28.389 23.9957C25.6074 23.6363 22.2666 23.7301 22.2251 23.7313C21.9644 23.7385 21.7478 23.5346 21.7399 23.2745C21.7321 23.0144 21.9366 22.7972 22.1968 22.7893Z" fill="white"/>
<path d="M29.6897 23.2487L29.4048 23.1547L29.2981 23.478L29.6323 23.5431L29.6897 23.2487ZM30.5123 23.4368L30.4344 23.7265L30.4344 23.7265L30.5123 23.4368ZM29.3454 14.009H29.0454V14.0688L29.0683 14.124L29.3454 14.009ZM26.9292 1.11732L26.7401 0.884487L26.7401 0.884489L26.9292 1.11732ZM20.8132 6.08661L20.714 6.36974L20.8722 6.42517L21.0024 6.31944L20.8132 6.08661ZM10.6611 6.08661L10.4719 6.31944L10.6021 6.42517L10.7603 6.36974L10.6611 6.08661ZM4.54518 1.11732L4.73436 0.884491L4.73435 0.884487L4.54518 1.11732ZM2.97399 0.929399L3.10292 1.20028L3.10295 1.20026L2.97399 0.929399ZM2.12905 14.009L2.40613 14.124L2.42905 14.0688V14.009H2.12905ZM1.78474 23.2487L1.84215 23.5431L2.17631 23.478L2.06964 23.1547L1.78474 23.2487ZM0.962111 23.4368L1.03997 23.7265L1.04005 23.7265L0.962111 23.4368ZM0.629363 24.0141L0.919084 23.9363L0.919083 23.9363L0.629363 24.0141ZM1.20677 24.3469L1.28454 24.6366L1.28464 24.6366L1.20677 24.3469ZM2.11661 24.1451L2.39396 24.0308L2.30137 23.8062L2.06244 23.8501L2.11661 24.1451ZM3.28443 26.3606L3.39926 26.6378L3.7331 26.4995L3.53573 26.1968L3.28443 26.3606ZM1.87761 27.0106L2.01601 27.2768L2.01603 27.2768L1.87761 27.0106ZM1.67693 27.6461L1.94311 27.5077L1.94309 27.5077L1.67693 27.6461ZM2.31239 27.8468L2.45077 28.113L2.4508 28.113L2.31239 27.8468ZM3.84117 27.1524L4.08034 26.9713L3.94196 26.7886L3.72927 26.8741L3.84117 27.1524ZM5.40947 28.902L5.20324 29.1199L5.20325 29.1199L5.40947 28.902ZM26.0648 28.902L25.8586 28.6841L25.8586 28.6841L26.0648 28.902ZM27.6332 27.1524L27.7452 26.874L27.5324 26.7885L27.3941 26.9713L27.6332 27.1524ZM29.162 27.8468L29.3004 27.5807L29.3003 27.5806L29.162 27.8468ZM29.7975 27.6461L30.0636 27.7845L30.0636 27.7845L29.7975 27.6461ZM29.5968 27.0106L29.7352 26.7445L29.7352 26.7444L29.5968 27.0106ZM28.19 26.3607L27.9387 26.1968L27.7413 26.4996L28.0752 26.6379L28.19 26.3607ZM29.3578 24.1452L29.412 23.8501L29.173 23.8063L29.0804 24.0308L29.3578 24.1452ZM30.2676 24.3469L30.1897 24.6367L30.1898 24.6367L30.2676 24.3469ZM30.845 24.0142L30.5553 23.9362L30.5553 23.9363L30.845 24.0142ZM28.0955 1.78043L27.9665 2.05127L27.9666 2.05133L28.0955 1.78043ZM27.5236 1.84879L27.3344 1.61595L27.3344 1.61596L27.5236 1.84879ZM28.4027 2.26296L28.6271 2.46204L28.7036 2.37585L28.7027 2.26065L28.4027 2.26296ZM27.4921 3.28961L27.7165 3.48869L27.7165 3.48868L27.4921 3.28961ZM27.5319 3.95485L27.731 3.73044L27.731 3.73042L27.5319 3.95485ZM28.1971 3.91502L28.4215 4.11414L28.4216 4.1141L28.1971 3.91502ZM28.403 3.68292H28.703V2.89268L28.1786 3.48383L28.403 3.68292ZM28.403 12.16L28.147 12.3164L28.703 13.2263V12.16H28.403ZM26.065 9.2817L26.2712 9.06381L26.2712 9.06381L26.065 9.2817ZM24.5478 8.02918L24.3234 7.83011L24.1029 8.07873L24.3727 8.27275L24.5478 8.02918ZM26.8613 5.42099L26.6369 5.22191L26.6369 5.22192L26.8613 5.42099ZM26.8215 4.75574L27.0206 4.53132L27.0205 4.53128L26.8215 4.75574ZM26.1562 4.79558L25.9318 4.5965L25.9318 4.5965L26.1562 4.79558ZM23.7581 7.49915L23.5992 7.75359L23.8143 7.88795L23.9826 7.69822L23.7581 7.49915ZM21.8217 6.48162L21.6325 6.24879L21.2493 6.56013L21.7022 6.75679L21.8217 6.48162ZM3.37899 1.78037L3.50789 2.05126L3.5079 2.05126L3.37899 1.78037ZM3.95087 1.84873L4.14005 1.61589L4.13999 1.61584L3.95087 1.84873ZM3.07175 2.2629L2.77176 2.26058L2.77087 2.37579L2.84732 2.46197L3.07175 2.2629ZM7.71633 7.49915L7.4919 7.69822L7.6602 7.88796L7.87529 7.75358L7.71633 7.49915ZM9.65275 6.48156L9.77227 6.75672L10.2251 6.56004L9.84193 6.24872L9.65275 6.48156ZM6.92668 8.02912L7.10183 8.27269L7.37164 8.07867L7.15112 7.83005L6.92668 8.02912ZM3.0715 3.68286L3.29593 3.48379L2.7715 2.89255V3.68286H3.0715ZM5.40953 9.28164L5.61575 9.49952L5.61576 9.49951L5.40953 9.28164ZM3.0715 12.16H2.7715V13.2263L3.32749 12.3164L3.0715 12.16ZM28.7416 23.0915L28.6999 23.3886L28.9445 23.4229L29.0252 23.1894L28.7416 23.0915ZM22.1968 22.7893L22.1877 22.4895L22.1877 22.4895L22.1968 22.7893ZM2.73266 23.0915L2.44911 23.1895L2.52979 23.4229L2.77441 23.3886L2.73266 23.0915ZM9.27759 22.7893L9.26848 23.0891L9.26861 23.0891L9.27759 22.7893ZM9.73443 23.2744L10.0343 23.2835L9.73443 23.2744ZM9.24926 23.7313L9.26025 23.4315L9.25877 23.4314L9.24926 23.7313ZM3.08539 23.9955L3.04695 23.698L2.6507 23.7492L2.81039 24.1154L3.08539 23.9955ZM4.19006 26.0067L3.94123 26.1742L4.07294 26.3698L4.29408 26.288L4.19006 26.0067ZM10.026 24.3767L9.96882 24.0821L9.96861 24.0822L10.026 24.3767ZM10.5785 24.7491L10.2841 24.8064L10.2841 24.8065L10.5785 24.7491ZM10.2062 25.3017L10.1488 25.0072L10.1486 25.0073L10.2062 25.3017ZM4.76961 26.8008L4.66858 26.5184L4.27531 26.659L4.53418 26.9868L4.76961 26.8008ZM26.7049 26.8007L26.9404 26.9866L27.1992 26.6589L26.806 26.5182L26.7049 26.8007ZM21.2682 25.3018L21.2109 25.5962L21.2111 25.5963L21.2682 25.3018ZM21.4484 24.3767L21.5058 24.0822L21.5057 24.0822L21.4484 24.3767ZM27.2843 26.0067L27.1803 26.288L27.4015 26.3698L27.5332 26.1742L27.2843 26.0067ZM28.389 23.9957L28.664 24.1156L28.8236 23.7493L28.4274 23.6981L28.389 23.9957ZM22.2251 23.7313L22.2333 24.0312L22.2342 24.0312L22.2251 23.7313ZM21.7399 23.2745L21.4401 23.2835V23.2836L21.7399 23.2745ZM29.6323 23.5431C29.9142 23.5981 30.1832 23.659 30.4344 23.7265L30.5902 23.1471C30.3229 23.0752 30.04 23.0113 29.7471 22.9542L29.6323 23.5431ZM30.0559 19.0918C30.0559 20.4911 29.833 21.857 29.4048 23.1547L29.9746 23.3427C30.4227 21.9846 30.6559 20.5552 30.6559 19.0918H30.0559ZM29.0683 14.124C29.7162 15.6848 30.0559 17.363 30.0559 19.0918H30.6559C30.6559 17.2837 30.3006 15.5274 29.6224 13.8939L29.0683 14.124ZM29.0454 2.26736V14.009H29.6454V2.26736H29.0454ZM28.3715 1.20028C28.7882 1.39859 29.0454 1.80587 29.0454 2.26736H29.6454C29.6454 1.57442 29.255 0.95631 28.6293 0.658516L28.3715 1.20028ZM27.1184 1.35016C27.4766 1.05916 27.9548 1.00196 28.3715 1.20028L28.6293 0.658516C28.0037 0.360728 27.2779 0.447536 26.7401 0.884487L27.1184 1.35016ZM21.0024 6.31944L27.1184 1.35016L26.7401 0.884489L20.624 5.85377L21.0024 6.31944ZM15.7371 5.53093C17.4638 5.53093 19.1427 5.8193 20.714 6.36974L20.9124 5.80348C19.2768 5.23052 17.5308 4.93093 15.7371 4.93093V5.53093ZM10.7603 6.36974C12.3316 5.8193 14.0104 5.53093 15.7371 5.53093V4.93093C13.9435 4.93093 12.1975 5.23052 10.5619 5.80348L10.7603 6.36974ZM4.356 1.35016L10.4719 6.31944L10.8503 5.85378L4.73436 0.884491L4.356 1.35016ZM3.10295 1.20026C3.51952 1.00192 3.99782 1.05914 4.356 1.35016L4.73435 0.884487C4.19658 0.447555 3.47068 0.360642 2.84502 0.658534L3.10295 1.20026ZM2.42905 2.26736C2.42905 1.80587 2.68625 1.39859 3.10292 1.20028L2.84506 0.658516C2.21938 0.95631 1.82905 1.57442 1.82905 2.26736H2.42905ZM2.42905 14.009V2.26736H1.82905V14.009H2.42905ZM1.41849 19.0918C1.41849 17.3631 1.75822 15.6848 2.40613 14.124L1.85198 13.894C1.17392 15.5274 0.818494 17.2838 0.818494 19.0918H1.41849ZM2.06964 23.1547C1.64149 21.8571 1.41849 20.4911 1.41849 19.0918H0.818494C0.818494 20.5552 1.05177 21.9847 1.49985 23.3427L2.06964 23.1547ZM1.04005 23.7265C1.2912 23.6589 1.56014 23.5981 1.84215 23.5431L1.72733 22.9542C1.43445 23.0113 1.15149 23.0752 0.884175 23.1471L1.04005 23.7265ZM0.919083 23.9363C0.894541 23.8449 0.948667 23.751 1.03997 23.7265L0.884248 23.1471C0.472915 23.2576 0.229101 23.6807 0.339643 24.092L0.919083 23.9363ZM1.08413 24.0632C1.00845 24.0632 0.939521 24.0123 0.919084 23.9363L0.339643 24.092C0.4323 24.4368 0.74399 24.6632 1.08413 24.6632V24.0632ZM1.129 24.0571C1.11353 24.0613 1.09847 24.0632 1.08413 24.0632V24.6632C1.15071 24.6632 1.21808 24.6545 1.28454 24.6366L1.129 24.0571ZM2.06244 23.8501C1.73504 23.9102 1.42103 23.9786 1.1289 24.0572L1.28464 24.6366C1.55772 24.5632 1.85543 24.4981 2.17078 24.4402L2.06244 23.8501ZM3.53573 26.1968C3.08568 25.5066 2.70377 24.7822 2.39396 24.0308L1.83926 24.2595C2.16353 25.046 2.56298 25.8034 3.03313 26.5245L3.53573 26.1968ZM2.01603 27.2768C2.45053 27.0508 2.91691 26.8376 3.39926 26.6378L3.16961 26.0835C2.67469 26.2885 2.19209 26.5089 1.73918 26.7445L2.01603 27.2768ZM1.94309 27.5077C1.89947 27.4238 1.9321 27.3204 2.01601 27.2768L1.7392 26.7445C1.36131 26.941 1.21425 27.4066 1.41076 27.7845L1.94309 27.5077ZM2.09537 27.6C2.0327 27.6 1.97342 27.566 1.94311 27.5077L1.41075 27.7845C1.54831 28.0491 1.81764 28.2 2.09537 28.2V27.6ZM2.17401 27.5806C2.14832 27.594 2.12161 27.6 2.09537 27.6V28.2C2.21553 28.2 2.33748 28.1719 2.45077 28.113L2.17401 27.5806ZM3.72927 26.8741C3.18744 27.0919 2.66052 27.3277 2.17398 27.5807L2.4508 28.113C2.91613 27.871 3.42465 27.6432 3.95307 27.4308L3.72927 26.8741ZM5.61569 28.6841C5.04952 28.1482 4.53748 27.5751 4.08034 26.9713L3.60199 27.3335C4.07901 27.9635 4.61309 28.5613 5.20324 29.1199L5.61569 28.6841ZM15.7371 32.6527C11.9117 32.6527 8.31836 31.242 5.61568 28.6841L5.20325 29.1199C8.02056 31.7863 11.7628 33.2527 15.7371 33.2527V32.6527ZM25.8586 28.6841C23.156 31.242 19.5626 32.6527 15.7371 32.6527V33.2527C19.7115 33.2527 23.4538 31.7863 26.271 29.1199L25.8586 28.6841ZM27.3941 26.9713C26.9369 27.5751 26.4248 28.1482 25.8586 28.6841L26.271 29.1199C26.8612 28.5613 27.3954 27.9635 27.8724 27.3334L27.3941 26.9713ZM29.3003 27.5806C28.8138 27.3277 28.2869 27.0919 27.7452 26.874L27.5213 27.4307C28.0496 27.6431 28.5581 27.871 29.0236 28.113L29.3003 27.5806ZM29.379 27.6C29.3526 27.6 29.326 27.594 29.3004 27.5807L29.0235 28.1129C29.1368 28.1719 29.2588 28.2 29.379 28.2V27.6ZM29.5313 27.5076C29.501 27.566 29.4416 27.6 29.379 27.6V28.2C29.6567 28.2 29.926 28.0491 30.0636 27.7845L29.5313 27.5076ZM29.4584 27.2768C29.5423 27.3204 29.5749 27.4238 29.5313 27.5077L30.0636 27.7845C30.2602 27.4066 30.1131 26.941 29.7352 26.7445L29.4584 27.2768ZM28.0752 26.6379C28.5575 26.8376 29.0239 27.0508 29.4584 27.2768L29.7352 26.7444C29.2823 26.509 28.7997 26.2885 28.3048 26.0835L28.0752 26.6379ZM29.0804 24.0308C28.7706 24.7823 28.3887 25.5066 27.9387 26.1968L28.4413 26.5246C28.9114 25.8035 29.3109 25.0461 29.6351 24.2595L29.0804 24.0308ZM30.3455 24.0572C30.0534 23.9787 29.7393 23.9102 29.412 23.8501L29.3036 24.4403C29.6189 24.4982 29.9167 24.5633 30.1897 24.6367L30.3455 24.0572ZM30.3902 24.0632C30.3759 24.0632 30.3608 24.0613 30.3453 24.0572L30.1898 24.6367C30.2563 24.6545 30.3236 24.6632 30.3902 24.6632V24.0632ZM30.5553 23.9363C30.5348 24.0124 30.4658 24.0632 30.3902 24.0632V24.6632C30.7304 24.6632 31.042 24.4367 31.1347 24.0921L30.5553 23.9363ZM30.4344 23.7265C30.5258 23.7511 30.5799 23.845 30.5553 23.9362L31.1347 24.0922C31.2454 23.6807 31.0014 23.2576 30.5902 23.1471L30.4344 23.7265ZM28.2245 1.50959C27.9273 1.36803 27.5897 1.40856 27.3344 1.61595L27.7128 2.08163C27.7885 2.02011 27.8785 2.00936 27.9665 2.05127L28.2245 1.50959ZM28.7027 2.26065C28.7002 1.93473 28.5196 1.65001 28.2244 1.50954L27.9666 2.05133C28.0538 2.09281 28.102 2.16861 28.1027 2.26528L28.7027 2.26065ZM27.7165 3.48868L28.6271 2.46204L28.1783 2.06389L27.2676 3.09053L27.7165 3.48868ZM27.731 3.73042C27.6602 3.66764 27.6537 3.55943 27.7165 3.48869L27.2676 3.09053C26.9849 3.4092 27.0142 3.89662 27.3328 4.17928L27.731 3.73042ZM27.8444 3.77354C27.8037 3.77354 27.7637 3.75944 27.731 3.73044L27.3328 4.17926C27.4795 4.30947 27.6628 4.37354 27.8444 4.37354V3.77354ZM27.9727 3.71589C27.9389 3.75401 27.8923 3.77354 27.8444 3.77354V4.37354C28.0566 4.37354 28.2691 4.28587 28.4215 4.11414L27.9727 3.71589ZM28.1786 3.48383L27.9727 3.71593L28.4216 4.1141L28.6275 3.88201L28.1786 3.48383ZM28.703 12.16V3.68292H28.103V12.16H28.703ZM25.8588 9.49959C26.7605 10.353 27.5259 11.3 28.147 12.3164L28.659 12.0036C28.0099 10.9413 27.2109 9.95315 26.2712 9.06381L25.8588 9.49959ZM24.3727 8.27275C24.8926 8.64662 25.3895 9.05546 25.8588 9.49959L26.2712 9.06381C25.7818 8.60068 25.2641 8.17476 24.723 7.78562L24.3727 8.27275ZM26.6369 5.22192L24.3234 7.83011L24.7723 8.22826L27.0857 5.62006L26.6369 5.22192ZM26.6224 4.98017C26.6932 5.04296 26.6996 5.15116 26.6369 5.22191L27.0857 5.62007C27.3684 5.30139 27.3392 4.81397 27.0206 4.53132L26.6224 4.98017ZM26.3807 4.99465C26.4434 4.92397 26.5517 4.91744 26.6224 4.98021L27.0205 4.53128C26.7019 4.24873 26.2144 4.27789 25.9318 4.5965L26.3807 4.99465ZM23.9826 7.69822L26.3807 4.99465L25.9318 4.5965L23.5337 7.30008L23.9826 7.69822ZM21.7022 6.75679C22.3586 7.04182 22.9925 7.37463 23.5992 7.75359L23.9171 7.24471C23.285 6.84986 22.6246 6.50322 21.9412 6.20645L21.7022 6.75679ZM27.3344 1.61596L21.6325 6.24879L22.0109 6.71445L27.7128 2.08162L27.3344 1.61596ZM3.5079 2.05126C3.59601 2.00933 3.68602 2.02011 3.76175 2.08161L4.13999 1.61584C3.88473 1.40855 3.54724 1.36807 3.25008 1.50948L3.5079 2.05126ZM3.37174 2.26522C3.37249 2.16854 3.42072 2.09275 3.50789 2.05126L3.25009 1.50947C2.95488 1.64995 2.77428 1.93467 2.77176 2.26058L3.37174 2.26522ZM7.94076 7.30008L3.29618 2.06383L2.84732 2.46197L7.4919 7.69822L7.94076 7.30008ZM9.53323 6.20639C8.84984 6.50322 8.1895 6.84979 7.55737 7.24473L7.87529 7.75358C8.48192 7.37457 9.11588 7.04182 9.77227 6.75672L9.53323 6.20639ZM3.76169 2.08156L9.46357 6.71439L9.84193 6.24872L4.14005 1.61589L3.76169 2.08156ZM7.15112 7.83005L3.29593 3.48379L2.84707 3.88193L6.70225 8.2282L7.15112 7.83005ZM5.61576 9.49951C6.08503 9.05534 6.5819 8.64656 7.10183 8.27269L6.75154 7.78556C6.2104 8.17469 5.69269 8.60055 5.2033 9.06376L5.61576 9.49951ZM3.32749 12.3164C3.94859 11.3 4.71401 10.353 5.61575 9.49952L5.20331 9.06375C4.26363 9.95309 3.46459 10.9413 2.81551 12.0036L3.32749 12.3164ZM2.7715 3.68286V12.16H3.3715V3.68286H2.7715ZM28.7834 22.7944C25.8706 22.3851 22.3659 22.4841 22.1877 22.4895L22.2058 23.0892C22.3832 23.0839 25.8425 22.9871 28.6999 23.3886L28.7834 22.7944ZM29.1134 19.0918C29.1134 20.4532 28.8828 21.7642 28.4581 22.9935L29.0252 23.1894C29.4711 21.8987 29.7134 20.5215 29.7134 19.0918H29.1134ZM15.7371 6.47344C23.1289 6.47344 29.1134 12.1502 29.1134 19.0918H29.7134C29.7134 11.7871 23.4276 5.87344 15.7371 5.87344V6.47344ZM2.36088 19.0918C2.36088 12.1502 8.34538 6.47344 15.7371 6.47344V5.87344C8.04669 5.87344 1.76088 11.7871 1.76088 19.0918H2.36088ZM3.01621 22.9935C2.59142 21.7643 2.36088 20.4532 2.36088 19.0918H1.76088C1.76088 20.5215 2.00307 21.8987 2.44911 23.1895L3.01621 22.9935ZM9.2867 22.4894C9.10833 22.484 5.60372 22.3851 2.69091 22.7944L2.77441 23.3886C5.63178 22.987 9.09111 23.0837 9.26848 23.0891L9.2867 22.4894ZM10.0343 23.2835C10.0471 22.8578 9.71243 22.5021 9.28657 22.4894L9.26861 23.0891C9.36312 23.092 9.43742 23.1709 9.43457 23.2654L10.0343 23.2835ZM9.23826 24.0311C9.66779 24.0468 10.0215 23.7072 10.0343 23.2835L9.43457 23.2654C9.43165 23.3619 9.35158 23.4348 9.26025 23.4315L9.23826 24.0311ZM3.12382 24.2931C4.49871 24.1154 6.01677 24.0493 7.20016 24.0281C7.791 24.0175 8.29665 24.0181 8.65697 24.0215C8.8371 24.0231 8.98083 24.0255 9.08063 24.0275C9.13053 24.0284 9.16943 24.0293 9.1964 24.03C9.20988 24.0303 9.22037 24.0306 9.22774 24.0308C9.23143 24.0309 9.23432 24.031 9.2364 24.031C9.23745 24.0311 9.23827 24.0311 9.23887 24.0311C9.23952 24.0311 9.23977 24.0311 9.23974 24.0311L9.25877 23.4314C9.21568 23.4301 5.85414 23.3354 3.04695 23.698L3.12382 24.2931ZM4.43889 25.8391C4.02122 25.2189 3.65976 24.5623 3.36038 23.8756L2.81039 24.1154C3.12448 24.8358 3.50353 25.5243 3.94123 26.1742L4.43889 25.8391ZM9.96861 24.0822C9.80862 24.1134 6.88816 24.6894 4.08605 25.7253L4.29408 26.288C7.04927 25.2696 9.93103 24.7008 10.0833 24.6711L9.96861 24.0822ZM10.873 24.6917C10.7915 24.2735 10.3867 24.0011 9.96882 24.0822L10.0831 24.6712C10.1763 24.6531 10.266 24.7138 10.2841 24.8064L10.873 24.6917ZM10.2636 25.5962C10.6816 25.5147 10.9546 25.1098 10.873 24.6916L10.2841 24.8065C10.3022 24.8993 10.2416 24.9892 10.1488 25.0072L10.2636 25.5962ZM4.87064 27.0833C7.50698 26.1404 10.2314 25.6025 10.2639 25.5961L10.1486 25.0073C10.1085 25.0151 7.3484 25.5599 4.66858 26.5184L4.87064 27.0833ZM15.7372 31.7102C11.3446 31.7102 7.44389 29.7028 5.00503 26.6149L4.53418 26.9868C7.08641 30.2182 11.1603 32.3102 15.7372 32.3102V31.7102ZM26.4695 26.6148C24.0306 29.7027 20.1299 31.7102 15.7372 31.7102V32.3102C20.3142 32.3102 24.3881 30.2181 26.9404 26.9866L26.4695 26.6148ZM21.2111 25.5963C21.2111 25.5963 21.2111 25.5963 21.2113 25.5963C21.2114 25.5963 21.2116 25.5964 21.2119 25.5964C21.2123 25.5965 21.213 25.5967 21.2139 25.5968C21.2156 25.5972 21.218 25.5976 21.221 25.5982C21.2271 25.5994 21.2357 25.6012 21.2468 25.6034C21.269 25.6079 21.3011 25.6144 21.3424 25.623C21.4249 25.6401 21.5443 25.6652 21.6949 25.6982C21.9962 25.7643 22.4226 25.8616 22.9305 25.9883C23.9473 26.2419 25.2871 26.6121 26.6039 27.0832L26.806 26.5182C24.1254 25.5593 21.366 25.0152 21.3254 25.0073L21.2111 25.5963ZM20.6013 24.6918C20.5199 25.1099 20.7928 25.5148 21.2109 25.5962L21.3256 25.0073C21.2328 24.9892 21.1722 24.8993 21.1903 24.8065L20.6013 24.6918ZM21.5057 24.0822C21.0878 24.0009 20.6828 24.2736 20.6013 24.6918L21.1903 24.8065C21.2083 24.7137 21.2983 24.6531 21.3911 24.6711L21.5057 24.0822ZM27.3884 25.7253C24.5862 24.6894 21.6658 24.1134 21.5058 24.0822L21.3911 24.6711C21.5434 24.7008 24.4251 25.2696 27.1803 26.288L27.3884 25.7253ZM28.114 23.8758C27.8146 24.5623 27.4532 25.2189 27.0355 25.8391L27.5332 26.1742C27.9709 25.5243 28.3499 24.8358 28.664 24.1156L28.114 23.8758ZM22.2342 24.0312C22.2748 24.03 25.5947 23.9371 28.3505 24.2932L28.4274 23.6981C25.6201 23.3354 22.2585 23.4302 22.216 23.4315L22.2342 24.0312ZM21.4401 23.2836C21.4529 23.7097 21.8081 24.0429 22.2333 24.0312L22.2168 23.4314C22.1207 23.4341 22.0426 23.3595 22.0398 23.2654L21.4401 23.2836ZM22.1877 22.4895C21.7621 22.5023 21.4272 22.8577 21.4401 23.2835L22.0398 23.2654C22.0369 23.171 22.1112 23.092 22.2058 23.0892L22.1877 22.4895Z" fill="white"/>
</svg>
