<svg width="31" height="30" viewBox="0 0 31 30" fill="none" xmlns="http://www.w3.org/2000/svg">
<path d="M10.112 15.7903C10.8331 15.7903 11.4177 15.2058 11.4177 14.4846C11.4177 13.7635 10.8331 13.1789 10.112 13.1789C9.39087 13.1789 8.80627 13.7635 8.80627 14.4846C8.80627 15.2058 9.39087 15.7903 10.112 15.7903Z" fill="white" stroke="white" stroke-width="0.6"/>
<path d="M20.7933 15.7903C21.5144 15.7903 22.099 15.2058 22.099 14.4846C22.099 13.7635 21.5144 13.1789 20.7933 13.1789C20.0721 13.1789 19.4875 13.7635 19.4875 14.4846C19.4875 15.2058 20.0721 15.7903 20.7933 15.7903Z" fill="white" stroke="white" stroke-width="0.6"/>
<path d="M22.9524 5.08022C21.8813 4.3177 20.7169 3.72943 19.4813 3.32558C20.6733 1.90004 20.9105 0.730098 20.9214 0.673788C20.9505 0.522336 20.9143 0.365683 20.8217 0.242417C20.7291 0.11909 20.5888 0.0406426 20.4352 0.0264289C20.3089 0.014816 17.3249 -0.244841 15.7978 1.14719C15.6688 1.26465 15.5537 1.38992 15.4526 1.52262C15.3515 1.38998 15.2364 1.26465 15.1074 1.14719C13.5802 -0.24472 10.5963 0.014816 10.47 0.0264289C10.3164 0.0406426 10.1762 0.11909 10.0834 0.242417C9.99084 0.365743 9.95473 0.522336 9.98382 0.673788C9.99465 0.730098 10.232 1.90016 11.424 3.3257C7.32192 4.66669 4.12348 7.99324 2.9689 12.1909C2.55114 13.7097 2.0164 15.1726 1.37956 16.5392C0.884746 17.601 0.668758 19.0252 0.786883 20.4468C0.930956 22.1812 1.55709 23.8225 2.59759 25.1929C2.70507 25.3345 2.86819 25.409 3.03325 25.409C3.14842 25.409 3.26448 25.3727 3.36331 25.2977C3.60368 25.1152 3.65061 24.7724 3.46813 24.5321C1.37334 21.7731 1.6639 18.5167 2.37029 17.0009C3.03307 15.5789 3.5891 14.0583 4.02295 12.4808C5.15346 8.37084 8.4237 5.17318 12.5576 4.13546C12.749 4.08744 12.8996 3.93986 12.9516 3.74951C13.0037 3.55917 12.949 3.35552 12.8087 3.21677C11.9667 2.38451 11.5154 1.60693 11.2831 1.09264C12.2288 1.10673 13.6317 1.27917 14.3727 1.95605C14.7318 2.28393 14.9064 2.70151 14.9064 3.2325C14.9064 3.53431 15.151 3.77897 15.4528 3.77897C15.7546 3.77897 15.9993 3.53431 15.9993 3.2325C15.9993 2.70145 16.1738 2.28387 16.533 1.95605C17.2741 1.27923 18.677 1.10679 19.6224 1.09264C19.3899 1.60766 18.9385 2.38494 18.0969 3.21689C17.9565 3.35564 17.9019 3.55929 17.954 3.74963C18.006 3.93998 18.1567 4.08756 18.348 4.13558C19.7757 4.49389 21.1116 5.11125 22.3187 5.97066C22.5644 6.14558 22.9058 6.0883 23.0808 5.84238C23.2556 5.59639 23.1982 5.2552 22.9524 5.08022Z" fill="white" stroke="white" stroke-width="0.6"/>
<path d="M29.5257 16.5391C28.8888 15.1725 28.3541 13.7096 27.9363 12.1908C27.4273 10.3398 26.4864 8.59064 25.2157 7.13237C25.0174 6.90477 24.6721 6.88118 24.4447 7.07939C24.2173 7.27766 24.1935 7.62284 24.3918 7.85038C25.5553 9.18574 26.4167 10.7869 26.8827 12.4807C27.3165 14.0582 27.8725 15.5789 28.5351 17.0007C29.169 18.361 29.4994 21.3463 27.8112 23.9956C26.3912 26.224 23.0946 28.8803 15.4528 28.8803C11.1827 28.8803 7.82407 28.0542 5.46992 26.4247C5.22151 26.2529 4.88129 26.315 4.70957 26.5631C4.53786 26.8112 4.59979 27.1516 4.8479 27.3234C7.38834 29.0816 10.9563 29.9731 15.4528 29.9731C23.59 29.9731 27.1659 27.0419 28.7329 24.5829C30.5352 21.7547 30.4073 18.4306 29.5257 16.5391Z" fill="white" stroke="white" stroke-width="0.6"/>
<path fill-rule="evenodd" clip-rule="evenodd" d="M19.6103 19.0891L19.6102 19.087L19.61 19.085C19.5918 17.1716 17.7301 15.617 15.4528 15.617C13.1771 15.617 11.3167 17.1692 11.2957 19.0807L11.2953 19.086C11.2949 19.095 11.2947 19.106 11.2947 19.1133C11.2947 21.0412 13.1599 22.6096 15.4528 22.6096C17.7455 22.6096 19.6107 21.0411 19.6107 19.1133C19.6108 19.1074 19.6106 19.0969 19.6103 19.0891ZM15.4528 21.5166C14.0939 21.5166 12.9388 20.8196 12.5382 19.8577L12.5428 19.8587C12.6412 19.8812 12.7411 19.902 12.8419 19.9221L12.9189 19.9371C13.0152 19.9556 13.1122 19.9733 13.2104 19.9896L13.2298 19.993C13.3331 20.01 13.4377 20.0254 13.5429 20.0399C13.5667 20.0433 13.5904 20.0464 13.6143 20.0496L13.6247 20.0509C13.7259 20.0642 13.8279 20.0769 13.9307 20.088L13.948 20.09C14.0552 20.1014 14.1635 20.1111 14.2723 20.1201C14.301 20.1224 14.3296 20.1247 14.3583 20.1268C14.4638 20.1349 14.5697 20.1421 14.6765 20.1477L14.6916 20.1486C14.802 20.1544 14.9131 20.1584 15.0246 20.1616C15.0486 20.1624 15.0726 20.1629 15.0966 20.1635L15.0967 20.1635L15.1139 20.1639C15.2238 20.1664 15.334 20.1681 15.4447 20.1682L15.4529 20.1683L15.461 20.1682C15.5719 20.1681 15.682 20.1664 15.7918 20.1639C15.8214 20.1633 15.851 20.1625 15.8807 20.1616C15.992 20.1584 16.1028 20.1544 16.2129 20.1486L16.235 20.1474C16.3395 20.1418 16.4432 20.1347 16.5465 20.1268C16.5752 20.1247 16.6039 20.1225 16.6325 20.1201C16.7408 20.1111 16.8485 20.1014 16.9552 20.09L16.9726 20.088L16.9843 20.0866C17.0836 20.0759 17.1821 20.0638 17.2798 20.0509L17.3607 20.0401C17.4654 20.0256 17.5694 20.0103 17.6722 19.9934L17.7061 19.9875C17.8001 19.9718 17.8931 19.9549 17.9854 19.9372C18.0106 19.9324 18.0356 19.9276 18.0606 19.9225C18.161 19.9026 18.2605 19.8816 18.3587 19.8593L18.3675 19.8574C17.9668 20.8198 16.8117 21.5166 15.4528 21.5166ZM18.1473 18.7868C18.248 18.7635 18.347 18.7387 18.4447 18.7126L18.4733 18.7051C18.2247 17.5742 16.9628 16.71 15.4528 16.71C13.9427 16.71 12.6809 17.5742 12.4327 18.7051C12.4392 18.7068 12.4458 18.7085 12.4524 18.7102C12.4549 18.7109 12.4574 18.7115 12.46 18.7122C12.5585 18.7384 12.6585 18.7636 12.7601 18.7871C12.7647 18.7881 12.7693 18.7892 12.7738 18.7903C12.7763 18.7909 12.7788 18.7915 12.7814 18.7922C12.8855 18.816 12.9916 18.8381 13.0988 18.859L13.1057 18.8603C13.1217 18.8635 13.1378 18.8667 13.154 18.8698C13.2588 18.8897 13.365 18.9082 13.4725 18.9252L13.5293 18.9339C13.6401 18.9509 13.7521 18.9667 13.8655 18.9807L13.8894 18.9835C14.0015 18.9972 14.1148 19.0091 14.2292 19.0198C14.2366 19.0204 14.244 19.0211 14.2515 19.0219C14.2572 19.0224 14.2629 19.023 14.2687 19.0235C14.3835 19.0338 14.4994 19.0423 14.6161 19.0496L14.6778 19.0533C14.7937 19.0599 14.9106 19.0652 15.0283 19.0689C15.0393 19.0692 15.0503 19.0695 15.0613 19.0698C15.0679 19.0699 15.0745 19.0701 15.0811 19.0703C15.2044 19.0736 15.3282 19.0757 15.4529 19.0757C15.5778 19.0757 15.7016 19.0736 15.8248 19.0703C15.8314 19.0701 15.838 19.0699 15.8446 19.0698C15.8556 19.0695 15.8666 19.0692 15.8776 19.0689C15.9952 19.0652 16.1121 19.0599 16.2282 19.0533C16.2448 19.0524 16.2615 19.0513 16.2781 19.0503C16.282 19.0501 16.2859 19.0498 16.2898 19.0496C16.4066 19.0423 16.5225 19.0337 16.6373 19.0235C16.6449 19.0228 16.6523 19.0221 16.6598 19.0214C16.6655 19.0208 16.6711 19.0203 16.6768 19.0198C16.7911 19.0091 16.9044 18.9971 17.0165 18.9835L17.0406 18.9807C17.1539 18.9668 17.2658 18.9509 17.3766 18.9339L17.4337 18.9252C17.5409 18.9082 17.6469 18.8897 17.7516 18.8699L17.8077 18.8589C17.9146 18.838 18.0204 18.816 18.1242 18.7923C18.1292 18.7912 18.1341 18.79 18.139 18.7888C18.1418 18.7881 18.1445 18.7875 18.1473 18.7868Z" fill="white"/>
<path d="M19.6102 19.087L19.3109 19.1086L19.3109 19.1088L19.6102 19.087ZM19.6103 19.0891L19.9102 19.0774L19.9095 19.0674L19.6103 19.0891ZM19.61 19.085L19.31 19.0878L19.3101 19.0972L19.3108 19.1066L19.61 19.085ZM11.2957 19.0807L11.5948 19.1042L11.5956 19.0941L11.5957 19.084L11.2957 19.0807ZM11.2953 19.086L10.9961 19.0625L10.9956 19.0719L11.2953 19.086ZM19.6107 19.1133L19.3107 19.1103V19.1133H19.6107ZM12.5382 19.8577L12.6 19.5641L12.042 19.4466L12.2612 19.973L12.5382 19.8577ZM12.5428 19.8587L12.6096 19.5662L12.6046 19.5651L12.5428 19.8587ZM12.8419 19.9221L12.7833 20.2163L12.7846 20.2166L12.8419 19.9221ZM12.9189 19.9371L12.8615 20.2316L12.8623 20.2317L12.9189 19.9371ZM13.2104 19.9896L13.2619 19.6941L13.2594 19.6936L13.2104 19.9896ZM13.2298 19.993L13.1782 20.2885L13.1811 20.289L13.2298 19.993ZM13.5429 20.0399L13.5846 19.7428L13.5839 19.7427L13.5429 20.0399ZM13.6143 20.0496L13.6537 19.7522L13.6537 19.7522L13.6143 20.0496ZM13.6247 20.0509L13.5853 20.3483L13.5856 20.3484L13.6247 20.0509ZM13.9307 20.088L13.9651 19.7899L13.9628 19.7897L13.9307 20.088ZM13.948 20.09L13.9136 20.388L13.9162 20.3883L13.948 20.09ZM14.2723 20.1201L14.2969 19.8211H14.2969L14.2723 20.1201ZM14.3583 20.1268L14.3811 19.8277L14.381 19.8277L14.3583 20.1268ZM14.6765 20.1477L14.6944 19.8482L14.6922 19.8481L14.6765 20.1477ZM14.6916 20.1486L14.6736 20.4481L14.676 20.4482L14.6916 20.1486ZM15.0246 20.1616L15.0337 19.8618L15.0334 19.8618L15.0246 20.1616ZM15.0966 20.1635L15.1073 19.8637L15.1038 19.8636L15.0966 20.1635ZM15.0967 20.1635L15.086 20.4633L15.0894 20.4634L15.0967 20.1635ZM15.1139 20.1639L15.1066 20.4638L15.1071 20.4638L15.1139 20.1639ZM15.4447 20.1682L15.4492 19.8682L15.445 19.8682L15.4447 20.1682ZM15.4529 20.1683L15.4484 20.4684L15.4573 20.4683L15.4529 20.1683ZM15.461 20.1682L15.4607 19.8682L15.4566 19.8683L15.461 20.1682ZM15.7918 20.1639L15.785 19.864L15.785 19.864L15.7918 20.1639ZM15.8807 20.1616L15.872 19.8618L15.8715 19.8618L15.8807 20.1616ZM16.2129 20.1486L16.2286 20.4482L16.2302 20.4481L16.2129 20.1486ZM16.235 20.1474L16.219 19.8478L16.2178 19.8478L16.235 20.1474ZM16.5465 20.1268L16.5238 19.8277L16.5237 19.8277L16.5465 20.1268ZM16.6325 20.1201L16.6078 19.8211L16.6072 19.8211L16.6325 20.1201ZM16.9552 20.09L16.987 20.3883L16.9893 20.3881L16.9552 20.09ZM16.9726 20.088L17.0067 20.3861L17.0079 20.3859L16.9726 20.088ZM16.9843 20.0866L16.952 19.7884L16.949 19.7887L16.9843 20.0866ZM17.2798 20.0509L17.3188 20.3484L17.3196 20.3483L17.2798 20.0509ZM17.3607 20.0401L17.4005 20.3375L17.4019 20.3373L17.3607 20.0401ZM17.6722 19.9934L17.721 20.2894L17.7233 20.289L17.6722 19.9934ZM17.7061 19.9875L17.6566 19.6916L17.655 19.6919L17.7061 19.9875ZM17.9854 19.9372L17.9294 19.6424L17.9288 19.6426L17.9854 19.9372ZM18.0606 19.9225L18.0021 19.6283L18.0015 19.6284L18.0606 19.9225ZM18.3587 19.8593L18.296 19.5659L18.292 19.5668L18.3587 19.8593ZM18.3675 19.8574L18.6444 19.9727L18.8644 19.4444L18.3048 19.564L18.3675 19.8574ZM18.4447 18.7126L18.3679 18.4226L18.3674 18.4228L18.4447 18.7126ZM18.1473 18.7868L18.0797 18.4945L18.0788 18.4947L18.1473 18.7868ZM18.4733 18.7051L18.5501 18.9951L18.828 18.9215L18.7663 18.6407L18.4733 18.7051ZM12.4327 18.7051L12.1397 18.6407L12.0785 18.9193L12.3536 18.9944L12.4327 18.7051ZM12.4524 18.7102L12.5272 18.4197L12.5272 18.4197L12.4524 18.7102ZM12.46 18.7122L12.5372 18.4223L12.5354 18.4218L12.46 18.7122ZM12.7601 18.7871L12.6926 19.0794L12.696 19.0802L12.7601 18.7871ZM12.7738 18.7903L12.7023 19.0817L12.7023 19.0817L12.7738 18.7903ZM12.7814 18.7922L12.7121 19.0841L12.7143 19.0845L12.7814 18.7922ZM13.0988 18.859L13.1569 18.5647L13.1561 18.5645L13.0988 18.859ZM13.1057 18.8603L13.1638 18.566L13.1638 18.566L13.1057 18.8603ZM13.154 18.8698L13.2099 18.575L13.2098 18.575L13.154 18.8698ZM13.4725 18.9252L13.4256 19.2215L13.4267 19.2216L13.4725 18.9252ZM13.5293 18.9339L13.4835 19.2304L13.4838 19.2305L13.5293 18.9339ZM13.8655 18.9807L13.8286 19.2785L13.8308 19.2787L13.8655 18.9807ZM13.8894 18.9835L13.9257 18.6857L13.9241 18.6855L13.8894 18.9835ZM14.2292 19.0198L14.2014 19.3185L14.2032 19.3186L14.2292 19.0198ZM14.2515 19.0219L14.2807 18.7233L14.2807 18.7233L14.2515 19.0219ZM14.2687 19.0235L14.2414 19.3223L14.2419 19.3223L14.2687 19.0235ZM14.6161 19.0496L14.5975 19.349L14.5982 19.349L14.6161 19.0496ZM14.6778 19.0533L14.6599 19.3527L14.6606 19.3528L14.6778 19.0533ZM15.0283 19.0689L15.0386 18.769L15.0377 18.769L15.0283 19.0689ZM15.0613 19.0698L15.0543 19.3697L15.0543 19.3697L15.0613 19.0698ZM15.0811 19.0703L15.0729 19.3701L15.0729 19.3701L15.0811 19.0703ZM15.8248 19.0703L15.833 19.3701L15.833 19.3701L15.8248 19.0703ZM15.8446 19.0698L15.8517 19.3697L15.8517 19.3697L15.8446 19.0698ZM15.8776 19.0689L15.8682 18.769L15.8673 18.769L15.8776 19.0689ZM16.2282 19.0533L16.2123 18.7537L16.211 18.7538L16.2282 19.0533ZM16.2781 19.0503L16.2968 19.3497H16.2968L16.2781 19.0503ZM16.2898 19.0496L16.3083 19.349L16.3084 19.349L16.2898 19.0496ZM16.6373 19.0235L16.6115 18.7246L16.6107 18.7247L16.6373 19.0235ZM16.6598 19.0214L16.6891 19.3199H16.6891L16.6598 19.0214ZM16.6768 19.0198L16.7041 19.3185L16.7047 19.3185L16.6768 19.0198ZM17.0165 18.9835L16.9822 18.6855L16.9803 18.6857L17.0165 18.9835ZM17.0406 18.9807L17.0749 19.2788L17.0774 19.2785L17.0406 18.9807ZM17.3766 18.9339L17.4221 19.2305L17.4221 19.2305L17.3766 18.9339ZM17.4337 18.9252L17.4792 19.2217L17.4807 19.2215L17.4337 18.9252ZM17.7516 18.8699L17.8073 19.1647L17.8091 19.1643L17.7516 18.8699ZM17.8077 18.8589L17.8652 19.1534L17.8654 19.1533L17.8077 18.8589ZM18.1242 18.7923L18.0623 18.4987L18.0572 18.4998L18.1242 18.7923ZM18.139 18.7888L18.0677 18.4974L18.0677 18.4974L18.139 18.7888ZM19.3109 19.1088L19.3111 19.1109L19.9095 19.0674L19.9094 19.0653L19.3109 19.1088ZM19.3108 19.1066L19.3109 19.1086L19.9094 19.0654L19.9092 19.0633L19.3108 19.1066ZM15.4528 15.917C17.6155 15.917 19.2938 17.3849 19.31 19.0878L19.91 19.0821C19.8898 16.9583 17.8447 15.317 15.4528 15.317V15.917ZM11.5957 19.084C11.6144 17.3827 13.2916 15.917 15.4528 15.917V15.317C13.0625 15.317 11.019 16.9558 10.9957 19.0774L11.5957 19.084ZM11.5944 19.1096L11.5948 19.1042L10.9966 19.0571L10.9962 19.0625L11.5944 19.1096ZM11.5947 19.1133C11.5947 19.1119 11.5947 19.1094 11.5948 19.1065C11.5948 19.1034 11.5949 19.1013 11.5949 19.1002L10.9956 19.0719C10.9949 19.0867 10.9947 19.1026 10.9947 19.1133H11.5947ZM15.4528 22.3096C13.2748 22.3096 11.5947 20.8289 11.5947 19.1133H10.9947C10.9947 21.2536 13.0451 22.9096 15.4528 22.9096V22.3096ZM19.3107 19.1133C19.3107 20.8288 17.6306 22.3096 15.4528 22.3096V22.9096C17.8603 22.9096 19.9107 21.2534 19.9107 19.1133H19.3107ZM19.3105 19.1008C19.3106 19.1021 19.3106 19.1044 19.3107 19.1071C19.3107 19.1101 19.3107 19.1112 19.3107 19.1103L19.9107 19.1164C19.9108 19.1044 19.9105 19.0888 19.9101 19.0774L19.3105 19.1008ZM12.2612 19.973C12.7195 21.0735 14.0047 21.8166 15.4528 21.8166V21.2166C14.1832 21.2166 13.158 20.5657 12.8151 19.7424L12.2612 19.973ZM12.6046 19.5651L12.6 19.5641L12.4763 20.1513L12.4809 20.1522L12.6046 19.5651ZM12.9005 19.6279C12.8015 19.6082 12.7045 19.5879 12.6096 19.5662L12.4759 20.1511C12.578 20.1744 12.6808 20.1959 12.7833 20.2163L12.9005 19.6279ZM12.9763 19.6426L12.8993 19.6276L12.7846 20.2166L12.8615 20.2316L12.9763 19.6426ZM13.2594 19.6936C13.1644 19.6779 13.07 19.6607 12.9755 19.6425L12.8623 20.2317C12.9604 20.2506 13.06 20.2688 13.1613 20.2856L13.2594 19.6936ZM13.2814 19.6975L13.2619 19.6941L13.1588 20.2851L13.1782 20.2885L13.2814 19.6975ZM13.5839 19.7427C13.4805 19.7285 13.3785 19.7134 13.2785 19.697L13.1811 20.289C13.2877 20.3066 13.395 20.3224 13.5019 20.3371L13.5839 19.7427ZM13.6537 19.7522C13.6296 19.749 13.607 19.746 13.5846 19.7428L13.5012 20.337C13.5263 20.3405 13.5513 20.3438 13.575 20.347L13.6537 19.7522ZM13.6641 19.7535L13.6537 19.7522L13.575 20.347L13.5853 20.3483L13.6641 19.7535ZM13.9628 19.7897C13.8631 19.7789 13.7637 19.7666 13.6638 19.7535L13.5856 20.3484C13.6882 20.3619 13.7926 20.3748 13.8986 20.3862L13.9628 19.7897ZM13.9824 19.7919L13.9651 19.7899L13.8963 20.386L13.9136 20.388L13.9824 19.7919ZM14.2969 19.8211C14.1895 19.8122 14.0837 19.8027 13.9798 19.7916L13.9162 20.3883C14.0266 20.4 14.1375 20.41 14.2477 20.4191L14.2969 19.8211ZM14.381 19.8277C14.3527 19.8256 14.3248 19.8234 14.2969 19.8211L14.2477 20.4191C14.2772 20.4215 14.3064 20.4238 14.3356 20.426L14.381 19.8277ZM14.6922 19.8481C14.5885 19.8427 14.485 19.8356 14.3811 19.8277L14.3355 20.426C14.4426 20.4341 14.5509 20.4415 14.6607 20.4473L14.6922 19.8481ZM14.7095 19.8492L14.6944 19.8483L14.6585 20.4472L14.6736 20.4481L14.7095 19.8492ZM15.0334 19.8618C14.9231 19.8585 14.8144 19.8546 14.7072 19.849L14.676 20.4482C14.7895 20.4541 14.9031 20.4582 15.0158 20.4615L15.0334 19.8618ZM15.1038 19.8636C15.0796 19.863 15.0566 19.8625 15.0337 19.8618L15.0155 20.4615C15.0406 20.4623 15.0656 20.4629 15.0894 20.4634L15.1038 19.8636ZM15.1074 19.8637L15.1073 19.8637L15.0859 20.4633L15.086 20.4633L15.1074 19.8637ZM15.1211 19.864L15.1039 19.8636L15.0894 20.4634L15.1066 20.4638L15.1211 19.864ZM15.445 19.8682C15.3371 19.8681 15.2291 19.8664 15.1206 19.864L15.1071 20.4638C15.2184 20.4664 15.3309 20.4681 15.4444 20.4682L15.445 19.8682ZM15.4573 19.8684L15.4491 19.8683L15.4403 20.4682L15.4485 20.4683L15.4573 19.8684ZM15.4566 19.8683L15.4485 19.8684L15.4573 20.4683L15.4655 20.4682L15.4566 19.8683ZM15.785 19.864C15.6766 19.8664 15.5687 19.8681 15.4607 19.8682L15.4614 20.4682C15.575 20.4681 15.6874 20.4664 15.7985 20.4638L15.785 19.864ZM15.8715 19.8618C15.843 19.8626 15.8143 19.8633 15.785 19.864L15.7985 20.4638C15.8285 20.4632 15.8591 20.4624 15.8899 20.4615L15.8715 19.8618ZM16.1973 19.849C16.0903 19.8546 15.9819 19.8586 15.872 19.8618L15.8893 20.4615C16.0021 20.4583 16.1154 20.4541 16.2286 20.4482L16.1973 19.849ZM16.2178 19.8478L16.1957 19.8491L16.2302 20.4481L16.2522 20.4469L16.2178 19.8478ZM16.5237 19.8277C16.422 19.8355 16.3207 19.8424 16.219 19.8478L16.251 20.4469C16.3584 20.4412 16.4645 20.434 16.5693 20.426L16.5237 19.8277ZM16.6072 19.8211C16.5801 19.8234 16.5527 19.8255 16.5238 19.8277L16.5692 20.426C16.5977 20.4238 16.6277 20.4216 16.6578 20.419L16.6072 19.8211ZM16.9234 19.7917C16.8198 19.8027 16.7146 19.8123 16.6078 19.8211L16.6572 20.4191C16.7669 20.41 16.8772 20.4 16.987 20.3883L16.9234 19.7917ZM16.9385 19.79L16.921 19.792L16.9893 20.3881L17.0067 20.3861L16.9385 19.79ZM16.949 19.7887L16.9372 19.7901L17.0079 20.3859L17.0197 20.3845L16.949 19.7887ZM17.2408 19.7535C17.1446 19.7661 17.0485 19.7779 16.952 19.7884L17.0167 20.3849C17.1187 20.3738 17.2195 20.3614 17.3188 20.3484L17.2408 19.7535ZM17.3209 19.7428L17.24 19.7536L17.3196 20.3483L17.4005 20.3375L17.3209 19.7428ZM17.6235 19.6973C17.524 19.7137 17.4226 19.7287 17.3195 19.743L17.4019 20.3373C17.5081 20.3225 17.6148 20.3069 17.721 20.2894L17.6235 19.6973ZM17.655 19.6919L17.6211 19.6977L17.7233 20.289L17.7573 20.2831L17.655 19.6919ZM17.9288 19.6426C17.8385 19.6599 17.7479 19.6763 17.6566 19.6916L17.7557 20.2834C17.8523 20.2672 17.9477 20.2499 18.042 20.2318L17.9288 19.6426ZM18.0015 19.6284C17.9779 19.6331 17.954 19.6378 17.9294 19.6424L18.0414 20.2319C18.0671 20.227 18.0933 20.222 18.1197 20.2167L18.0015 19.6284ZM18.292 19.5668C18.1971 19.5884 18.1004 19.6088 18.0021 19.6283L18.119 20.2168C18.2217 20.1964 18.324 20.1749 18.4254 20.1518L18.292 19.5668ZM18.3048 19.564L18.296 19.5659L18.4214 20.1526L18.4302 20.1508L18.3048 19.564ZM15.4528 21.8166C16.901 21.8166 18.186 21.0737 18.6444 19.9727L18.0905 19.7421C17.7475 20.5658 16.7224 21.2166 15.4528 21.2166V21.8166ZM18.3674 18.4228C18.2726 18.4481 18.1768 18.4721 18.0797 18.4945L18.2148 19.0791C18.3192 19.055 18.4215 19.0293 18.5221 19.0025L18.3674 18.4228ZM18.3965 18.4151L18.3679 18.4226L18.5215 19.0026L18.5501 18.9951L18.3965 18.4151ZM15.4528 17.01C16.8698 17.01 17.9712 17.8181 18.1803 18.7694L18.7663 18.6407C18.4783 17.3303 17.0558 16.41 15.4528 16.41V17.01ZM12.7257 18.7694C12.9345 17.8181 14.0357 17.01 15.4528 17.01V16.41C13.8497 16.41 12.4273 17.3304 12.1397 18.6407L12.7257 18.7694ZM12.5272 18.4197C12.5203 18.4179 12.5159 18.4168 12.5118 18.4157L12.3536 18.9944C12.3626 18.9969 12.3713 18.9991 12.3775 19.0007L12.5272 18.4197ZM12.5354 18.4218C12.5325 18.4211 12.5297 18.4204 12.5272 18.4197L12.3775 19.0007C12.3801 19.0014 12.3823 19.002 12.3845 19.0025L12.5354 18.4218ZM12.8276 18.4948C12.7297 18.4722 12.633 18.4478 12.5372 18.4223L12.3827 19.0021C12.4839 19.029 12.5872 19.055 12.6926 19.0794L12.8276 18.4948ZM12.8454 18.499C12.8414 18.498 12.8331 18.496 12.8241 18.494L12.696 19.0802C12.6959 19.0801 12.6963 19.0802 12.6973 19.0805C12.6985 19.0807 12.6999 19.0811 12.7023 19.0817L12.8454 18.499ZM12.8506 18.5003C12.8494 18.5 12.848 18.4996 12.8453 18.499L12.7023 19.0817C12.7046 19.0822 12.7083 19.0831 12.7121 19.084L12.8506 18.5003ZM13.1561 18.5645C13.0514 18.5441 12.9486 18.5227 12.8485 18.4998L12.7143 19.0845C12.8223 19.1094 12.9319 19.1321 13.0415 19.1535L13.1561 18.5645ZM13.1638 18.566L13.1569 18.5647L13.0407 19.1533L13.0476 19.1547L13.1638 18.566ZM13.2098 18.575C13.1949 18.5722 13.1801 18.5692 13.1638 18.566L13.0475 19.1547C13.0634 19.1578 13.0806 19.1612 13.0981 19.1645L13.2098 18.575ZM13.5193 18.6288C13.4149 18.6123 13.3118 18.5943 13.2099 18.575L13.098 19.1645C13.2059 19.185 13.315 19.204 13.4256 19.2215L13.5193 18.6288ZM13.575 18.6374L13.5182 18.6287L13.4267 19.2216L13.4835 19.2304L13.575 18.6374ZM13.9023 18.683C13.7923 18.6694 13.6832 18.654 13.5747 18.6374L13.4838 19.2305C13.5971 19.2478 13.712 19.264 13.8286 19.2785L13.9023 18.683ZM13.9241 18.6855L13.9002 18.6828L13.8308 19.2787L13.8547 19.2815L13.9241 18.6855ZM14.257 18.721C14.1449 18.7106 14.0345 18.699 13.9257 18.6857L13.8531 19.2813C13.9684 19.2954 14.0847 19.3076 14.2014 19.3185L14.257 18.721ZM14.2807 18.7233C14.2736 18.7226 14.2645 18.7217 14.2551 18.7209L14.2032 19.3186C14.2088 19.3191 14.2145 19.3197 14.2222 19.3204L14.2807 18.7233ZM14.296 18.7247C14.2914 18.7243 14.2866 18.7239 14.2807 18.7233L14.2222 19.3204C14.2277 19.321 14.2344 19.3216 14.2414 19.3223L14.296 18.7247ZM14.6348 18.7501C14.5203 18.743 14.4071 18.7347 14.2954 18.7247L14.2419 19.3223C14.3599 19.3329 14.4786 19.3416 14.5975 19.349L14.6348 18.7501ZM14.6957 18.7538L14.6341 18.7501L14.5982 19.349L14.6599 19.3527L14.6957 18.7538ZM15.0377 18.769C14.9227 18.7654 14.8084 18.7603 14.695 18.7538L14.6606 19.3528C14.779 19.3596 14.8985 19.3649 15.019 19.3687L15.0377 18.769ZM15.0684 18.7698C15.0572 18.7696 15.0478 18.7694 15.0386 18.769L15.018 19.3687C15.0309 19.3691 15.0435 19.3694 15.0543 19.3697L15.0684 18.7698ZM15.0894 18.7704C15.0821 18.7702 15.0749 18.77 15.0684 18.7698L15.0543 19.3697C15.061 19.3698 15.067 19.37 15.0729 19.3701L15.0894 18.7704ZM15.4529 18.7757C15.3315 18.7757 15.2104 18.7737 15.0894 18.7704L15.0729 19.3701C15.1983 19.3736 15.325 19.3757 15.4529 19.3757V18.7757ZM15.8166 18.7704C15.6955 18.7737 15.5745 18.7757 15.4529 18.7757V19.3757C15.5811 19.3757 15.7077 19.3736 15.833 19.3701L15.8166 18.7704ZM15.8375 18.7698C15.831 18.77 15.8238 18.7702 15.8165 18.7704L15.833 19.3701C15.839 19.37 15.845 19.3698 15.8517 19.3697L15.8375 18.7698ZM15.8673 18.769C15.8582 18.7694 15.8488 18.7696 15.8375 18.7698L15.8517 19.3697C15.8624 19.3694 15.875 19.3691 15.8879 19.3687L15.8673 18.769ZM16.211 18.7538C16.0974 18.7603 15.9831 18.7654 15.8682 18.769L15.887 19.3687C16.0074 19.3649 16.1268 19.3596 16.2453 19.3528L16.211 18.7538ZM16.2594 18.7509C16.2425 18.7519 16.2273 18.7529 16.2123 18.7537L16.244 19.3528C16.2623 19.3519 16.2804 19.3507 16.2968 19.3497L16.2594 18.7509ZM16.2713 18.7501C16.2673 18.7504 16.2633 18.7506 16.2594 18.7509L16.2968 19.3497C16.3007 19.3495 16.3045 19.3492 16.3083 19.349L16.2713 18.7501ZM16.6107 18.7247C16.4989 18.7346 16.3856 18.743 16.2712 18.7501L16.3084 19.349C16.4275 19.3416 16.5462 19.3328 16.6639 19.3223L16.6107 18.7247ZM16.6306 18.7228C16.6228 18.7236 16.617 18.7241 16.6115 18.7246L16.6631 19.3224C16.6727 19.3216 16.6819 19.3207 16.6891 19.3199L16.6306 18.7228ZM16.6496 18.721C16.6427 18.7216 16.6361 18.7223 16.6306 18.7228L16.6891 19.3199C16.6949 19.3194 16.6996 19.3189 16.7041 19.3185L16.6496 18.721ZM16.9803 18.6857C16.8713 18.6989 16.7608 18.7106 16.649 18.721L16.7047 19.3185C16.8214 19.3076 16.9374 19.2953 17.0526 19.2813L16.9803 18.6857ZM17.0064 18.6827L16.9822 18.6855L17.0507 19.2816L17.0749 19.2788L17.0064 18.6827ZM17.3311 18.6374C17.2225 18.654 17.1137 18.6695 17.0039 18.683L17.0774 19.2785C17.1942 19.2641 17.309 19.2478 17.4221 19.2305L17.3311 18.6374ZM17.3882 18.6286L17.3311 18.6374L17.4221 19.2305L17.4792 19.2217L17.3882 18.6286ZM17.6959 18.5751C17.594 18.5943 17.4909 18.6123 17.3867 18.6289L17.4807 19.2215C17.5909 19.204 17.6999 19.185 17.8073 19.1647L17.6959 18.5751ZM17.7502 18.5645L17.6941 18.5754L17.8091 19.1643L17.8652 19.1534L17.7502 18.5645ZM18.0572 18.4998C17.9574 18.5227 17.8548 18.544 17.7501 18.5645L17.8654 19.1533C17.9743 19.132 18.0834 19.1094 18.1912 19.0847L18.0572 18.4998ZM18.0677 18.4974C18.062 18.4988 18.0618 18.4988 18.0623 18.4987L18.1861 19.0858C18.1966 19.0836 18.2062 19.0812 18.2104 19.0802L18.0677 18.4974ZM18.0788 18.4947C18.0744 18.4958 18.0702 18.4968 18.0677 18.4974L18.2103 19.0802C18.2133 19.0795 18.2146 19.0792 18.2157 19.0789L18.0788 18.4947Z" fill="white"/>
</svg>
