<svg width="38" height="34" viewBox="0 0 38 34" fill="none" xmlns="http://www.w3.org/2000/svg">
<path d="M26.9396 12.9974C26.8109 12.7267 26.4871 12.6118 26.2166 12.7402C25.946 12.8688 25.8308 13.1925 25.9595 13.4631C26.0544 13.6627 26.1024 13.8772 26.1024 14.1005V15.2603C26.1024 16.0803 25.4352 16.7474 24.6154 16.7474C23.7954 16.7474 23.1283 16.0802 23.1283 15.2603V14.1005C23.1283 13.2805 23.7955 12.6134 24.6154 12.6134C24.915 12.6134 25.1579 12.3704 25.1579 12.0708C25.1579 11.7712 24.915 11.5283 24.6154 11.5283C23.197 11.5283 22.0431 12.6822 22.0431 14.1006V15.2603C22.0431 16.6787 23.197 17.8326 24.6154 17.8326C26.0337 17.8326 27.1876 16.6787 27.1876 15.2603V14.1006C27.1876 13.7148 27.1041 13.3437 26.9396 12.9974Z" fill="white" stroke="white" stroke-width="0.6"/>
<path d="M14.7617 12.9974C14.6331 12.7267 14.3093 12.6118 14.0387 12.7402C13.768 12.8688 13.6529 13.1925 13.7816 13.4631C13.8765 13.6627 13.9245 13.8772 13.9245 14.1005V15.2603C13.9245 16.0803 13.2573 16.7474 12.4374 16.7474C11.6175 16.7474 10.9504 16.0802 10.9504 15.2603V14.1005C10.9504 13.2805 11.6175 12.6134 12.4374 12.6134C12.7371 12.6134 12.9799 12.3704 12.9799 12.0708C12.9799 11.7712 12.737 11.5283 12.4374 11.5283C11.019 11.5283 9.8652 12.6822 9.8652 14.1006V15.2603C9.8652 16.6787 11.019 17.8326 12.4374 17.8326C13.8557 17.8326 15.0097 16.6787 15.0097 15.2603V14.1006C15.0096 13.7148 14.9261 13.3437 14.7617 12.9974Z" fill="white" stroke="white" stroke-width="0.6"/>
<path fill-rule="evenodd" clip-rule="evenodd" d="M37.0338 9.05764C37.0154 8.97166 36.57 6.92921 35.4593 4.85578C33.9364 2.01279 31.891 0.510132 29.5445 0.510132C27.7768 0.510132 25.5437 1.5793 25.2689 1.71427C24.3516 2.0738 23.8295 1.93362 22.8869 1.67946C21.9647 1.43073 20.7015 1.09009 18.5263 1.09009C16.3512 1.09009 15.0881 1.43072 14.1657 1.67945L14.1657 1.67946C13.2232 1.93369 12.7011 2.07387 11.7838 1.71427C11.509 1.57938 9.27583 0.510132 7.50815 0.510132C5.16168 0.510132 3.11633 2.01279 1.59334 4.85578C0.482628 6.92921 0.0372726 8.97174 0.0188187 9.05764C-0.0148327 9.21461 -0.0101287 9.37526 0.0886542 9.50191C0.183819 9.62392 0.295845 9.69636 0.447529 9.70642C0.563536 9.75621 1.36668 10.1966 1.31168 12.7842C1.25588 15.4038 1.62648 17.2161 1.94729 18.2751C2.12409 18.8589 2.58616 19.2934 3.18327 19.4374C3.31831 19.4701 3.45393 19.486 3.58774 19.486C4.03418 19.486 4.46072 19.3085 4.77885 18.9788C4.79033 18.9669 4.80145 18.9547 4.81256 18.9425C4.82079 18.9335 4.82902 18.9245 4.8374 18.9156C5.58098 22.4542 7.95431 25.2918 10.1668 26.422C10.418 26.9424 10.8215 27.4159 11.3608 27.8114C11.4998 27.9133 11.6463 28.0073 11.7979 28.0951C12.2725 29.4459 13.5068 31.1055 15.5919 31.8444C16.1979 32.8306 17.2865 33.4899 18.5265 33.4899C19.7664 33.4899 20.8551 32.8306 21.4611 31.8444C23.5474 31.1055 24.7749 29.4608 25.2553 28.0949C25.4068 28.0072 25.5532 27.9133 25.6921 27.8114C26.2314 27.4159 26.6349 26.9424 26.8862 26.422C29.0986 25.2918 31.4719 22.4542 32.2155 18.9156L32.2262 18.927L32.2405 18.9427C32.2516 18.9548 32.2626 18.9669 32.274 18.9788C32.5921 19.3085 33.0186 19.486 33.4651 19.486C33.5989 19.486 33.7346 19.4701 33.8696 19.4374C34.4667 19.2934 34.9288 18.8588 35.1056 18.2751C35.4262 17.216 35.7968 15.4038 35.7412 12.7842C35.6861 10.1965 36.4893 9.75614 36.6053 9.70642C36.757 9.69636 36.869 9.62392 36.9642 9.50191C37.0627 9.37534 37.0675 9.21468 37.0338 9.05764ZM3.99807 18.2253C3.79131 18.4394 3.5373 18.4066 3.43779 18.3826C3.21881 18.3298 3.0499 18.172 2.98585 17.9605C2.68791 16.9768 2.34387 15.2843 2.39663 12.8073C2.45054 10.2734 1.72165 9.2746 1.18019 8.88294C1.60398 7.30075 3.41695 1.5953 7.50823 1.5953C8.36348 1.5953 9.39733 1.91155 10.1734 2.20536C7.25858 3.80563 6.82073 7.34606 6.39572 10.7827L6.39571 10.7828L6.39568 10.7831C6.04998 13.5787 5.69252 16.4695 3.99807 18.2253ZM14.7569 28.8506C14.249 28.8506 13.7525 28.7912 13.2808 28.6786C13.6873 29.3259 14.2915 29.9673 15.1064 30.4338C15.0921 30.307 15.0842 30.1783 15.0842 30.0477V28.8414C14.9757 28.8469 14.8666 28.8506 14.7569 28.8506ZM20.8833 30.0477C20.8833 31.3474 19.8259 32.4047 18.5263 32.4047C17.2267 32.4047 16.1694 31.3473 16.1694 30.0477V28.6939C16.8356 28.5421 17.4532 28.2824 17.9838 27.9268V29.4678C17.9838 29.7675 18.2267 30.0104 18.5263 30.0104C18.8259 30.0104 19.0689 29.7675 19.0689 29.4678V27.9268C19.5994 28.2824 20.217 28.5421 20.8833 28.6939V30.0477ZM21.9685 30.0478C21.9685 30.1788 21.9603 30.308 21.946 30.4352C22.7635 29.969 23.3671 29.3284 23.7737 28.6782C23.3014 28.7911 22.8043 28.8507 22.2957 28.8507C22.186 28.8507 22.0769 28.8469 21.9685 28.8415V30.0478ZM34.6561 12.8073C34.7088 15.2842 34.3647 16.9768 34.0669 17.9605C34.0028 18.172 33.8338 18.3298 33.6149 18.3826C33.5153 18.4066 33.2614 18.4394 33.0547 18.2253C31.3603 16.4695 31.0028 13.5786 30.6571 10.7828L30.657 10.7825C30.4266 8.91876 30.1882 6.99165 29.5501 5.3971C29.4388 5.11891 29.123 4.98366 28.8448 5.09503C28.5665 5.20634 28.4313 5.52215 28.5427 5.80034C29.1286 7.26438 29.348 9.03807 29.5802 10.9158V10.9158L29.5802 10.916C29.8769 13.3145 30.1821 15.7785 31.3111 17.7003C31.0775 19.8712 30.1772 21.5561 29.4553 22.5941C28.7923 23.5472 27.9949 24.3674 27.1821 24.9468C27.1263 23.9834 26.6026 23.0936 25.6921 22.4259C24.8222 21.7879 23.6871 21.4236 22.479 21.39C22.1338 20.0516 20.5219 19.0671 18.5265 19.0671C16.531 19.0671 14.919 20.0516 14.5739 21.3901C14.3159 21.3973 14.0588 21.419 13.8074 21.4564C13.511 21.5006 13.3065 21.7765 13.3506 22.073C13.3907 22.3423 13.6223 22.5358 13.8866 22.5358C13.9131 22.5358 13.94 22.5338 13.9671 22.5297C14.1671 22.4999 14.3718 22.4819 14.5775 22.4751C14.9118 23.6837 16.3244 24.3274 17.3 24.7719L17.3398 24.79C17.7169 24.9618 18.1217 25.0478 18.5266 25.0478C18.9314 25.0478 19.3363 24.9618 19.7134 24.79L19.7531 24.7719L19.7531 24.7718C20.7288 24.3273 22.1414 23.6836 22.4756 22.475C24.4915 22.5405 26.1027 23.7011 26.1027 25.1187C26.1027 26.5783 24.395 27.7657 22.296 27.7657C21.2424 27.7657 20.26 27.4671 19.5301 26.9248C18.9393 26.486 18.114 26.4861 17.5232 26.9248C16.7932 27.467 15.8109 27.7657 14.7573 27.7657C12.6583 27.7657 10.9506 26.5783 10.9506 25.1187C10.9506 24.4812 11.2892 23.8623 11.9041 23.3761C12.1392 23.1903 12.179 22.849 11.9932 22.614C11.8073 22.3789 11.4662 22.3391 11.2311 22.5249C10.4023 23.1803 9.92432 24.0346 9.87077 24.9468C9.058 24.3673 8.26071 23.5472 7.59782 22.5942C6.87594 21.5562 5.97561 19.8713 5.742 17.7004C6.87095 15.7786 7.17627 13.3146 7.47284 10.9161L7.47295 10.9152C7.70912 9.00576 7.93219 7.20224 8.54092 5.72536C9.17082 4.19716 10.1325 3.26028 11.5559 2.78713C12.7118 3.19514 13.4842 2.98738 14.4486 2.72721C15.3603 2.4813 16.4952 2.17526 18.5266 2.17526C20.558 2.17526 21.6928 2.48123 22.6046 2.72721L22.605 2.72731C23.1769 2.88156 23.6812 3.01755 24.2381 3.01755C24.6199 3.01755 25.0267 2.95322 25.4968 2.78742C26.2666 3.0431 26.896 3.43005 27.4129 3.9705C27.62 4.18703 27.9634 4.19477 28.18 3.98765C28.3966 3.78053 28.4042 3.43714 28.1971 3.22055C27.8135 2.81941 27.3716 2.48065 26.8758 2.20688C27.6522 1.9127 28.6881 1.59537 29.5448 1.59537C33.6289 1.59537 35.4471 7.30126 35.8725 8.8833C35.3307 9.27503 34.6022 10.2739 34.6561 12.8073ZM19.303 23.7843C20.2147 23.369 21.4632 22.8002 21.4632 21.9292C21.4632 20.9659 20.1183 20.1522 18.5263 20.1522C16.9344 20.1522 15.5895 20.9659 15.5895 21.9292C15.5895 22.8001 16.838 23.3689 17.7496 23.7843L17.7497 23.7843L17.7896 23.8025C18.2578 24.016 18.7949 24.016 19.2631 23.8025L19.303 23.7843Z" fill="white"/>
<path d="M35.4593 4.85578L35.1948 4.99744L35.1949 4.99744L35.4593 4.85578ZM37.0338 9.05764L36.7404 9.12037L36.7405 9.12049L37.0338 9.05764ZM25.2689 1.71427L25.3784 1.99358L25.39 1.98903L25.4011 1.98354L25.2689 1.71427ZM22.8869 1.67946L22.8088 1.96911L22.8088 1.96911L22.8869 1.67946ZM14.1657 1.67945L14.2433 1.96924L14.2438 1.9691L14.1657 1.67945ZM14.1657 1.67946L14.0881 1.38968L14.0876 1.38981L14.1657 1.67946ZM11.7838 1.71427L11.6515 1.98357L11.6627 1.98904L11.6743 1.99358L11.7838 1.71427ZM1.59334 4.85578L1.32889 4.71412L1.32889 4.71412L1.59334 4.85578ZM0.0188187 9.05764L-0.27449 8.99463L-0.274516 8.99475L0.0188187 9.05764ZM0.0886542 9.50191L0.32521 9.31741L0.325205 9.3174L0.0886542 9.50191ZM0.447529 9.70642L0.56585 9.43074L0.518641 9.41048L0.467381 9.40708L0.447529 9.70642ZM1.31168 12.7842L1.61161 12.7906L1.61161 12.7906L1.31168 12.7842ZM1.94729 18.2751L2.23441 18.1881L2.23441 18.1881L1.94729 18.2751ZM3.18327 19.4374L3.25375 19.1458L3.25361 19.1458L3.18327 19.4374ZM4.77885 18.9788L4.56298 18.7704L4.56296 18.7705L4.77885 18.9788ZM4.81256 18.9425L4.591 18.7403L4.59099 18.7403L4.81256 18.9425ZM4.8374 18.9156L5.13099 18.8539L5.0128 18.2915L4.61894 18.71L4.8374 18.9156ZM10.1668 26.422L10.4369 26.2916L10.3931 26.2007L10.3032 26.1548L10.1668 26.422ZM11.3608 27.8114L11.1834 28.0533L11.1834 28.0533L11.3608 27.8114ZM11.7979 28.0951L12.081 27.9957L12.0442 27.891L11.9482 27.8354L11.7979 28.0951ZM15.5919 31.8444L15.8475 31.6874L15.792 31.5971L15.6921 31.5617L15.5919 31.8444ZM21.4611 31.8444L21.3609 31.5616L21.261 31.597L21.2055 31.6874L21.4611 31.8444ZM25.2553 28.0949L25.105 27.8353L25.0091 27.8908L24.9723 27.9954L25.2553 28.0949ZM25.6921 27.8114L25.5147 27.5695L25.5146 27.5695L25.6921 27.8114ZM26.8862 26.422L26.7497 26.1548L26.6599 26.2007L26.616 26.2916L26.8862 26.422ZM32.2155 18.9156L32.4352 18.7113L32.041 18.2874L31.9219 18.8539L32.2155 18.9156ZM32.2262 18.927L32.4476 18.7246L32.4458 18.7227L32.2262 18.927ZM32.2405 18.9427L32.4623 18.7407L32.4619 18.7403L32.2405 18.9427ZM32.274 18.9788L32.4899 18.7705L32.4899 18.7704L32.274 18.9788ZM33.8696 19.4374L33.7992 19.1458L33.7991 19.1458L33.8696 19.4374ZM35.1056 18.2751L35.3927 18.362L35.3927 18.362L35.1056 18.2751ZM35.7412 12.7842L36.0411 12.7778V12.7778L35.7412 12.7842ZM36.6053 9.70642L36.5855 9.40708L36.5343 9.41047L36.4871 9.43068L36.6053 9.70642ZM36.9642 9.50191L37.2008 9.68641L37.201 9.68614L36.9642 9.50191ZM3.43779 18.3826L3.5082 18.091L3.50815 18.091L3.43779 18.3826ZM3.99807 18.2253L4.21389 18.4337L4.21394 18.4336L3.99807 18.2253ZM2.98585 17.9605L3.27297 17.8736L2.98585 17.9605ZM2.39663 12.8073L2.69656 12.8137L2.69656 12.8136L2.39663 12.8073ZM1.18019 8.88294L0.890402 8.80532L0.836941 9.00492L1.00436 9.12602L1.18019 8.88294ZM10.1734 2.20536L10.3178 2.46834L10.8882 2.15519L10.2796 1.9248L10.1734 2.20536ZM6.39572 10.7827L6.09799 10.7459L6.0979 10.7466L6.39572 10.7827ZM6.39571 10.7828L6.69334 10.8205L6.69353 10.8189L6.39571 10.7828ZM6.39568 10.7831L6.09804 10.7454L6.09794 10.7463L6.39568 10.7831ZM13.2808 28.6786L13.3504 28.3868L12.6362 28.2163L13.0267 28.8382L13.2808 28.6786ZM15.1064 30.4338L14.9574 30.6941L15.4706 30.9879L15.4045 30.4002L15.1064 30.4338ZM15.0842 28.8414H15.3842V28.526L15.0692 28.5418L15.0842 28.8414ZM16.1694 28.6939L16.1027 28.4014L15.8694 28.4546V28.6939H16.1694ZM17.9838 27.9268H18.2838V27.3647L17.8168 27.6776L17.9838 27.9268ZM19.0689 27.9268L19.2359 27.6776L18.7689 27.3646V27.9268H19.0689ZM20.8833 28.6939H21.1833V28.4546L20.9499 28.4014L20.8833 28.6939ZM21.946 30.4352L21.6479 30.4016L21.5818 30.9882L22.0946 30.6958L21.946 30.4352ZM23.7737 28.6782L24.0281 28.8372L24.4165 28.2159L23.7039 28.3864L23.7737 28.6782ZM21.9685 28.8415L21.9834 28.5419L21.6685 28.5261V28.8415H21.9685ZM34.0669 17.9605L34.354 18.0475L34.354 18.0475L34.0669 17.9605ZM34.6561 12.8073L34.3562 12.8136V12.8137L34.6561 12.8073ZM33.6149 18.3826L33.685 18.6743L33.6853 18.6742L33.6149 18.3826ZM33.0547 18.2253L32.8388 18.4336L32.8389 18.4336L33.0547 18.2253ZM30.6571 10.7828L30.9548 10.746L30.9548 10.7456L30.6571 10.7828ZM30.657 10.7825L30.3593 10.8193L30.3594 10.8197L30.657 10.7825ZM29.5501 5.3971L29.2715 5.50854L29.2715 5.50857L29.5501 5.3971ZM28.8448 5.09503L28.9562 5.37358L28.9562 5.37355L28.8448 5.09503ZM28.5427 5.80034L28.8212 5.68886L28.8212 5.68883L28.5427 5.80034ZM29.5802 10.9158H29.8802V10.8973L29.8779 10.879L29.5802 10.9158ZM29.5802 10.9158H29.2802V10.9331L29.2822 10.9502L29.5802 10.9158ZM29.5802 10.916L29.2822 10.9504L29.2825 10.9528L29.5802 10.916ZM31.3111 17.7003L31.6093 17.7324L31.62 17.6338L31.5697 17.5484L31.3111 17.7003ZM29.4553 22.5941L29.7015 22.7654L29.7015 22.7654L29.4553 22.5941ZM27.1821 24.9468L26.8826 24.9642L26.914 25.5064L27.3562 25.1911L27.1821 24.9468ZM25.6921 22.4259L25.5147 22.6678L25.5147 22.6678L25.6921 22.4259ZM22.479 21.39L22.1885 21.4649L22.2449 21.6836L22.4707 21.6899L22.479 21.39ZM14.5739 21.3901L14.5823 21.69L14.808 21.6836L14.8644 21.465L14.5739 21.3901ZM13.8074 21.4564L13.7632 21.1597L13.7632 21.1597L13.8074 21.4564ZM13.3506 22.073L13.0539 22.1171L13.0539 22.1171L13.3506 22.073ZM13.9671 22.5297L13.9229 22.233L13.9227 22.2331L13.9671 22.5297ZM14.5775 22.4751L14.8667 22.3951L14.8037 22.1675L14.5676 22.1753L14.5775 22.4751ZM17.3 24.7719L17.1757 25.0449L17.1757 25.0449L17.3 24.7719ZM17.3398 24.79L17.4642 24.517L17.4641 24.5169L17.3398 24.79ZM19.7134 24.79L19.589 24.5169L19.5889 24.517L19.7134 24.79ZM19.7531 24.7719L19.6349 24.496L19.6288 24.4988L19.7531 24.7719ZM19.7531 24.7718L19.8714 25.0477L19.8775 25.0448L19.7531 24.7718ZM22.4756 22.475L22.4853 22.1751L22.2494 22.1675L22.1865 22.395L22.4756 22.475ZM19.5301 26.9248L19.709 26.684L19.709 26.684L19.5301 26.9248ZM17.5232 26.9248L17.3444 26.684L17.3444 26.684L17.5232 26.9248ZM11.9041 23.3761L12.0902 23.6114L12.0902 23.6114L11.9041 23.3761ZM11.9932 22.614L11.7579 22.8L11.7579 22.8L11.9932 22.614ZM11.2311 22.5249L11.0451 22.2895L11.045 22.2896L11.2311 22.5249ZM9.87077 24.9468L9.69661 25.1911L10.1384 25.5061L10.1702 24.9644L9.87077 24.9468ZM7.59782 22.5942L7.35153 22.7654L7.35153 22.7654L7.59782 22.5942ZM5.742 17.7004L5.48334 17.5484L5.43312 17.6339L5.44373 17.7325L5.742 17.7004ZM7.47284 10.9161L7.17511 10.8793L7.17511 10.8793L7.47284 10.9161ZM7.47295 10.9152L7.77068 10.9521L7.77068 10.952L7.47295 10.9152ZM8.54092 5.72536L8.81829 5.83969V5.83968L8.54092 5.72536ZM11.5559 2.78713L11.6557 2.50424L11.5588 2.47002L11.4612 2.50245L11.5559 2.78713ZM14.4486 2.72721L14.3705 2.43756L14.3704 2.43757L14.4486 2.72721ZM22.6046 2.72721L22.5265 3.01686L22.5266 3.01687L22.6046 2.72721ZM22.605 2.72731L22.6831 2.43766L22.6831 2.43765L22.605 2.72731ZM25.4968 2.78742L25.5913 2.50271L25.4939 2.47034L25.397 2.50451L25.4968 2.78742ZM27.4129 3.9705L27.1961 4.17785L27.1961 4.17787L27.4129 3.9705ZM28.1971 3.22055L28.414 3.01321L28.4139 3.0132L28.1971 3.22055ZM26.8758 2.20688L26.7695 1.92634L26.1631 2.15609L26.7308 2.46951L26.8758 2.20688ZM35.8725 8.8833L36.0482 9.12641L36.2159 9.00519L36.1622 8.8054L35.8725 8.8833ZM19.303 23.7843L19.4273 24.0573L19.4273 24.0573L19.303 23.7843ZM17.7496 23.7843L17.6252 24.0573L17.6277 24.0584L17.7496 23.7843ZM17.7497 23.7843L17.8741 23.5113L17.8716 23.5102L17.7497 23.7843ZM17.7896 23.8025L17.9141 23.5295L17.914 23.5295L17.7896 23.8025ZM19.2631 23.8025L19.1387 23.5295L19.1386 23.5295L19.2631 23.8025ZM35.1949 4.99744C36.2859 7.03424 36.7243 9.04473 36.7404 9.12037L37.3272 8.99491C37.3066 8.8986 36.8541 6.82418 35.7237 4.71412L35.1949 4.99744ZM29.5445 0.810132C31.7401 0.810132 33.7018 2.21027 35.1948 4.99744L35.7237 4.71412C34.1709 1.8153 32.042 0.210132 29.5445 0.210132V0.810132ZM25.4011 1.98354C25.5324 1.91906 26.1476 1.62358 26.9458 1.34481C27.7495 1.0641 28.7116 0.810132 29.5445 0.810132V0.210132C28.6097 0.210132 27.5714 0.490749 26.7479 0.778366C25.9189 1.06793 25.2801 1.37452 25.1366 1.445L25.4011 1.98354ZM22.8088 1.96911C23.2723 2.09408 23.6698 2.20238 24.0693 2.22645C24.4818 2.25131 24.8852 2.18689 25.3784 1.99358L25.1594 1.43496C24.7353 1.60118 24.419 1.64643 24.1054 1.62754C23.779 1.60787 23.4442 1.519 22.9651 1.38981L22.8088 1.96911ZM18.5263 1.39009C20.6637 1.39009 21.898 1.72346 22.8088 1.96911L22.9651 1.38981C22.0314 1.138 20.7393 0.790092 18.5263 0.790092V1.39009ZM14.2438 1.9691C15.1548 1.72345 16.389 1.39009 18.5263 1.39009V0.790092C16.3134 0.790092 15.0214 1.13799 14.0876 1.3898L14.2438 1.9691ZM14.2433 1.96925L14.2433 1.96924L14.0881 1.38967L14.0881 1.38968L14.2433 1.96925ZM11.6743 1.99358C12.1675 2.18692 12.5709 2.25136 12.9833 2.22651C13.3829 2.20243 13.7804 2.09411 14.2438 1.96911L14.0876 1.38981C13.6085 1.51905 13.2737 1.60792 12.9473 1.62759C12.6337 1.64649 12.3174 1.60122 11.8932 1.43496L11.6743 1.99358ZM7.50815 0.810132C8.34105 0.810132 9.30316 1.06412 10.1069 1.34484C10.905 1.62361 11.5202 1.91909 11.6515 1.98357L11.916 1.44497C11.7725 1.37456 11.1338 1.06797 10.3047 0.778394C9.48123 0.490768 8.44293 0.210132 7.50815 0.210132V0.810132ZM1.85778 4.99745C3.35087 2.21027 5.31265 0.810132 7.50815 0.810132V0.210132C5.01071 0.210132 2.88179 1.81531 1.32889 4.71412L1.85778 4.99745ZM0.312127 9.12065C0.328436 9.04473 0.766715 7.03421 1.85779 4.99744L1.32889 4.71412C0.198541 6.82421 -0.253891 8.89874 -0.274489 8.99463L0.312127 9.12065ZM0.325205 9.3174C0.30586 9.2926 0.286545 9.23998 0.312153 9.12052L-0.274516 8.99475C-0.31621 9.18923 -0.326117 9.45793 -0.147897 9.68642L0.325205 9.3174ZM0.467381 9.40708C0.419418 9.4039 0.38034 9.38809 0.32521 9.31741L-0.147902 9.68641C-0.0127025 9.85975 0.172272 9.98883 0.427677 10.0058L0.467381 9.40708ZM1.61161 12.7906C1.66776 10.149 0.845964 9.55096 0.56585 9.43074L0.329208 9.9821C0.281108 9.96146 1.0656 10.2442 1.01175 12.7778L1.61161 12.7906ZM2.23441 18.1881C1.92271 17.1592 1.55649 15.3784 1.61161 12.7906L1.01175 12.7778C0.955275 15.4292 1.33026 17.273 1.66018 18.362L2.23441 18.1881ZM3.25361 19.1458C2.75906 19.0265 2.3801 18.6692 2.23441 18.1881L1.66017 18.362C1.86807 19.0485 2.41326 19.5603 3.11293 19.7291L3.25361 19.1458ZM3.58774 19.186C3.47777 19.186 3.36581 19.1729 3.25375 19.1458L3.11279 19.729C3.27081 19.7672 3.43009 19.786 3.58774 19.786V19.186ZM4.56296 18.7705C4.30173 19.0412 3.95328 19.186 3.58774 19.186V19.786C4.11508 19.786 4.61971 19.5758 4.99474 19.1871L4.56296 18.7705ZM4.59099 18.7403C4.57942 18.7529 4.57109 18.762 4.56298 18.7704L4.99472 19.1871C5.00957 19.1717 5.02347 19.1565 5.03413 19.1448L4.59099 18.7403ZM4.61894 18.71C4.60874 18.7208 4.59899 18.7315 4.591 18.7403L5.03412 19.1448C5.04259 19.1355 5.0493 19.1282 5.05586 19.1212L4.61894 18.71ZM10.3032 26.1548C8.17647 25.0684 5.85711 22.3094 5.13099 18.8539L4.54381 18.9773C5.30486 22.599 7.73214 25.5152 10.0303 26.6892L10.3032 26.1548ZM11.5382 27.5695C11.0334 27.1993 10.6642 26.7624 10.4369 26.2916L9.8966 26.5524C10.1718 27.1224 10.6097 27.6326 11.1834 28.0533L11.5382 27.5695ZM11.9482 27.8354C11.8043 27.7522 11.6671 27.664 11.5382 27.5695L11.1834 28.0533C11.3324 28.1626 11.4882 28.2624 11.6477 28.3547L11.9482 27.8354ZM15.6921 31.5617C13.7067 30.858 12.5308 29.2761 12.081 27.9957L11.5149 28.1945C12.0142 29.6158 13.307 31.3529 15.4917 32.1272L15.6921 31.5617ZM18.5265 33.1899C17.3954 33.1899 16.4015 32.5888 15.8475 31.6874L15.3363 32.0015C15.9944 33.0724 17.1776 33.7899 18.5265 33.7899V33.1899ZM21.2055 31.6874C20.6515 32.5888 19.6575 33.1899 18.5265 33.1899V33.7899C19.8754 33.7899 21.0586 33.0724 21.7167 32.0015L21.2055 31.6874ZM24.9723 27.9954C24.5167 29.2906 23.3477 30.858 21.3609 31.5616L21.5612 32.1272C23.747 31.3531 25.0331 29.6309 25.5383 28.1945L24.9723 27.9954ZM25.5146 27.5695C25.3859 27.664 25.2488 27.7521 25.105 27.8353L25.4056 28.3546C25.5649 28.2624 25.7206 28.1626 25.8696 28.0533L25.5146 27.5695ZM26.616 26.2916C26.3887 26.7624 26.0195 27.1993 25.5147 27.5695L25.8695 28.0533C26.4432 27.6326 26.8811 27.1224 27.1563 26.5524L26.616 26.2916ZM31.9219 18.8539C31.1958 22.3094 28.8765 25.0684 26.7497 26.1548L27.0226 26.6892C29.3208 25.5152 31.7481 22.599 32.5091 18.9773L31.9219 18.8539ZM32.4458 18.7227L32.4352 18.7113L31.9959 19.1199L32.0065 19.1313L32.4458 18.7227ZM32.4619 18.7403L32.4476 18.7246L32.0048 19.1295L32.0191 19.1452L32.4619 18.7403ZM32.4899 18.7704C32.4819 18.7622 32.4738 18.7533 32.4623 18.7407L32.0188 19.1448C32.0293 19.1564 32.0432 19.1717 32.0581 19.1871L32.4899 18.7704ZM33.4651 19.186C33.0995 19.186 32.7511 19.0412 32.4899 18.7705L32.0581 19.1871C32.4331 19.5758 32.9377 19.786 33.4651 19.786V19.186ZM33.7991 19.1458C33.6871 19.1729 33.5751 19.186 33.4651 19.186V19.786C33.6227 19.786 33.7821 19.7672 33.9401 19.729L33.7991 19.1458ZM34.8184 18.1881C34.6728 18.6691 34.2938 19.0265 33.7992 19.1458L33.94 19.7291C34.6396 19.5602 35.1848 19.0485 35.3927 18.362L34.8184 18.1881ZM35.4412 12.7906C35.4962 15.3783 35.13 17.1591 34.8184 18.1881L35.3927 18.362C35.7224 17.2729 36.0974 15.4292 36.0411 12.7778L35.4412 12.7906ZM36.4871 9.43068C36.2068 9.55081 35.385 10.149 35.4412 12.7906L36.0411 12.7778C35.9872 10.244 36.7718 9.96147 36.7235 9.98216L36.4871 9.43068ZM36.7276 9.3174C36.6725 9.38809 36.6334 9.4039 36.5855 9.40708L36.6252 10.0058C36.8806 9.98883 37.0656 9.85975 37.2008 9.68641L36.7276 9.3174ZM36.7405 9.12049C36.7661 9.23999 36.7468 9.29284 36.7274 9.31767L37.201 9.68614C37.3786 9.45783 37.3689 9.18937 37.3272 8.99478L36.7405 9.12049ZM3.36738 18.6742C3.50495 18.7074 3.89615 18.7627 4.21389 18.4337L3.78225 18.0169C3.68648 18.1161 3.56965 18.1058 3.5082 18.091L3.36738 18.6742ZM2.69873 18.0475C2.79435 18.3632 3.04748 18.597 3.36744 18.6742L3.50815 18.091C3.39013 18.0625 3.30544 17.9808 3.27297 17.8736L2.69873 18.0475ZM2.0967 12.8009C2.04327 15.3091 2.39152 17.0332 2.69873 18.0475L3.27297 17.8736C2.9843 16.9205 2.64447 15.2594 2.69656 12.8137L2.0967 12.8009ZM1.00436 9.12602C1.43735 9.43921 2.1494 10.3239 2.0967 12.8009L2.69656 12.8136C2.75168 10.2229 2.00594 9.10998 1.35601 8.63987L1.00436 9.12602ZM7.50823 1.2953C5.30551 1.2953 3.75072 2.83298 2.71468 4.48651C1.67359 6.14809 1.10514 8.0036 0.890402 8.80532L1.46997 8.96056C1.67902 8.18009 2.22895 6.39178 3.22312 4.80508C4.22233 3.21034 5.61967 1.8953 7.50823 1.8953V1.2953ZM10.2796 1.9248C9.4984 1.62903 8.42133 1.2953 7.50823 1.2953V1.8953C8.30562 1.8953 9.29626 2.19406 10.0672 2.48593L10.2796 1.9248ZM6.69345 10.8196C6.90688 9.09374 7.11973 7.38293 7.63423 5.90397C8.14567 4.4338 8.94578 3.22158 10.3178 2.46834L10.029 1.94239C8.48621 2.78941 7.60999 4.14754 7.06754 5.70683C6.52816 7.25731 6.30957 9.03505 6.09799 10.7459L6.69345 10.8196ZM6.69353 10.8189L6.69354 10.8188L6.0979 10.7466L6.09789 10.7467L6.69353 10.8189ZM6.69331 10.8207L6.69334 10.8205L6.09808 10.7452L6.09805 10.7454L6.69331 10.8207ZM4.21394 18.4336C5.1108 17.5043 5.64156 16.2877 5.99253 14.9714C6.34321 13.6562 6.52111 12.2133 6.69341 10.8199L6.09794 10.7463C5.92455 12.1485 5.75087 13.5488 5.41279 14.8169C5.07499 16.0838 4.57979 17.1905 3.7822 18.0169L4.21394 18.4336ZM13.2111 28.9704C13.7058 29.0885 14.2257 29.1506 14.7569 29.1506V28.5506C14.2723 28.5506 13.7992 28.4939 13.3504 28.3868L13.2111 28.9704ZM15.2554 30.1734C14.488 29.7341 13.9182 29.1295 13.5348 28.519L13.0267 28.8382C13.4564 29.5223 14.095 30.2005 14.9574 30.6941L15.2554 30.1734ZM14.7842 30.0477C14.7842 30.1905 14.7929 30.3304 14.8083 30.4673L15.4045 30.4002C15.3914 30.2835 15.3842 30.1661 15.3842 30.0477H14.7842ZM14.7842 28.8414V30.0477H15.3842V28.8414H14.7842ZM14.7569 29.1506C14.8733 29.1506 14.9878 29.1466 15.0992 29.1411L15.0692 28.5418C14.9637 28.5471 14.8599 28.5506 14.7569 28.5506V29.1506ZM18.5263 32.7047C19.9916 32.7047 21.1833 31.5131 21.1833 30.0477H20.5833C20.5833 31.1817 19.6602 32.1047 18.5263 32.1047V32.7047ZM15.8694 30.0477C15.8694 31.513 17.061 32.7047 18.5263 32.7047V32.1047C17.3924 32.1047 16.4694 31.1816 16.4694 30.0477H15.8694ZM15.8694 28.6939V30.0477H16.4694V28.6939H15.8694ZM17.8168 27.6776C17.3192 28.011 16.7363 28.2571 16.1027 28.4014L16.236 28.9864C16.935 28.8272 17.5871 28.5538 18.1508 28.1761L17.8168 27.6776ZM18.2838 29.4678V27.9268H17.6838V29.4678H18.2838ZM18.5263 29.7104C18.3924 29.7104 18.2838 29.6018 18.2838 29.4678H17.6838C17.6838 29.9331 18.061 30.3104 18.5263 30.3104V29.7104ZM18.7689 29.4678C18.7689 29.6018 18.6602 29.7104 18.5263 29.7104V30.3104C18.9916 30.3104 19.3689 29.9331 19.3689 29.4678H18.7689ZM18.7689 27.9268V29.4678H19.3689V27.9268H18.7689ZM20.9499 28.4014C20.3163 28.2571 19.7333 28.011 19.2359 27.6776L18.9019 28.176C19.4655 28.5538 20.1176 28.8272 20.8166 28.9864L20.9499 28.4014ZM21.1833 30.0477V28.6939H20.5833V30.0477H21.1833ZM22.2441 30.4688C22.2596 30.3316 22.2684 30.1912 22.2684 30.0478H21.6685C21.6685 30.1664 21.6611 30.2843 21.6479 30.4016L22.2441 30.4688ZM23.5193 28.5191C23.1361 29.132 22.5671 29.7356 21.7974 30.1746L22.0946 30.6958C22.9599 30.2024 23.5982 29.5248 24.0281 28.8372L23.5193 28.5191ZM22.2957 29.1507C22.8276 29.1507 23.3482 29.0884 23.8435 28.9699L23.7039 28.3864C23.2546 28.4939 22.781 28.5507 22.2957 28.5507V29.1507ZM21.9535 29.1411C22.0649 29.1467 22.1793 29.1507 22.2957 29.1507V28.5507C22.1927 28.5507 22.089 28.5472 21.9834 28.5419L21.9535 29.1411ZM22.2684 30.0478V28.8415H21.6685V30.0478H22.2684ZM34.354 18.0475C34.6611 17.0332 35.0094 15.3091 34.956 12.8009L34.3562 12.8137C34.4082 15.2594 34.0683 16.9205 33.7797 17.8736L34.354 18.0475ZM33.6853 18.6742C34.0051 18.597 34.2583 18.3632 34.354 18.0475L33.7797 17.8736C33.7473 17.9808 33.6625 18.0625 33.5445 18.091L33.6853 18.6742ZM32.8389 18.4336C33.1566 18.7628 33.5477 18.7073 33.685 18.6743L33.5448 18.0909C33.4828 18.1058 33.3662 18.116 33.2706 18.0169L32.8389 18.4336ZM30.3593 10.8196C30.5316 12.2131 30.7096 13.656 31.0602 14.9713C31.4112 16.2877 31.942 17.5043 32.8388 18.4336L33.2706 18.0169C32.473 17.1905 31.9778 16.0837 31.64 14.8167C31.3019 13.5487 31.1282 12.1483 30.9548 10.746L30.3593 10.8196ZM30.3594 10.8197L30.3594 10.82L30.9548 10.7456L30.9547 10.7453L30.3594 10.8197ZM29.2715 5.50857C29.8925 7.06006 30.1276 8.94566 30.3593 10.8193L30.9548 10.7457C30.7255 8.89186 30.484 6.92323 29.8286 5.28563L29.2715 5.50857ZM28.9562 5.37355C29.0807 5.32374 29.2218 5.38424 29.2715 5.50854L29.8286 5.28566C29.6557 4.85359 29.1653 4.64358 28.7333 4.81651L28.9562 5.37355ZM28.8212 5.68883C28.7714 5.56442 28.8319 5.4233 28.9562 5.37358L28.7333 4.81649C28.3011 4.98937 28.0912 5.47988 28.2642 5.91184L28.8212 5.68883ZM29.8779 10.879C29.6471 9.01208 29.4245 7.19621 28.8212 5.68886L28.2642 5.91181C28.8328 7.33255 29.0489 9.06406 29.2825 10.9526L29.8779 10.879ZM29.8802 10.9158V10.9158H29.2802V10.9158H29.8802ZM29.8783 10.8816L29.8782 10.8815L29.2822 10.9502L29.2822 10.9504L29.8783 10.8816ZM31.5697 17.5484C30.4782 15.6903 30.1766 13.2936 29.878 10.8792L29.2825 10.9528C29.5772 13.3354 29.886 15.8667 31.0524 17.8523L31.5697 17.5484ZM29.7015 22.7654C30.4422 21.7004 31.3688 19.9682 31.6093 17.7324L31.0128 17.6682C30.7862 19.7742 29.9122 21.4118 29.209 22.4228L29.7015 22.7654ZM27.3562 25.1911C28.2005 24.5893 29.0214 23.7432 29.7015 22.7654L29.209 22.4228C28.5631 23.3513 27.7893 24.1455 27.0079 24.7026L27.3562 25.1911ZM25.5147 22.6678C26.3661 23.2922 26.8328 24.1051 26.8826 24.9642L27.4816 24.9295C27.4197 23.8617 26.839 22.895 25.8695 22.184L25.5147 22.6678ZM22.4707 21.6899C23.6259 21.722 24.7 22.0704 25.5147 22.6678L25.8695 22.184C24.9443 21.5054 23.7483 21.1252 22.4873 21.0901L22.4707 21.6899ZM18.5265 19.3671C20.4521 19.3671 21.8918 20.3143 22.1885 21.4649L22.7695 21.3151C22.3759 19.7888 20.5918 18.7671 18.5265 18.7671V19.3671ZM14.8644 21.465C15.1611 20.3144 16.6008 19.3671 18.5265 19.3671V18.7671C16.4611 18.7671 14.677 19.7889 14.2834 21.3152L14.8644 21.465ZM13.8516 21.7532C14.0903 21.7176 14.3354 21.6969 14.5823 21.69L14.5655 21.0902C14.2963 21.0978 14.0273 21.1204 13.7632 21.1597L13.8516 21.7532ZM13.6473 22.0288C13.6276 21.8963 13.719 21.7729 13.8516 21.7532L13.7632 21.1597C13.3029 21.2283 12.9854 21.6568 13.0539 22.1171L13.6473 22.0288ZM13.8866 22.2358C13.7687 22.2358 13.6652 22.149 13.6473 22.0288L13.0539 22.1171C13.1162 22.5356 13.4758 22.8358 13.8866 22.8358V22.2358ZM13.9227 22.2331C13.9105 22.2349 13.8984 22.2358 13.8866 22.2358V22.8358C13.9278 22.8358 13.9696 22.8327 14.0115 22.8264L13.9227 22.2331ZM14.5676 22.1753C14.351 22.1824 14.1349 22.2014 13.9229 22.233L14.0113 22.8265C14.1994 22.7984 14.3925 22.7814 14.5874 22.7749L14.5676 22.1753ZM17.4244 24.4988C16.9327 24.2749 16.3619 24.0138 15.8721 23.6656C15.3824 23.3173 15.0078 22.9052 14.8667 22.3951L14.2884 22.5551C14.4816 23.2535 14.9804 23.7676 15.5244 24.1545C16.0684 24.5414 16.6917 24.8244 17.1757 25.0449L17.4244 24.4988ZM17.4641 24.5169L17.4244 24.4988L17.1757 25.0449L17.2154 25.063L17.4641 24.5169ZM18.5266 24.7478C18.1642 24.7478 17.8019 24.6709 17.4642 24.517L17.2154 25.0629C17.632 25.2528 18.0792 25.3478 18.5266 25.3478V24.7478ZM19.5889 24.517C19.2514 24.6709 18.8889 24.7478 18.5266 24.7478V25.3478C18.9738 25.3478 19.4213 25.2528 19.8378 25.0629L19.5889 24.517ZM19.6288 24.4988L19.589 24.5169L19.8377 25.063L19.8774 25.0449L19.6288 24.4988ZM19.635 24.4961L19.6349 24.4961L19.8713 25.0476L19.8713 25.0476L19.635 24.4961ZM22.1865 22.395C22.0454 22.9052 21.6708 23.3172 21.1811 23.6655C20.6913 24.0138 20.1205 24.2748 19.6288 24.4988L19.8775 25.0448C20.3615 24.8243 20.9848 24.5413 21.5288 24.1544C22.0728 23.7676 22.5716 23.2534 22.7648 22.5549L22.1865 22.395ZM26.4027 25.1187C26.4027 24.2877 25.93 23.5617 25.2214 23.0471C24.5121 22.5319 23.5454 22.2096 22.4853 22.1751L22.4659 22.7748C23.4217 22.8059 24.2686 23.0966 24.8688 23.5325C25.4698 23.969 25.8027 24.5321 25.8027 25.1187H26.4027ZM22.296 28.0657C23.3993 28.0657 24.4124 27.7541 25.1578 27.2358C25.9019 26.7184 26.4027 25.9745 26.4027 25.1187H25.8027C25.8027 25.7225 25.4497 26.302 24.8152 26.7432C24.182 27.1835 23.2917 27.4657 22.296 27.4657V28.0657ZM19.3512 27.1656C20.1408 27.7522 21.1886 28.0657 22.296 28.0657V27.4657C21.2962 27.4657 20.3793 27.1819 19.709 26.684L19.3512 27.1656ZM17.7021 27.1657C18.1867 26.8058 18.8666 26.8057 19.3512 27.1657L19.709 26.684C19.0119 26.1662 18.0414 26.1663 17.3444 26.684L17.7021 27.1657ZM14.7573 28.0657C15.8647 28.0657 16.9124 27.7521 17.7021 27.1657L17.3444 26.684C16.6739 27.1819 15.7571 27.4657 14.7573 27.4657V28.0657ZM10.6506 25.1187C10.6506 25.9745 11.1514 26.7184 11.8956 27.2358C12.6409 27.7541 13.654 28.0657 14.7573 28.0657V27.4657C13.7616 27.4657 12.8713 27.1835 12.2381 26.7432C11.6036 26.302 11.2506 25.7225 11.2506 25.1187H10.6506ZM11.718 23.1408C11.0494 23.6694 10.6506 24.3685 10.6506 25.1187H11.2506C11.2506 24.5939 11.529 24.0551 12.0902 23.6114L11.718 23.1408ZM11.7579 22.8C11.841 22.9051 11.8231 23.0577 11.718 23.1408L12.0902 23.6114C12.4552 23.3228 12.5171 22.7929 12.2285 22.4279L11.7579 22.8ZM11.4171 22.7603C11.5223 22.6771 11.6748 22.695 11.7579 22.8L12.2285 22.4279C11.9398 22.0628 11.4101 22.0011 11.0451 22.2895L11.4171 22.7603ZM10.1702 24.9644C10.218 24.1508 10.6444 23.3713 11.4172 22.7602L11.045 22.2896C10.1602 22.9893 9.63062 23.9185 9.57128 24.9292L10.1702 24.9644ZM7.35153 22.7654C8.03157 23.7432 8.85239 24.5892 9.69661 25.1911L10.0449 24.7025C9.2636 24.1455 8.48986 23.3513 7.84411 22.4229L7.35153 22.7654ZM5.44373 17.7325C5.68432 19.9683 6.6109 21.7005 7.35153 22.7654L7.84411 22.4229C7.14099 21.4118 6.2669 19.7743 6.04028 17.6683L5.44373 17.7325ZM7.17511 10.8793C6.87657 13.2938 6.57483 15.6904 5.48334 17.5484L6.00067 17.8523C7.16707 15.8668 7.47598 13.3355 7.77057 10.9529L7.17511 10.8793ZM7.17523 10.8784L7.17511 10.8793L7.77056 10.953L7.77068 10.9521L7.17523 10.8784ZM8.26356 5.61104C7.63632 7.13281 7.40998 8.98034 7.17522 10.8784L7.77068 10.952C8.00826 9.03117 8.22805 7.27167 8.81829 5.83969L8.26356 5.61104ZM11.4612 2.50245C9.94611 3.0061 8.92291 4.01138 8.26356 5.61104L8.81829 5.83968C9.41873 4.38293 10.3189 3.51445 11.6505 3.07181L11.4612 2.50245ZM14.3704 2.43757C13.412 2.69613 12.7185 2.87936 11.6557 2.50424L11.456 3.07003C12.7051 3.51093 13.5564 3.27862 14.5267 3.01686L14.3704 2.43757ZM18.5266 1.87526C16.4577 1.87526 15.294 2.18847 14.3705 2.43756L14.5267 3.01686C15.4267 2.77413 16.5328 2.47526 18.5266 2.47526V1.87526ZM22.6828 2.43756C21.7591 2.1884 20.5955 1.87526 18.5266 1.87526V2.47526C20.5204 2.47526 21.6265 2.77406 22.5265 3.01686L22.6828 2.43756ZM22.6831 2.43765L22.6827 2.43755L22.5266 3.01687L22.5269 3.01697L22.6831 2.43765ZM24.2381 2.71755C23.7274 2.71755 23.2612 2.59356 22.6831 2.43766L22.5269 3.01696C23.0927 3.16956 23.635 3.31755 24.2381 3.31755V2.71755ZM25.397 2.50451C24.9569 2.65974 24.5837 2.71755 24.2381 2.71755V3.31755C24.656 3.31755 25.0966 3.24669 25.5966 3.07034L25.397 2.50451ZM27.6297 3.76315C27.0758 3.18398 26.403 2.77229 25.5913 2.50271L25.4022 3.07213C26.1302 3.31391 26.7162 3.67613 27.1961 4.17785L27.6297 3.76315ZM27.9726 3.77083C27.8758 3.8634 27.7223 3.85999 27.6297 3.76313L27.1961 4.17787C27.5177 4.51406 28.0509 4.52614 28.3873 4.20448L27.9726 3.77083ZM27.9803 3.42788C28.0729 3.52474 28.0695 3.67822 27.9726 3.77083L28.3873 4.20448C28.7237 3.88284 28.7356 3.34955 28.414 3.01321L27.9803 3.42788ZM26.7308 2.46951C27.2007 2.72895 27.6182 3.04923 27.9803 3.42789L28.4139 3.0132C28.0088 2.58958 27.5426 2.23235 27.0208 1.94425L26.7308 2.46951ZM29.5448 1.29537C28.6302 1.29537 27.551 1.63023 26.7695 1.92634L26.982 2.48742C27.7534 2.19518 28.7461 1.89537 29.5448 1.89537V1.29537ZM36.1622 8.8054C35.9466 8.0038 35.3765 6.1483 34.3348 4.48672C33.2983 2.83335 31.744 1.29537 29.5448 1.29537V1.89537C31.4296 1.89537 32.8265 3.21033 33.8265 4.80542C34.8213 6.3923 35.3729 8.18076 35.5827 8.9612L36.1622 8.8054ZM34.956 12.8009C34.9033 10.3243 35.615 9.43966 36.0482 9.12641L35.6967 8.6402C35.0464 9.11041 34.301 10.2234 34.3562 12.8136L34.956 12.8009ZM21.1632 21.9292C21.1632 22.2108 20.9599 22.4925 20.5511 22.7831C20.1527 23.0664 19.6403 23.301 19.1786 23.5113L19.4273 24.0573C19.8773 23.8523 20.4451 23.5948 20.8989 23.2721C21.3423 22.9568 21.7632 22.5186 21.7632 21.9292H21.1632ZM18.5263 20.4522C19.2747 20.4522 19.9538 20.6441 20.4365 20.9361C20.9274 21.2331 21.1632 21.5966 21.1632 21.9292H21.7632C21.7632 21.2985 21.3266 20.7734 20.7471 20.4228C20.1592 20.0671 19.3699 19.8522 18.5263 19.8522V20.4522ZM15.8895 21.9292C15.8895 21.5965 16.1253 21.2331 16.6162 20.9361C17.0988 20.6441 17.7779 20.4522 18.5263 20.4522V19.8522C17.6828 19.8522 16.8934 20.0671 16.3056 20.4228C15.726 20.7734 15.2895 21.2985 15.2895 21.9292H15.8895ZM17.874 23.5113C17.4123 23.3009 16.8999 23.0664 16.5015 22.7831C16.0928 22.4924 15.8895 22.2108 15.8895 21.9292H15.2895C15.2895 22.5185 15.7104 22.9567 16.1538 23.2721C16.6076 23.5947 17.1753 23.8523 17.6252 24.0573L17.874 23.5113ZM17.8716 23.5102L17.8714 23.5101L17.6277 24.0584L17.6279 24.0585L17.8716 23.5102ZM17.914 23.5295L17.8741 23.5113L17.6254 24.0573L17.6652 24.0755L17.914 23.5295ZM19.1386 23.5295C18.7495 23.707 18.3032 23.707 17.9141 23.5295L17.6651 24.0755C18.2124 24.325 18.8403 24.325 19.3876 24.0755L19.1386 23.5295ZM19.1786 23.5113L19.1387 23.5295L19.3875 24.0755L19.4273 24.0573L19.1786 23.5113Z" fill="white"/>
</svg>
