<svg width="37" height="34" viewBox="0 0 37 34" fill="none" xmlns="http://www.w3.org/2000/svg">
<path d="M12.0453 17.4015C11.757 17.4015 11.5232 17.6353 11.5232 17.9236V19.0334C11.5232 19.3218 11.757 19.5555 12.0453 19.5555C12.3337 19.5555 12.5675 19.3218 12.5675 19.0334V17.9236C12.5676 17.6353 12.3337 17.4015 12.0453 17.4015Z" fill="white" stroke="white" stroke-width="0.6"/>
<path d="M24.3091 17.4015C24.0208 17.4015 23.787 17.6353 23.787 17.9236V19.0334C23.787 19.3218 24.0208 19.5555 24.3091 19.5555C24.5975 19.5555 24.8313 19.3218 24.8313 19.0334V17.9236C24.8313 17.6353 24.5975 17.4015 24.3091 17.4015Z" fill="white" stroke="white" stroke-width="0.6"/>
<path d="M20.0343 18.5631C19.8172 18.3733 19.4874 18.3955 19.2975 18.6126C19.0247 18.9247 18.6164 19.1037 18.1773 19.1037C17.7381 19.1037 17.3298 18.9247 17.0569 18.6126C16.8671 18.3955 16.5372 18.3732 16.3201 18.5632C16.103 18.753 16.0808 19.0828 16.2706 19.3C16.7419 19.8389 17.4368 20.148 18.1773 20.148C18.9177 20.148 19.6127 19.8389 20.0838 19.2999C20.2736 19.0827 20.2514 18.7529 20.0343 18.5631Z" fill="white" stroke="white" stroke-width="0.6"/>
<path d="M10.0116 23.0319C9.15284 22.6142 8.68673 21.9178 8.63639 21.8398C8.4801 21.5975 8.15692 21.5278 7.91457 21.6841C7.67222 21.8404 7.60246 22.1636 7.75876 22.4059C7.8673 22.5742 8.46394 23.4404 9.55482 23.971C9.81096 24.0955 10.1284 23.9856 10.2528 23.7298C10.3789 23.4705 10.2709 23.158 10.0116 23.0319Z" fill="white" stroke="white" stroke-width="0.6"/>
<path d="M10.9214 21.6251C10.2893 21.3176 9.92785 20.7809 9.91998 20.769C9.76313 20.5283 9.44107 20.4594 9.19941 20.6153C8.95707 20.7717 8.88738 21.0948 9.04374 21.3371C9.06428 21.369 9.55803 22.1232 10.4646 22.5642C10.5381 22.6 10.6159 22.6169 10.6926 22.6169C10.8861 22.6169 11.0721 22.5088 11.1625 22.3231C11.2886 22.0638 11.1807 21.7513 10.9214 21.6251Z" fill="white" stroke="white" stroke-width="0.6"/>
<path d="M28.4401 21.684C28.1978 21.5277 27.8746 21.5974 27.7183 21.8397C27.6679 21.9177 27.2017 22.6142 26.343 23.0318C26.0837 23.158 25.9757 23.4704 26.1018 23.7298C26.2259 23.9849 26.5447 24.0949 26.7997 23.9709C27.8904 23.4403 28.4872 22.5741 28.5958 22.4059C28.7521 22.1635 28.6824 21.8403 28.4401 21.684Z" fill="white" stroke="white" stroke-width="0.6"/>
<path d="M27.1552 20.6152C26.9129 20.4589 26.5897 20.5286 26.4334 20.7709C26.4299 20.7763 26.07 21.3153 25.4332 21.6251C25.1739 21.7512 25.066 22.0637 25.1921 22.323C25.3164 22.5785 25.6348 22.6885 25.8901 22.5641C26.7967 22.1231 27.2904 21.3689 27.311 21.3371C27.4673 21.0947 27.3976 20.7715 27.1552 20.6152Z" fill="white" stroke="white" stroke-width="0.6"/>
<path fill-rule="evenodd" clip-rule="evenodd" d="M34.768 16.9388C36.186 15.2626 36.0897 14.0578 35.878 13.4533C35.6004 12.6604 34.8719 12.1298 33.9293 12.0338C33.2209 11.962 32.4379 12.1449 31.7243 12.5497C31.2058 12.8437 30.7263 13.2522 30.3065 13.7518C29.6728 12.1791 28.7643 10.7403 27.6105 9.52472C25.7929 7.60961 23.4672 6.3366 20.8898 5.81299C21.0692 5.29515 21.1867 4.76082 21.2259 4.26059C21.2931 3.40517 21.1372 2.65404 20.7749 2.08823C20.4193 1.53294 19.68 0.871063 18.1772 0.871063C16.6744 0.871063 15.9352 1.53294 15.5795 2.08823C15.2172 2.65397 15.0613 3.40517 15.1285 4.26059C15.1677 4.76005 15.2849 5.29355 15.4638 5.81069C14.5241 6.00075 13.6158 6.29086 12.7465 6.68136C12.4835 6.79951 12.3661 7.10855 12.4842 7.37165C12.6024 7.63467 12.9114 7.75205 13.1745 7.63397C14.1506 7.19551 15.1812 6.89377 16.2544 6.73058L16.259 6.7303C16.2608 6.73025 16.2626 6.73019 16.2644 6.72989C17.4109 6.55437 18.5703 6.55249 19.7217 6.68039L19.734 6.68185C24.4393 7.2457 28.3271 10.6646 29.7145 15.1596C30.1919 16.7062 30.3777 18.3372 30.2933 19.9523C30.1374 22.9362 28.8221 24.7342 25.8952 25.9642C21.0114 28.0167 15.3446 28.0175 10.4591 25.9642C7.5322 24.7342 6.21686 22.9361 6.06098 19.9523C5.8327 15.5829 7.71251 11.1614 11.3657 8.65106C11.6034 8.48773 11.6637 8.16267 11.5003 7.92499C11.337 7.6873 11.012 7.62701 10.7743 7.79034C8.90093 9.07762 7.37952 10.8755 6.37476 12.9896C6.25668 13.238 6.14682 13.4907 6.04358 13.7465C5.62495 13.2492 5.14687 12.8425 4.63008 12.5494C3.91647 12.1447 3.13331 11.9615 2.42492 12.0336C1.4824 12.1295 0.753968 12.6601 0.476322 13.453C0.264607 14.0576 0.168461 15.2623 1.58656 16.9387C1.37011 17.0434 1.17454 17.1839 1.00759 17.3572C0.645847 17.7327 0.438379 18.2448 0.438379 18.7622C0.438379 19.285 0.64362 19.7655 1.0163 20.1151C1.18408 20.2726 1.43548 20.4481 1.79368 20.5641C1.52578 21.1656 1.4941 21.8461 1.72155 22.4978C2.05705 23.459 2.95877 24.2287 4.00301 24.2287C4.4861 24.2287 5.16316 24.0723 5.8657 23.4131C6.31802 24.2825 6.95497 25.0232 7.79216 25.6569C6.38694 25.6904 5.41184 26.1409 4.89477 26.9998C4.08571 28.3438 4.99565 29.9977 6.48295 30.2798C6.663 30.3139 6.85238 30.3423 7.0457 30.3713C7.89229 30.4983 8.81456 30.6366 9.36105 31.3193C9.5259 31.5252 9.6744 31.7413 9.82241 31.9566C10.1094 32.3741 10.3946 32.7889 10.7935 33.1224C11.3661 33.6011 12.0716 33.8487 12.8172 33.8487C14.0177 33.8487 15.3047 33.4608 16.3479 32.7844C17.7254 31.8913 18.8236 30.4519 19.6164 28.5049C21.9279 28.35 24.1702 27.822 26.2999 26.9269C28.3258 26.0755 29.6925 24.9434 30.4888 23.4131C31.0712 23.9596 31.8655 24.327 32.6769 24.2046C33.5491 24.073 34.3168 23.403 34.6328 22.4978C34.8603 21.8462 34.8286 21.1656 34.5607 20.5641C34.919 20.4481 35.1703 20.2726 35.3381 20.1151C35.7108 19.7655 35.916 19.2851 35.916 18.7622C35.916 18.2448 35.7085 17.7327 35.3467 17.3572C35.18 17.1841 34.9844 17.0435 34.768 16.9388ZM19.842 5.64249C18.8797 5.52657 17.9039 5.51258 16.9385 5.598L16.9155 5.60002C16.7806 5.6122 16.6463 5.62613 16.5124 5.64221C16.1279 4.63313 15.9789 3.4012 16.459 2.65139C16.7718 2.16301 17.3499 1.91537 18.1772 1.91537C19.0045 1.91537 19.5826 2.16301 19.8954 2.65139C20.3756 3.40127 20.2265 4.6332 19.842 5.64249ZM5.0959 17.5107C4.04944 16.7095 3.33124 16.0135 2.96009 15.44C2.80345 15.1979 2.87265 14.8746 3.11486 14.718C3.35693 14.5613 3.68025 14.6305 3.83689 14.8727C4.0839 15.2544 4.58614 15.758 5.27928 16.3243C5.37216 15.8534 5.48856 15.3893 5.62669 14.9333C4.64734 13.4325 3.36013 12.9884 2.53096 13.0728C1.99404 13.1274 1.60445 13.3919 1.46214 13.7984C1.1987 14.5509 1.75392 15.6982 2.94742 16.8674C3.09899 17.0158 3.1457 17.2412 3.0655 17.4377C2.9853 17.6342 2.79426 17.7625 2.58206 17.7625C1.86044 17.7625 1.48289 18.2656 1.48289 18.7625C1.48289 18.9937 1.57103 19.2037 1.73102 19.3538C1.93716 19.5473 2.26313 19.6495 2.67361 19.6495C2.88135 19.6495 3.06933 19.7727 3.15232 19.9632C3.23523 20.1536 3.19736 20.3752 3.05589 20.5273C2.6326 20.9824 2.50568 21.5752 2.70765 22.1539C2.89758 22.698 3.33946 23.0977 3.83334 23.1722C4.35779 23.2512 4.91663 22.963 5.42632 22.3583C5.19769 21.6501 5.06339 20.8693 5.01835 20.0068C5.01798 19.9998 5.01776 19.9928 5.01755 19.9857L5.01755 19.9857L5.01689 19.9672C4.38508 19.8587 3.61954 19.6566 2.96337 19.28C2.71322 19.1364 2.62689 18.8173 2.77045 18.5672C2.91394 18.3171 3.23308 18.2307 3.48322 18.3743C3.95225 18.6435 4.50817 18.8054 5.00247 18.9029C5.01208 18.4358 5.04334 17.9711 5.0959 17.5107ZM15.7798 31.9085C14.9143 32.4696 13.8069 32.8047 12.8173 32.8047C11.7126 32.8047 11.159 32.026 10.5989 31.2382L10.5989 31.2382C10.4612 31.0445 10.3231 30.8503 10.1764 30.6669C9.43129 29.7361 8.26774 29.5334 7.15611 29.3398C6.99502 29.3118 6.83502 29.2839 6.67754 29.2541C5.90099 29.1068 5.34584 28.2758 5.78953 27.5387C6.12517 26.9811 6.8559 26.6984 7.9614 26.6984C8.71428 26.6984 9.49625 26.8297 10.1042 26.9482C10.1537 26.9688 10.2034 26.9886 10.253 27.0083L10.2534 27.0085L10.3341 27.0408C10.8763 27.2594 11.4295 27.4574 11.9882 27.6298C11.5474 27.9435 10.9369 28.2953 10.2485 28.4573C9.96779 28.5233 9.79381 28.8044 9.85981 29.0851C9.92476 29.3611 10.2124 29.5385 10.4876 29.4738C11.7764 29.1706 12.7996 28.3608 13.2348 27.9706L13.2828 27.9821C13.91 28.1319 14.5434 28.2524 15.1817 28.3431C14.9375 28.8938 14.4804 29.7203 13.7535 30.2968C13.5275 30.476 13.4896 30.8044 13.6688 31.0303C13.845 31.2526 14.1806 31.2908 14.4024 31.115C15.4468 30.2867 16.0179 29.0936 16.2622 28.4678C16.663 28.5036 17.0643 28.5281 17.4664 28.5413C17.7978 28.5523 18.1293 28.5572 18.4608 28.5524C17.7717 30.0735 16.8719 31.2004 15.7798 31.9085ZM33.681 19.6496C34.0915 19.6496 34.4175 19.5473 34.6236 19.3539C34.7836 19.2037 34.8717 18.9938 34.8718 18.7626C34.8718 18.2657 34.4942 17.7626 33.7726 17.7626C33.5604 17.7626 33.3694 17.6342 33.2892 17.4378C33.209 17.2414 33.2556 17.0159 33.4072 16.8674C34.6008 15.6982 35.156 14.5509 34.8927 13.7984C34.7504 13.3919 34.3608 13.1274 33.824 13.0728C32.9936 12.9883 31.7048 13.4333 30.7253 14.9378C30.8633 15.3926 30.9794 15.8561 31.0729 16.3266C31.7674 15.7593 32.2706 15.255 32.5179 14.8727C32.6746 14.6306 32.998 14.5615 33.24 14.718C33.4821 14.8748 33.5514 15.198 33.3947 15.4401C33.0234 16.0138 32.305 16.7099 31.2583 17.5113C31.3113 17.971 31.3436 18.4353 31.3536 18.9029C31.8481 18.8052 32.4032 18.6434 32.8715 18.3745C33.1215 18.231 33.4407 18.3173 33.5843 18.5674C33.7279 18.8175 33.6415 19.1366 33.3914 19.2802C32.7357 19.6566 31.9708 19.8587 31.338 19.9673C31.3373 19.9806 31.3371 19.9939 31.3364 20.0071C31.2914 20.8697 31.1571 21.6504 30.9284 22.3586C31.4379 22.9632 31.9969 23.2514 32.5213 23.1723C33.0152 23.0977 33.457 22.6981 33.647 22.154C33.8489 21.5753 33.7221 20.9825 33.2987 20.5274C33.1572 20.3752 33.1193 20.1537 33.2023 19.9632C33.2852 19.7728 33.4733 19.6496 33.681 19.6496Z" fill="white"/>
<path d="M35.878 13.4533L35.5949 13.5524L35.5949 13.5524L35.878 13.4533ZM34.768 16.9388L34.539 16.745L34.2891 17.0404L34.6373 17.2089L34.768 16.9388ZM33.9293 12.0338L33.9597 11.7354L33.9596 11.7354L33.9293 12.0338ZM31.7243 12.5497L31.5763 12.2887L31.5762 12.2887L31.7243 12.5497ZM30.3065 13.7518L30.0283 13.8639L30.2149 14.3272L30.5362 13.9448L30.3065 13.7518ZM27.6105 9.52472L27.3929 9.73124L27.3929 9.73125L27.6105 9.52472ZM20.8898 5.81299L20.6063 5.71478L20.4941 6.03872L20.8301 6.10698L20.8898 5.81299ZM21.2259 4.26059L20.9269 4.23711V4.23712L21.2259 4.26059ZM20.7749 2.08823L20.5222 2.25L20.5222 2.25001L20.7749 2.08823ZM15.5795 2.08823L15.3269 1.92644L15.3269 1.92644L15.5795 2.08823ZM15.1285 4.26059L15.4275 4.23712L15.4275 4.23711L15.1285 4.26059ZM15.4638 5.81069L15.5233 6.10474L15.8595 6.03674L15.7473 5.7126L15.4638 5.81069ZM12.7465 6.68136L12.8695 6.95502L12.8695 6.95502L12.7465 6.68136ZM12.4842 7.37165L12.2105 7.49454L12.2106 7.49457L12.4842 7.37165ZM13.1745 7.63397L13.2973 7.90767L13.2974 7.90763L13.1745 7.63397ZM16.2544 6.73058L16.2358 6.43116L16.2225 6.43199L16.2093 6.43399L16.2544 6.73058ZM16.259 6.7303L16.2498 6.43029L16.2403 6.43088L16.259 6.7303ZM16.2644 6.72989L16.219 6.43331L16.2151 6.43396L16.2644 6.72989ZM19.7217 6.68039L19.757 6.38247L19.7548 6.38222L19.7217 6.68039ZM19.734 6.68185L19.7697 6.38398L19.7693 6.38394L19.734 6.68185ZM29.7145 15.1596L29.4279 15.2481L29.4279 15.2481L29.7145 15.1596ZM30.2933 19.9523L29.9937 19.9367L30.2933 19.9523ZM25.8952 25.9642L25.7789 25.6877L25.7789 25.6877L25.8952 25.9642ZM10.4591 25.9642L10.5753 25.6877L10.5753 25.6877L10.4591 25.9642ZM6.06098 19.9523L6.36057 19.9367L6.06098 19.9523ZM11.3657 8.65106L11.1958 8.40381L11.3657 8.65106ZM10.7743 7.79034L10.6044 7.54307L10.6044 7.54309L10.7743 7.79034ZM6.37476 12.9896L6.64571 13.1184L6.64571 13.1184L6.37476 12.9896ZM6.04358 13.7465L5.81407 13.9397L6.13515 14.3211L6.32177 13.8588L6.04358 13.7465ZM4.63008 12.5494L4.77808 12.2884L4.77807 12.2884L4.63008 12.5494ZM2.42492 12.0336L2.39456 11.7351L2.39454 11.7351L2.42492 12.0336ZM0.476322 13.453L0.193182 13.3538L0.193181 13.3538L0.476322 13.453ZM1.58656 16.9387L1.7172 17.2087L2.06544 17.0402L1.8156 16.7449L1.58656 16.9387ZM1.00759 17.3572L1.22364 17.5654L1.22364 17.5654L1.00759 17.3572ZM1.0163 20.1151L1.22161 19.8964L1.22156 19.8964L1.0163 20.1151ZM1.79368 20.5641L2.06773 20.6861L2.20342 20.3814L1.8861 20.2786L1.79368 20.5641ZM1.72155 22.4978L1.4383 22.5967L1.43831 22.5967L1.72155 22.4978ZM5.8657 23.4131L6.13183 23.2747L5.94911 22.9235L5.66042 23.1943L5.8657 23.4131ZM7.79216 25.6569L7.7993 25.9568L8.65834 25.9364L7.97323 25.4177L7.79216 25.6569ZM4.89477 26.9998L4.63776 26.845L4.63774 26.845L4.89477 26.9998ZM6.48295 30.2798L6.53886 29.985L6.53884 29.985L6.48295 30.2798ZM7.0457 30.3713L7.0012 30.668H7.0012L7.0457 30.3713ZM9.36105 31.3193L9.59527 31.1318L9.59525 31.1318L9.36105 31.3193ZM9.82241 31.9566L10.0696 31.7866L9.82241 31.9566ZM10.7935 33.1224L10.9859 32.8922L10.9859 32.8922L10.7935 33.1224ZM16.3479 32.7844L16.1847 32.5327L16.1847 32.5327L16.3479 32.7844ZM19.6164 28.5049L19.5963 28.2056L19.4093 28.2182L19.3385 28.3918L19.6164 28.5049ZM26.2999 26.9269L26.4161 27.2035H26.4161L26.2999 26.9269ZM30.4888 23.4131L30.694 23.1943L30.4054 22.9235L30.2226 23.2747L30.4888 23.4131ZM32.6769 24.2046L32.6322 23.9079L32.6322 23.9079L32.6769 24.2046ZM34.6328 22.4978L34.3496 22.3989L34.3495 22.399L34.6328 22.4978ZM34.5607 20.5641L34.4683 20.2786L34.151 20.3814L34.2867 20.6861L34.5607 20.5641ZM35.3381 20.1151L35.1328 19.8964L35.1328 19.8964L35.3381 20.1151ZM35.3467 17.3572L35.1306 17.5653L35.1307 17.5654L35.3467 17.3572ZM16.9385 5.598L16.9647 5.89686L16.965 5.89683L16.9385 5.598ZM19.842 5.64249L19.8061 5.94033L20.0388 5.96837L20.1223 5.74931L19.842 5.64249ZM16.9155 5.60002L16.8893 5.30116L16.8885 5.30124L16.9155 5.60002ZM16.5124 5.64221L16.2321 5.74905L16.3156 5.96803L16.5482 5.94006L16.5124 5.64221ZM16.459 2.65139L16.7117 2.81318L16.7117 2.81317L16.459 2.65139ZM19.8954 2.65139L19.6427 2.81317L19.6427 2.81318L19.8954 2.65139ZM2.96009 15.44L2.70823 15.603L2.70823 15.603L2.96009 15.44ZM5.0959 17.5107L5.39397 17.5447L5.41325 17.3758L5.27828 17.2724L5.0959 17.5107ZM3.11486 14.718L3.27778 14.9699L3.27784 14.9698L3.11486 14.718ZM3.83689 14.8727L3.585 15.0356L3.58502 15.0357L3.83689 14.8727ZM5.27928 16.3243L5.08948 16.5566L5.47682 16.873L5.57361 16.3823L5.27928 16.3243ZM5.62669 14.9333L5.91381 15.0203L5.95434 14.8865L5.87793 14.7694L5.62669 14.9333ZM2.53096 13.0728L2.50058 12.7743L2.50058 12.7743L2.53096 13.0728ZM1.46214 13.7984L1.179 13.6992L1.17899 13.6992L1.46214 13.7984ZM2.94742 16.8674L2.73749 17.0817L2.73752 17.0817L2.94742 16.8674ZM1.73102 19.3538L1.93632 19.1351L1.93628 19.1351L1.73102 19.3538ZM3.15232 19.9632L3.42738 19.8434L3.42735 19.8433L3.15232 19.9632ZM3.05589 20.5273L3.27556 20.7316L3.27558 20.7316L3.05589 20.5273ZM2.70765 22.1539L2.42441 22.2528L2.42441 22.2528L2.70765 22.1539ZM3.83334 23.1722L3.78856 23.4689L3.78868 23.4689L3.83334 23.1722ZM5.42632 22.3583L5.65571 22.5517L5.76292 22.4245L5.71181 22.2661L5.42632 22.3583ZM5.01835 20.0068L5.31794 19.9912L5.31793 19.991L5.01835 20.0068ZM5.01755 19.9857L4.71762 19.9926L4.71769 19.9948L5.01755 19.9857ZM5.01755 19.9857L5.3175 19.9789L5.31736 19.9749L5.01755 19.9857ZM5.01689 19.9672L5.31669 19.9564L5.30793 19.7128L5.06768 19.6715L5.01689 19.9672ZM2.96337 19.28L3.11271 19.0198L3.11269 19.0198L2.96337 19.28ZM2.77045 18.5672L3.03063 18.7166L3.03068 18.7165L2.77045 18.5672ZM3.48322 18.3743L3.33384 18.6345L3.33388 18.6345L3.48322 18.3743ZM5.00247 18.9029L4.9444 19.1972L5.29506 19.2664L5.30241 18.9091L5.00247 18.9029ZM15.7798 31.9085L15.943 32.1602L15.943 32.1602L15.7798 31.9085ZM10.5989 31.2382L10.8435 31.0643L10.8389 31.0582L10.5989 31.2382ZM10.5989 31.2382L10.3543 31.4121L10.3589 31.4182L10.5989 31.2382ZM10.1764 30.6669L9.94216 30.8544L9.94217 30.8544L10.1764 30.6669ZM7.15611 29.3398L7.20759 29.0443L7.15611 29.3398ZM6.67754 29.2541L6.73343 28.9593L6.73343 28.9593L6.67754 29.2541ZM5.78953 27.5387L5.5325 27.384L5.5325 27.384L5.78953 27.5387ZM10.1042 26.9482L10.2199 26.6714L10.1917 26.6596L10.1616 26.6537L10.1042 26.9482ZM10.253 27.0083L10.3653 26.7301L10.3639 26.7296L10.253 27.0083ZM10.2534 27.0085L10.1412 27.2867L10.142 27.2871L10.2534 27.0085ZM10.3341 27.0408L10.4464 26.7625L10.4455 26.7622L10.3341 27.0408ZM11.9882 27.6298L12.1621 27.8742L12.6569 27.5222L12.0766 27.3432L11.9882 27.6298ZM10.2485 28.4573L10.1798 28.1652L10.1798 28.1652L10.2485 28.4573ZM9.85981 29.0851L9.56777 29.1538L9.56779 29.1538L9.85981 29.0851ZM10.4876 29.4738L10.5563 29.7658L10.5563 29.7658L10.4876 29.4738ZM13.2348 27.9706L13.3046 27.6788L13.1516 27.6423L13.0345 27.7472L13.2348 27.9706ZM13.2828 27.9821L13.2131 28.2739L13.2131 28.2739L13.2828 27.9821ZM15.1817 28.3431L15.456 28.4647L15.6169 28.1019L15.2239 28.0461L15.1817 28.3431ZM13.7535 30.2968L13.567 30.0618L13.567 30.0618L13.7535 30.2968ZM13.6688 31.0303L13.9039 30.844L13.9038 30.8439L13.6688 31.0303ZM14.4024 31.115L14.5887 31.3501L14.5888 31.3501L14.4024 31.115ZM16.2622 28.4678L16.289 28.169L16.0647 28.1489L15.9828 28.3586L16.2622 28.4678ZM17.4664 28.5413L17.4764 28.2414L17.4763 28.2414L17.4664 28.5413ZM18.4608 28.5524L18.734 28.6762L18.9291 28.2457L18.4565 28.2525L18.4608 28.5524ZM34.6236 19.3539L34.8289 19.5727L34.8289 19.5727L34.6236 19.3539ZM34.8718 18.7626L35.1718 18.7627V18.7626H34.8718ZM33.2892 17.4378L33.0114 17.5512L33.0114 17.5512L33.2892 17.4378ZM33.4072 16.8674L33.1973 16.6531L33.1972 16.6531L33.4072 16.8674ZM34.8927 13.7984L35.1759 13.6993L35.1759 13.6992L34.8927 13.7984ZM33.824 13.0728L33.8544 12.7743L33.8544 12.7743L33.824 13.0728ZM30.7253 14.9378L30.4739 14.7741L30.3976 14.8912L30.4382 15.0249L30.7253 14.9378ZM31.0729 16.3266L30.7786 16.385L30.876 16.8747L31.2627 16.5589L31.0729 16.3266ZM32.5179 14.8727L32.2661 14.7097L32.2661 14.7098L32.5179 14.8727ZM33.24 14.718L33.4031 14.4662L33.4029 14.4661L33.24 14.718ZM33.3947 15.4401L33.6466 15.6031L33.6466 15.6031L33.3947 15.4401ZM31.2583 17.5113L31.0759 17.2731L30.9408 17.3765L30.9603 17.5456L31.2583 17.5113ZM31.3536 18.9029L31.0537 18.9093L31.0613 19.2665L31.4117 19.1972L31.3536 18.9029ZM32.8715 18.3745L32.7222 18.1143L32.7222 18.1143L32.8715 18.3745ZM33.5843 18.5674L33.3241 18.7167L33.3241 18.7168L33.5843 18.5674ZM33.3914 19.2802L33.242 19.02L33.242 19.02L33.3914 19.2802ZM31.338 19.9673L31.2872 19.6717L31.051 19.7122L31.0384 19.9517L31.338 19.9673ZM31.3364 20.0071L31.0368 19.9913L31.0368 19.9915L31.3364 20.0071ZM30.9284 22.3586L30.6429 22.2664L30.5918 22.4247L30.699 22.5519L30.9284 22.3586ZM32.5213 23.1723L32.566 23.469L32.5661 23.4689L32.5213 23.1723ZM33.647 22.154L33.9302 22.2529L33.9302 22.2528L33.647 22.154ZM33.2987 20.5274L33.5184 20.323L33.5184 20.323L33.2987 20.5274ZM33.2023 19.9632L33.4773 20.0831L33.4774 20.083L33.2023 19.9632ZM35.5949 13.5524C35.767 14.0438 35.8975 15.1391 34.539 16.745L34.997 17.1326C36.4745 15.3861 36.4125 14.0717 36.1612 13.3541L35.5949 13.5524ZM33.8989 12.3323C34.7443 12.4184 35.3616 12.886 35.5949 13.5524L36.1612 13.3541C35.8393 12.4349 34.9995 11.8413 33.9597 11.7354L33.8989 12.3323ZM31.8723 12.8106C32.5402 12.4318 33.2615 12.2676 33.8991 12.3323L33.9596 11.7354C33.1803 11.6563 32.3355 11.8581 31.5763 12.2887L31.8723 12.8106ZM30.5362 13.9448C30.9356 13.4694 31.3883 13.0851 31.8723 12.8106L31.5762 12.2887C31.0233 12.6023 30.5169 13.035 30.0768 13.5588L30.5362 13.9448ZM27.3929 9.73125C28.5194 10.9181 29.4079 12.3244 30.0283 13.8639L30.5848 13.6397C29.9376 12.0337 29.0091 10.5625 27.8281 9.31819L27.3929 9.73125ZM20.8301 6.10698C23.348 6.61853 25.6184 7.86151 27.3929 9.73124L27.8281 9.3182C25.9674 7.3577 23.5863 6.05467 20.9495 5.51899L20.8301 6.10698ZM20.9269 4.23712C20.8898 4.70871 20.7785 5.2179 20.6063 5.71478L21.1733 5.9112C21.36 5.3724 21.4835 4.81292 21.525 4.28407L20.9269 4.23712ZM20.5222 2.25001C20.8406 2.74714 20.9904 3.42862 20.9269 4.23711L21.525 4.28408C21.5959 3.38172 21.4338 2.56094 21.0275 1.92646L20.5222 2.25001ZM18.1772 1.17106C19.5722 1.17106 20.2188 1.7761 20.5222 2.25L21.0275 1.92646C20.6199 1.28978 19.7878 0.571063 18.1772 0.571063V1.17106ZM15.8322 2.25003C16.1357 1.77609 16.7822 1.17106 18.1772 1.17106V0.571063C16.5667 0.571063 15.7346 1.28979 15.3269 1.92644L15.8322 2.25003ZM15.4275 4.23711C15.364 3.42861 15.5139 2.74707 15.8322 2.25002L15.3269 1.92644C14.9206 2.56087 14.7585 3.38173 14.8294 4.28408L15.4275 4.23711ZM15.7473 5.7126C15.5756 5.21635 15.4645 4.70796 15.4275 4.23712L14.8294 4.28407C14.8708 4.81214 14.9942 5.37075 15.1803 5.90878L15.7473 5.7126ZM12.8695 6.95502C13.718 6.57382 14.605 6.29046 15.5233 6.10474L15.4044 5.51664C14.4432 5.71104 13.5136 6.0079 12.6236 6.4077L12.8695 6.95502ZM12.7579 7.24875C12.7076 7.13674 12.7576 7.00526 12.8695 6.95502L12.6236 6.4077C12.2094 6.59375 12.0246 7.08036 12.2105 7.49454L12.7579 7.24875ZM13.0517 7.36027C12.9396 7.41059 12.8081 7.3605 12.7579 7.24872L12.2106 7.49457C12.3966 7.90884 12.8833 8.09351 13.2973 7.90767L13.0517 7.36027ZM16.2093 6.43399C15.1097 6.60118 14.0529 6.91049 13.0516 7.36032L13.2974 7.90763C14.2482 7.48052 15.2526 7.18636 16.2995 7.02717L16.2093 6.43399ZM16.2403 6.43088L16.2358 6.43116L16.2731 7.03L16.2776 7.02972L16.2403 6.43088ZM16.2151 6.43396C16.2269 6.43199 16.2365 6.43119 16.2422 6.43082C16.2473 6.43049 16.2515 6.43039 16.2498 6.43044L16.2681 7.03016C16.2682 7.03016 16.2742 7.03 16.2811 7.02956C16.2886 7.02907 16.3 7.02808 16.3137 7.02581L16.2151 6.43396ZM19.7548 6.38222C18.5813 6.25186 17.3951 6.25329 16.219 6.43334L16.3098 7.02643C17.4266 6.85546 18.5594 6.85312 19.6885 6.97855L19.7548 6.38222ZM19.7693 6.38394L19.757 6.38248L19.6863 6.9783L19.6986 6.97976L19.7693 6.38394ZM30.0012 15.0712C28.5807 10.4692 24.599 6.9627 19.7697 6.38398L19.6983 6.97972C24.2795 7.5287 28.0734 10.86 29.4279 15.2481L30.0012 15.0712ZM30.5929 19.968C30.679 18.3197 30.4896 16.6534 30.0012 15.0712L29.4279 15.2481C29.8943 16.759 30.0763 18.3546 29.9937 19.9367L30.5929 19.968ZM26.0114 26.2408C27.5074 25.6121 28.6194 24.8265 29.3755 23.7931C30.1327 22.758 30.5128 21.5016 30.5929 19.968L29.9937 19.9367C29.9179 21.3868 29.5624 22.5214 28.8912 23.4388C28.2189 24.3578 27.2099 25.0863 25.7789 25.6877L26.0114 26.2408ZM10.3429 26.2408C15.3027 28.3253 21.0534 28.3245 26.0114 26.2408L25.7789 25.6877C20.9695 27.7089 15.3864 27.7096 10.5753 25.6877L10.3429 26.2408ZM5.76139 19.968C5.84151 21.5016 6.22154 22.7579 6.97878 23.793C7.73483 24.8265 8.8469 25.6121 10.3429 26.2408L10.5753 25.6877C9.1444 25.0863 8.13535 24.3578 7.46303 23.4388C6.79191 22.5214 6.43633 21.3868 6.36057 19.9367L5.76139 19.968ZM11.1958 8.40381C7.44569 10.9808 5.52839 15.5082 5.76139 19.968L6.36057 19.9367C6.137 15.6575 7.97934 11.3421 11.5356 8.89831L11.1958 8.40381ZM11.2531 8.09489C11.3226 8.196 11.2969 8.3343 11.1958 8.40381L11.5356 8.89831C11.9098 8.64116 12.0048 8.12934 11.7476 7.75508L11.2531 8.09489ZM10.9441 8.03762C11.0454 7.96809 11.1836 7.99376 11.2531 8.09489L11.7476 7.75508C11.4904 7.38085 10.9787 7.28594 10.6044 7.54307L10.9441 8.03762ZM6.64571 13.1184C7.62851 11.0505 9.11569 9.29405 10.9442 8.03759L10.6044 7.54309C8.68617 8.86119 7.13053 10.7005 6.1038 12.8608L6.64571 13.1184ZM6.32177 13.8588C6.42305 13.6079 6.53052 13.3607 6.64571 13.1184L6.10381 12.8608C5.98285 13.1153 5.8706 13.3735 5.76538 13.6342L6.32177 13.8588ZM4.48208 12.8103C4.96453 13.084 5.41575 13.4665 5.81407 13.9397L6.27308 13.5533C5.83415 13.0319 5.3292 12.601 4.77808 12.2884L4.48208 12.8103ZM2.45528 12.332C3.0927 12.2672 3.81409 12.4315 4.48208 12.8103L4.77807 12.2884C4.01885 11.8578 3.17392 11.6558 2.39456 11.7351L2.45528 12.332ZM0.759463 13.5521C0.99285 12.8857 1.61005 12.4181 2.4553 12.332L2.39454 11.7351C1.35476 11.8409 0.515085 12.4346 0.193182 13.3538L0.759463 13.5521ZM1.8156 16.7449C0.456904 15.1387 0.58737 14.0436 0.759463 13.5521L0.193181 13.3538C-0.0581558 14.0715 -0.119981 15.3858 1.35751 17.1324L1.8156 16.7449ZM1.22364 17.5654C1.36543 17.4182 1.5319 17.2984 1.7172 17.2087L1.45591 16.6686C1.20831 16.7884 0.983655 16.9497 0.79155 17.1491L1.22364 17.5654ZM0.738379 18.7622C0.738379 18.3231 0.915297 17.8854 1.22364 17.5654L0.791553 17.1491C0.376398 17.58 0.138379 18.1665 0.138379 18.7622H0.738379ZM1.22156 19.8964C0.910894 19.6049 0.738379 19.2043 0.738379 18.7622H0.138379C0.138379 19.3657 0.376345 19.9261 0.811037 20.3339L1.22156 19.8964ZM1.8861 20.2786C1.57455 20.1778 1.36083 20.0271 1.22161 19.8964L0.810988 20.3339C1.00734 20.5182 1.29641 20.7184 1.70126 20.8495L1.8861 20.2786ZM2.0048 22.399C1.80225 21.8186 1.83124 21.2172 2.06773 20.6861L1.51962 20.442C1.22032 21.1141 1.18596 21.8736 1.4383 22.5967L2.0048 22.399ZM4.00301 23.9287C3.10927 23.9287 2.30634 23.2629 2.00479 22.399L1.43831 22.5967C1.80776 23.6551 2.80827 24.5287 4.00301 24.5287V23.9287ZM5.66042 23.1943C5.01698 23.7981 4.41475 23.9287 4.00301 23.9287V24.5287C4.55745 24.5287 5.30934 24.3465 6.07097 23.6319L5.66042 23.1943ZM7.97323 25.4177C7.16873 24.8087 6.56206 24.1016 6.13183 23.2747L5.59956 23.5516C6.07397 24.4634 6.74121 25.2376 7.61109 25.8961L7.97323 25.4177ZM5.15179 27.1545C5.59595 26.4167 6.45096 25.989 7.7993 25.9568L7.78501 25.357C6.32293 25.3918 5.22773 25.8651 4.63776 26.845L5.15179 27.1545ZM6.53884 29.985C5.22331 29.7356 4.46748 28.2913 5.1518 27.1545L4.63774 26.845C3.70395 28.3964 4.768 30.2599 6.42706 30.5745L6.53884 29.985ZM7.09019 30.0746C6.8957 30.0455 6.7122 30.0179 6.53886 29.985L6.42704 30.5745C6.6138 30.6099 6.80906 30.6392 7.0012 30.668L7.09019 30.0746ZM9.59525 31.1318C9.2744 30.731 8.84984 30.4996 8.41134 30.3525C7.97735 30.2069 7.50844 30.1374 7.09019 30.0746L7.0012 30.668C7.42955 30.7322 7.84507 30.7954 8.22049 30.9213C8.59139 31.0458 8.90121 31.2249 9.12685 31.5068L9.59525 31.1318ZM10.0696 31.7866C9.92262 31.5728 9.76806 31.3477 9.59527 31.1318L9.12683 31.5067C9.28374 31.7028 9.42619 31.9098 9.57519 32.1265L10.0696 31.7866ZM10.9859 32.8922C10.6236 32.5893 10.3602 32.2093 10.0696 31.7866L9.57519 32.1265C9.85867 32.5389 10.1656 32.9885 10.6011 33.3525L10.9859 32.8922ZM12.8172 33.5487C12.1397 33.5487 11.5028 33.3244 10.9859 32.8922L10.6011 33.3525C11.2294 33.8779 12.0036 34.1487 12.8172 34.1487V33.5487ZM16.1847 32.5327C15.1882 33.1787 13.9577 33.5487 12.8172 33.5487V34.1487C14.0778 34.1487 15.4211 33.7428 16.5111 33.0362L16.1847 32.5327ZM19.3385 28.3918C18.5623 30.298 17.4978 31.6813 16.1847 32.5327L16.5111 33.0362C17.9529 32.1013 19.0848 30.6058 19.8942 28.6181L19.3385 28.3918ZM26.1836 26.6504C24.0848 27.5324 21.875 28.0529 19.5963 28.2056L19.6365 28.8043C21.9807 28.6472 24.2556 28.1115 26.4161 27.2035L26.1836 26.6504ZM30.2226 23.2747C29.4675 24.726 28.1651 25.8176 26.1836 26.6504L26.4161 27.2035C28.4865 26.3333 29.9175 25.1609 30.7549 23.5516L30.2226 23.2747ZM32.6322 23.9079C31.9397 24.0124 31.2333 23.7003 30.694 23.1943L30.2835 23.6319C30.9091 24.2189 31.7914 24.6416 32.7217 24.5012L32.6322 23.9079ZM34.3495 22.399C34.0663 23.2104 33.3829 23.7947 32.6322 23.9079L32.7217 24.5012C33.7152 24.3513 34.5673 23.5956 34.916 22.5967L34.3495 22.399ZM34.2867 20.6861C34.5232 21.2172 34.5522 21.8187 34.3496 22.3989L34.916 22.5967C35.1685 21.8737 35.1341 21.1141 34.8348 20.442L34.2867 20.6861ZM35.1328 19.8964C34.9935 20.0271 34.7799 20.1778 34.4683 20.2786L34.6531 20.8495C35.0581 20.7184 35.347 20.5181 35.5434 20.3339L35.1328 19.8964ZM35.616 18.7622C35.616 19.2044 35.4435 19.6049 35.1328 19.8964L35.5434 20.3339C35.9781 19.9261 36.216 19.3658 36.216 18.7622H35.616ZM35.1307 17.5654C35.439 17.8854 35.616 18.3231 35.616 18.7622H36.216C36.216 18.1665 35.9779 17.58 35.5628 17.1491L35.1307 17.5654ZM34.6373 17.2089C34.8227 17.2985 34.9891 17.4183 35.1306 17.5653L35.5628 17.1491C35.3709 16.9498 35.1462 16.7885 34.8986 16.6687L34.6373 17.2089ZM16.965 5.89683C17.9099 5.81322 18.8648 5.82694 19.8061 5.94033L19.8778 5.34464C18.8946 5.2262 17.898 5.21193 16.9121 5.29917L16.965 5.89683ZM16.9417 5.89887L16.9647 5.89686L16.9123 5.29914L16.8893 5.30116L16.9417 5.89887ZM16.5482 5.94006C16.6788 5.92437 16.8102 5.91075 16.9425 5.8988L16.8885 5.30124C16.751 5.31365 16.6137 5.32788 16.4766 5.34435L16.5482 5.94006ZM16.2064 2.48961C15.92 2.93688 15.8349 3.50274 15.8618 4.06394C15.8889 4.62932 16.0308 5.22096 16.2321 5.74905L16.7928 5.53537C16.6095 5.05438 16.4846 4.52551 16.4611 4.03521C16.4374 3.54072 16.5179 3.11572 16.7117 2.81318L16.2064 2.48961ZM18.1772 1.61537C17.2951 1.61537 16.5958 1.88156 16.2064 2.48961L16.7117 2.81317C16.9478 2.44445 17.4047 2.21537 18.1772 2.21537V1.61537ZM20.148 2.48961C19.7586 1.88156 19.0593 1.61537 18.1772 1.61537V2.21537C18.9497 2.21537 19.4066 2.44445 19.6427 2.81317L20.148 2.48961ZM20.1223 5.74931C20.3236 5.22114 20.4655 4.62945 20.4926 4.06403C20.5195 3.50279 20.4345 2.93691 20.148 2.4896L19.6427 2.81318C19.8365 3.11575 19.917 3.54078 19.8933 4.0353C19.8698 4.52563 19.7449 5.05455 19.5616 5.53567L20.1223 5.74931ZM2.70823 15.603C3.10827 16.2212 3.86034 16.9425 4.91353 17.7489L5.27828 17.2724C4.23855 16.4764 3.55421 15.8059 3.21196 15.277L2.70823 15.603ZM2.95194 14.4661C2.57052 14.7127 2.46159 15.2219 2.70823 15.603L3.21196 15.277C3.14531 15.174 3.17478 15.0365 3.27778 14.9699L2.95194 14.4661ZM4.08878 14.7097C3.84209 14.3284 3.333 14.2195 2.95188 14.4661L3.27784 14.9698C3.38086 14.9032 3.5184 14.9327 3.585 15.0356L4.08878 14.7097ZM5.46909 16.0919C4.78085 15.5296 4.30918 15.0503 4.08876 14.7097L3.58502 15.0357C3.85863 15.4585 4.39144 15.9863 5.08948 16.5566L5.46909 16.0919ZM5.33957 14.8463C5.19863 15.3116 5.0798 15.7854 4.98496 16.2662L5.57361 16.3823C5.66452 15.9214 5.77849 15.467 5.91381 15.0203L5.33957 14.8463ZM2.56133 13.3712C3.26151 13.3 4.44727 13.6749 5.37545 15.0973L5.87793 14.7694C4.84741 13.1901 3.45876 12.6768 2.50058 12.7743L2.56133 13.3712ZM1.74529 13.8975C1.8386 13.631 2.10472 13.4177 2.56134 13.3712L2.50058 12.7743C1.88337 12.8371 1.3703 13.1528 1.179 13.6992L1.74529 13.8975ZM3.15736 16.6531C2.57689 16.0844 2.16407 15.5328 1.92847 15.0459C1.68999 14.5532 1.6511 14.1666 1.7453 13.8975L1.17899 13.6992C1.00975 14.1827 1.11675 14.746 1.38839 15.3073C1.66292 15.8746 2.12446 16.4812 2.73749 17.0817L3.15736 16.6531ZM3.34325 17.5511C3.46954 17.2417 3.39598 16.8867 3.15733 16.653L2.73752 17.0817C2.802 17.1448 2.82186 17.2407 2.78775 17.3243L3.34325 17.5511ZM2.58206 18.0625C2.91618 18.0625 3.21698 17.8604 3.34325 17.5511L2.78775 17.3243C2.75361 17.4079 2.67234 17.4625 2.58206 17.4625V18.0625ZM1.78289 18.7625C1.78289 18.4263 2.0311 18.0625 2.58206 18.0625V17.4625C1.68978 17.4625 1.18289 18.1049 1.18289 18.7625H1.78289ZM1.93628 19.1351C1.8403 19.045 1.78289 18.9158 1.78289 18.7625H1.18289C1.18289 19.0716 1.30176 19.3625 1.52575 19.5726L1.93628 19.1351ZM2.67361 19.3495C2.30517 19.3495 2.0661 19.2569 1.93632 19.1351L1.52571 19.5726C1.80822 19.8377 2.22108 19.9495 2.67361 19.9495V19.3495ZM3.42735 19.8433C3.2967 19.5435 3.00073 19.3495 2.67361 19.3495V19.9495C2.76197 19.9495 2.84196 20.0019 2.87728 20.083L3.42735 19.8433ZM3.27558 20.7316C3.4983 20.4921 3.55793 20.1433 3.42738 19.8434L2.87725 20.0829C2.91253 20.164 2.89642 20.2583 2.83621 20.323L3.27558 20.7316ZM2.9909 22.055C2.82623 21.5832 2.92669 21.1067 3.27556 20.7316L2.83622 20.323C2.33851 20.8581 2.18514 21.5672 2.42441 22.2528L2.9909 22.055ZM3.87813 22.8756C3.51337 22.8205 3.151 22.5137 2.99089 22.055L2.42441 22.2528C2.64416 22.8823 3.16554 23.3748 3.78856 23.4689L3.87813 22.8756ZM5.19693 22.165C4.71783 22.7334 4.25349 22.9321 3.878 22.8756L3.78868 23.4689C4.46209 23.5703 5.11544 23.1927 5.65571 22.5517L5.19693 22.165ZM4.71876 20.0225C4.76492 20.9065 4.90291 21.7135 5.14083 22.4505L5.71181 22.2661C5.49247 21.5867 5.36186 20.8322 5.31794 19.9912L4.71876 20.0225ZM4.71769 19.9948C4.71789 20.0013 4.71819 20.0117 4.71876 20.0226L5.31793 19.991C5.31777 19.9879 5.31764 19.9842 5.31741 19.9767L4.71769 19.9948ZM4.71763 19.9925L4.71763 19.9926L5.31747 19.9789L5.31747 19.9789L4.71763 19.9925ZM4.71708 19.978L4.71774 19.9965L5.31736 19.9749L5.31669 19.9564L4.71708 19.978ZM2.81402 19.5402C3.51322 19.9415 4.31745 20.1514 4.96609 20.2629L5.06768 19.6715C4.45271 19.5659 3.72586 19.3717 3.11271 19.0198L2.81402 19.5402ZM2.51027 18.4179C2.28423 18.8116 2.42015 19.3141 2.81404 19.5402L3.11269 19.0198C3.00629 18.9587 2.96955 18.823 3.03063 18.7166L2.51027 18.4179ZM3.6326 18.1141C3.23875 17.888 2.73619 18.024 2.51022 18.4179L3.03068 18.7165C3.09168 18.6101 3.2274 18.5733 3.33384 18.6345L3.6326 18.1141ZM5.06055 18.6086C4.58209 18.5142 4.06177 18.3605 3.63257 18.1141L3.33388 18.6345C3.84274 18.9266 4.43425 19.0966 4.9444 19.1972L5.06055 18.6086ZM4.79784 17.4766C4.74422 17.9464 4.71234 18.4203 4.70254 18.8967L5.30241 18.9091C5.31183 18.4512 5.34246 17.9959 5.39397 17.5447L4.79784 17.4766ZM12.8173 33.1047C13.8673 33.1047 15.0311 32.7514 15.943 32.1602L15.6166 31.6567C14.7975 32.1878 13.7464 32.5047 12.8173 32.5047V33.1047ZM10.3544 31.412C10.8996 32.1788 11.5368 33.1047 12.8173 33.1047V32.5047C11.8883 32.5047 11.4185 31.8732 10.8434 31.0644L10.3544 31.412ZM10.3589 31.4182L10.3589 31.4182L10.8389 31.0582L10.8389 31.0582L10.3589 31.4182ZM9.94217 30.8544C10.0827 31.0299 10.2158 31.2171 10.3544 31.412L10.8434 31.0644C10.7066 30.8719 10.5636 30.6706 10.4106 30.4795L9.94217 30.8544ZM7.10464 29.6354C8.23985 29.8331 9.2797 30.0268 9.94216 30.8544L10.4106 30.4795C9.58288 29.4454 8.29564 29.2338 7.20759 29.0443L7.10464 29.6354ZM6.62164 29.5488C6.78171 29.5792 6.94394 29.6074 7.10464 29.6354L7.20759 29.0443C7.0461 29.0162 6.88833 28.9887 6.73343 28.9593L6.62164 29.5488ZM5.5325 27.384C5.24947 27.8542 5.28648 28.3624 5.51495 28.7655C5.73913 29.1611 6.14738 29.4589 6.62165 29.5488L6.73343 28.9593C6.43115 28.902 6.17355 28.7107 6.03694 28.4697C5.90462 28.2362 5.8859 27.9603 6.04656 27.6934L5.5325 27.384ZM7.9614 26.3984C6.82577 26.3984 5.9523 26.6866 5.5325 27.384L6.04656 27.6934C6.29804 27.2756 6.88604 26.9984 7.9614 26.9984V26.3984ZM10.1616 26.6537C9.55015 26.5345 8.74462 26.3984 7.9614 26.3984V26.9984C8.68394 26.9984 9.44236 27.1248 10.0469 27.2426L10.1616 26.6537ZM10.3639 26.7296C10.3138 26.7097 10.2665 26.6908 10.2199 26.6714L9.98858 27.225C10.0408 27.2468 10.0929 27.2675 10.1422 27.2871L10.3639 26.7296ZM10.3656 26.7303L10.3653 26.7301L10.1408 27.2866L10.1412 27.2867L10.3656 26.7303ZM10.4455 26.7622L10.3647 26.7299L10.142 27.2871L10.2228 27.3193L10.4455 26.7622ZM12.0766 27.3432C11.5264 27.1734 10.9811 26.9782 10.4464 26.7625L10.2219 27.319C10.7714 27.5406 11.3325 27.7415 11.8997 27.9165L12.0766 27.3432ZM10.3172 28.7493C11.0578 28.5751 11.7044 28.1999 12.1621 27.8742L11.8142 27.3854C11.3904 27.687 10.816 28.0156 10.1798 28.1652L10.3172 28.7493ZM10.1518 29.0164C10.1238 28.897 10.1978 28.7774 10.3172 28.7493L10.1798 28.1652C9.73779 28.2693 9.46386 28.7118 9.56777 29.1538L10.1518 29.0164ZM10.419 29.1817C10.3047 29.2086 10.1788 29.1309 10.1518 29.0164L9.56779 29.1538C9.67076 29.5914 10.1201 29.8684 10.5563 29.7658L10.419 29.1817ZM13.0345 27.7472C12.6126 28.1255 11.6347 28.8957 10.4189 29.1818L10.5563 29.7658C11.918 29.4454 12.9866 28.596 13.435 28.194L13.0345 27.7472ZM13.3526 27.6903L13.3046 27.6788L13.165 28.2624L13.2131 28.2739L13.3526 27.6903ZM15.2239 28.0461C14.5948 27.9567 13.9706 27.838 13.3525 27.6903L13.2131 28.2739C13.8493 28.4259 14.4919 28.5481 15.1395 28.6401L15.2239 28.0461ZM13.9399 30.5319C14.7225 29.9112 15.2039 29.033 15.456 28.4647L14.9075 28.2215C14.6711 28.7545 14.2382 29.5294 13.567 30.0618L13.9399 30.5319ZM13.9038 30.8439C13.8277 30.7479 13.8437 30.6081 13.9399 30.5319L13.567 30.0618C13.2114 30.3439 13.1516 30.861 13.4338 31.2168L13.9038 30.8439ZM14.2161 30.8799C14.1238 30.953 13.9769 30.9361 13.9039 30.844L13.4337 31.2167C13.7131 31.5691 14.2374 31.6286 14.5887 31.3501L14.2161 30.8799ZM15.9828 28.3586C15.7454 28.9664 15.1985 30.1007 14.216 30.88L14.5888 31.3501C15.695 30.4727 16.2903 29.2207 16.5417 28.5769L15.9828 28.3586ZM17.4763 28.2414C17.0797 28.2284 16.6841 28.2043 16.289 28.169L16.2355 28.7666C16.642 28.8029 17.0488 28.8277 17.4566 28.8411L17.4763 28.2414ZM18.4565 28.2525C18.1308 28.2571 17.8042 28.2523 17.4764 28.2414L17.4565 28.8411C17.7915 28.8522 18.1278 28.8572 18.465 28.8524L18.4565 28.2525ZM15.943 32.1602C17.0952 31.4131 18.0279 30.2349 18.734 28.6762L18.1875 28.4286C17.5154 29.9121 16.6485 30.9876 15.6166 31.6568L15.943 32.1602ZM34.4183 19.1352C34.2886 19.2569 34.0494 19.3496 33.681 19.3496V19.9496C34.1335 19.9496 34.5465 19.8377 34.8289 19.5727L34.4183 19.1352ZM34.5718 18.7625C34.5717 18.9158 34.5143 19.045 34.4183 19.1352L34.8289 19.5727C35.0528 19.3625 35.1717 19.0717 35.1718 18.7627L34.5718 18.7625ZM33.7726 18.0626C34.3236 18.0626 34.5718 18.4264 34.5718 18.7626H35.1718C35.1718 18.105 34.6649 17.4626 33.7726 17.4626V18.0626ZM33.0114 17.5512C33.1377 17.8603 33.4384 18.0626 33.7726 18.0626V17.4626C33.6824 17.4626 33.6011 17.408 33.5669 17.3243L33.0114 17.5512ZM33.1972 16.6531C32.9586 16.8869 32.8851 17.2419 33.0114 17.5512L33.5669 17.3243C33.5328 17.2408 33.5526 17.1449 33.6171 17.0817L33.1972 16.6531ZM34.6096 13.8974C34.7037 14.1665 34.6648 14.5531 34.4262 15.0459C34.1906 15.5327 33.7778 16.0844 33.1973 16.6531L33.6171 17.0817C34.2302 16.4811 34.6917 15.8746 34.9663 15.3073C35.238 14.746 35.345 14.1827 35.1759 13.6993L34.6096 13.8974ZM33.7936 13.3712C34.2502 13.4177 34.5163 13.631 34.6096 13.8975L35.1759 13.6992C34.9846 13.1529 34.4715 12.8371 33.8544 12.7743L33.7936 13.3712ZM30.9767 15.1015C31.9051 13.6756 33.0923 13.2999 33.7937 13.3712L33.8544 12.7743C32.8948 12.6767 31.5046 13.1911 30.4739 14.7741L30.9767 15.1015ZM31.3671 16.2681C31.2717 15.788 31.1533 15.315 31.0123 14.8506L30.4382 15.0249C30.5734 15.4702 30.6871 15.9242 30.7786 16.385L31.3671 16.2681ZM32.2661 14.7098C32.0454 15.0509 31.5728 15.5309 30.8831 16.0942L31.2627 16.5589C31.9621 15.9877 32.4959 15.4591 32.7698 15.0357L32.2661 14.7098ZM33.4029 14.4661C33.022 14.2198 32.5129 14.3284 32.2661 14.7097L32.7698 15.0357C32.8364 14.9328 32.9741 14.9033 33.0771 14.97L33.4029 14.4661ZM33.6466 15.6031C33.8932 15.2219 33.7842 14.7129 33.4031 14.4662L33.077 14.9699C33.18 15.0366 33.2095 15.1742 33.1428 15.2772L33.6466 15.6031ZM31.4407 17.7495C32.4941 16.943 33.2464 16.2215 33.6466 15.6031L33.1429 15.2771C32.8005 15.8062 32.1159 16.4769 31.0759 17.2731L31.4407 17.7495ZM31.6535 18.8965C31.6434 18.4193 31.6103 17.9457 31.5563 17.4769L30.9603 17.5456C31.0122 17.9963 31.0439 18.4513 31.0537 18.9093L31.6535 18.8965ZM32.7222 18.1143C32.2936 18.3604 31.7741 18.5141 31.2955 18.6086L31.4117 19.1972C31.9221 19.0964 32.5128 18.9264 33.0209 18.6347L32.7222 18.1143ZM33.8445 18.4181C33.6184 18.0242 33.1158 17.8884 32.7222 18.1143L33.0209 18.6347C33.1273 18.5736 33.2631 18.6104 33.3241 18.7167L33.8445 18.4181ZM33.5407 19.5404C33.9345 19.3143 34.0705 18.8119 33.8445 18.4181L33.3241 18.7168C33.3852 18.8231 33.3484 18.9589 33.242 19.02L33.5407 19.5404ZM31.3888 20.263C32.0384 20.1514 32.842 19.9415 33.5408 19.5404L33.242 19.02C32.6294 19.3718 31.9031 19.5659 31.2872 19.6717L31.3888 20.263ZM31.636 20.0229C31.6365 20.013 31.6368 20.0037 31.637 19.9975C31.6373 19.9904 31.6374 19.9865 31.6376 19.983L31.0384 19.9517C31.0379 19.9615 31.0376 19.9708 31.0374 19.977C31.0371 19.9841 31.037 19.9879 31.0368 19.9913L31.636 20.0229ZM31.2139 22.4508C31.4518 21.7138 31.5898 20.9068 31.636 20.0227L31.0368 19.9915C30.9929 20.8326 30.8623 21.587 30.6429 22.2664L31.2139 22.4508ZM32.4765 22.8757C32.1012 22.9323 31.6367 22.7336 31.1578 22.1653L30.699 22.5519C31.2391 23.1928 31.8926 23.5705 32.566 23.469L32.4765 22.8757ZM33.3637 22.0551C33.2036 22.5138 32.8412 22.8206 32.4765 22.8757L32.5661 23.4689C33.1891 23.3749 33.7104 22.8823 33.9302 22.2529L33.3637 22.0551ZM33.0791 20.7317C33.428 21.1068 33.5284 21.5833 33.3637 22.0551L33.9302 22.2528C34.1695 21.5673 34.0162 20.8582 33.5184 20.323L33.0791 20.7317ZM32.9273 19.8434C32.7966 20.1434 32.8562 20.4922 33.0791 20.7317L33.5184 20.323C33.4581 20.2583 33.442 20.1641 33.4773 20.0831L32.9273 19.8434ZM33.681 19.3496C33.3539 19.3496 33.0578 19.5435 32.9272 19.8435L33.4774 20.083C33.5126 20.002 33.5926 19.9496 33.681 19.9496V19.3496Z" fill="white"/>
<path fill-rule="evenodd" clip-rule="evenodd" d="M27.7732 8.00755C27.7732 6.89669 28.677 5.99295 29.7879 5.99295C30.8988 5.99295 31.8025 6.89669 31.8025 8.00755C31.8025 9.11841 30.8987 10.0222 29.7879 10.0222C28.6769 10.0222 27.7732 9.11841 27.7732 8.00755ZM28.8176 8.00755C28.8176 8.54258 29.2528 8.97785 29.7879 8.97785C30.323 8.97785 30.7582 8.54258 30.7582 8.00755C30.7582 7.47252 30.3229 7.03725 29.7879 7.03725C29.2528 7.03725 28.8176 7.47252 28.8176 8.00755Z" fill="white"/>
<path d="M29.7879 5.69295C28.5113 5.69295 27.4732 6.73099 27.4732 8.00755H28.0732C28.0732 7.06239 28.8427 6.29295 29.7879 6.29295V5.69295ZM32.1025 8.00755C32.1025 6.73101 31.0645 5.69295 29.7879 5.69295V6.29295C30.7331 6.29295 31.5025 7.06237 31.5025 8.00755H32.1025ZM29.7879 10.3222C31.0644 10.3222 32.1025 9.2841 32.1025 8.00755H31.5025C31.5025 8.95273 30.733 9.72215 29.7879 9.72215V10.3222ZM27.4732 8.00755C27.4732 9.2841 28.5113 10.3222 29.7879 10.3222V9.72215C28.8426 9.72215 28.0732 8.95272 28.0732 8.00755H27.4732ZM29.7879 8.67785C29.4185 8.67785 29.1176 8.3769 29.1176 8.00755H28.5176C28.5176 8.70827 29.0871 9.27785 29.7879 9.27785V8.67785ZM30.4582 8.00755C30.4582 8.37691 30.1573 8.67785 29.7879 8.67785V9.27785C30.4887 9.27785 31.0582 8.70825 31.0582 8.00755H30.4582ZM29.7879 7.33725C30.1572 7.33725 30.4582 7.63821 30.4582 8.00755H31.0582C31.0582 7.30683 30.4886 6.73725 29.7879 6.73725V7.33725ZM29.1176 8.00755C29.1176 7.63821 29.4185 7.33725 29.7879 7.33725V6.73725C29.0871 6.73725 28.5176 7.30683 28.5176 8.00755H29.1176Z" fill="white"/>
<path fill-rule="evenodd" clip-rule="evenodd" d="M26.0492 4.41606C26.0492 3.50724 26.7886 2.76787 27.6974 2.76787C28.6062 2.76787 29.3456 3.50724 29.3456 4.41606C29.3456 5.32488 28.6062 6.06425 27.6974 6.06425C26.7886 6.06425 26.0492 5.32488 26.0492 4.41606ZM27.0935 4.41613C27.0935 4.74912 27.3644 5.02001 27.6974 5.02001C28.0304 5.02001 28.3013 4.74905 28.3013 4.41613C28.3013 4.08313 28.0304 3.81224 27.6974 3.81224C27.3644 3.81224 27.0935 4.08313 27.0935 4.41613Z" fill="white"/>
<path d="M27.6974 2.46787C26.6229 2.46787 25.7492 3.34155 25.7492 4.41606H26.3492C26.3492 3.67292 26.9542 3.06787 27.6974 3.06787V2.46787ZM29.6456 4.41606C29.6456 3.34155 28.7719 2.46787 27.6974 2.46787V3.06787C28.4405 3.06787 29.0456 3.67292 29.0456 4.41606H29.6456ZM27.6974 6.36425C28.7719 6.36425 29.6456 5.49057 29.6456 4.41606H29.0456C29.0456 5.1592 28.4405 5.76425 27.6974 5.76425V6.36425ZM25.7492 4.41606C25.7492 5.49057 26.6229 6.36425 27.6974 6.36425V5.76425C26.9542 5.76425 26.3492 5.1592 26.3492 4.41606H25.7492ZM27.6974 4.72001C27.5301 4.72001 27.3935 4.58344 27.3935 4.41613H26.7935C26.7935 4.91481 27.1987 5.32001 27.6974 5.32001V4.72001ZM28.0013 4.41613C28.0013 4.58339 27.8647 4.72001 27.6974 4.72001V5.32001C28.1961 5.32001 28.6013 4.91471 28.6013 4.41613H28.0013ZM27.6974 4.11224C27.8647 4.11224 28.0013 4.24882 28.0013 4.41613H28.6013C28.6013 3.91745 28.1961 3.51224 27.6974 3.51224V4.11224ZM27.3935 4.41613C27.3935 4.24882 27.5301 4.11224 27.6974 4.11224V3.51224C27.1987 3.51224 26.7935 3.91745 26.7935 4.41613H27.3935Z" fill="white"/>
<path fill-rule="evenodd" clip-rule="evenodd" d="M29.7239 2.51925C29.7239 1.61043 30.4632 0.871063 31.3721 0.871063C32.2809 0.871063 33.0203 1.61043 33.0203 2.51925C33.0203 3.42808 32.2809 4.16744 31.3721 4.16744C30.4632 4.16744 29.7239 3.42808 29.7239 2.51925ZM30.7682 2.51925C30.7682 2.85225 31.0391 3.12314 31.3721 3.12314C31.7051 3.12314 31.976 2.85225 31.976 2.51925C31.976 2.18626 31.7051 1.91537 31.3721 1.91537C31.0391 1.91537 30.7682 2.18626 30.7682 2.51925Z" fill="white"/>
<path d="M31.3721 0.571063C30.2976 0.571063 29.4239 1.44474 29.4239 2.51925H30.0239C30.0239 1.77612 30.6289 1.17106 31.3721 1.17106V0.571063ZM33.3203 2.51925C33.3203 1.44474 32.4466 0.571063 31.3721 0.571063V1.17106C32.1152 1.17106 32.7203 1.77612 32.7203 2.51925H33.3203ZM31.3721 4.46744C32.4466 4.46744 33.3203 3.59376 33.3203 2.51925H32.7203C32.7203 3.26239 32.1152 3.86744 31.3721 3.86744V4.46744ZM29.4239 2.51925C29.4239 3.59376 30.2976 4.46744 31.3721 4.46744V3.86744C30.6289 3.86744 30.0239 3.26239 30.0239 2.51925H29.4239ZM31.3721 2.82314C31.2048 2.82314 31.0682 2.68656 31.0682 2.51925H30.4682C30.4682 3.01793 30.8734 3.42314 31.3721 3.42314V2.82314ZM31.676 2.51925C31.676 2.68656 31.5394 2.82314 31.3721 2.82314V3.42314C31.8707 3.42314 32.276 3.01793 32.276 2.51925H31.676ZM31.3721 2.21537C31.5394 2.21537 31.676 2.35194 31.676 2.51925H32.276C32.276 2.02057 31.8707 1.61537 31.3721 1.61537V2.21537ZM31.0682 2.51925C31.0682 2.35194 31.2048 2.21537 31.3721 2.21537V1.61537C30.8734 1.61537 30.4682 2.02057 30.4682 2.51925H31.0682Z" fill="white"/>
</svg>
