<svg width="13" height="17" viewBox="0 0 13 17" fill="none" xmlns="http://www.w3.org/2000/svg">
<path fill-rule="evenodd" clip-rule="evenodd" d="M6.5 1C7.95 1 9.28333 1.45652 10.2333 2.28804C11.4 3.29891 12 4.81522 12 6.70652C12 10.7989 7.18333 15.6087 6.96667 15.8043C6.85 15.9348 6.66667 16 6.5 16C6.33333 16 6.16667 15.9348 6.03333 15.8043C5.81667 15.6087 1 10.7989 1 6.70652C1 4.81522 1.6 3.29891 2.76667 2.28804C3.71667 1.45652 5.05 1 6.5 1ZM4.63333 12.1033C5.33333 13.0815 6.05 13.8967 6.5 14.3859C7.68333 13.1141 10.6667 9.57609 10.6667 6.70652C10.6667 5.67935 10.3667 2.30435 6.5 2.30435C5.51667 2.30435 2.33333 2.63043 2.33333 6.70652C2.33333 8.15761 3.13333 10.0163 4.63333 12.1033ZM6.5 3.82065C5.03333 3.82065 3.85 5.01087 3.85 6.46196C3.85 7.91304 5.03333 9.08696 6.5 9.08696C7.96667 9.08696 9.15 7.89674 9.15 6.44565C9.15 4.99457 7.96667 3.82065 6.5 3.82065ZM5.01667 6.44565C5.01667 7.27717 5.68333 7.94565 6.5 7.94565C7.31667 7.94565 7.98333 7.27717 7.98333 6.44565C7.98333 5.61413 7.31667 4.94565 6.5 4.94565C5.68333 4.94565 5.01667 5.61413 5.01667 6.44565Z" fill="#68D6F4"/>
<path d="M10.2333 2.28804L10.1345 2.40092L10.1351 2.40141L10.2333 2.28804ZM6.96667 15.8043L6.86614 15.693L6.8602 15.6984L6.85486 15.7043L6.96667 15.8043ZM6.03333 15.8043L6.13831 15.697L6.13386 15.693L6.03333 15.8043ZM2.76667 2.28804L2.86489 2.40141L2.86546 2.40091L2.76667 2.28804ZM6.5 14.3859L6.38961 14.4874L6.49938 14.6067L6.60981 14.4881L6.5 14.3859ZM4.63333 12.1033L4.75532 12.016L4.75514 12.0157L4.63333 12.1033ZM10.3321 2.17517C9.35046 1.31594 7.98016 0.85 6.5 0.85V1.15C7.91984 1.15 9.2162 1.59711 10.1345 2.40091L10.3321 2.17517ZM12.15 6.70652C12.15 4.78305 11.5388 3.22071 10.3316 2.17468L10.1351 2.40141C11.2612 3.37712 11.85 4.84739 11.85 6.70652H12.15ZM7.0672 15.9157C7.18366 15.8105 8.44934 14.5509 9.68699 12.8034C10.9209 11.0612 12.15 8.80256 12.15 6.70652H11.85C11.85 8.70288 10.6708 10.8953 9.44217 12.63C8.21732 14.3594 6.96634 15.6025 6.86614 15.693L7.0672 15.9157ZM6.5 16.15C6.70047 16.15 6.92792 16.0727 7.07847 15.9043L6.85486 15.7043C6.77208 15.7969 6.63287 15.85 6.5 15.85V16.15ZM5.92844 15.9116C6.08926 16.0689 6.29337 16.15 6.5 16.15V15.85C6.3733 15.85 6.24408 15.8007 6.13823 15.6971L5.92844 15.9116ZM0.85 6.70652C0.85 8.80256 2.0791 11.0612 3.31301 12.8034C4.55066 14.5509 5.81634 15.8105 5.9328 15.9157L6.13386 15.693C6.03366 15.6025 4.78268 14.3594 3.55783 12.63C2.32923 10.8953 1.15 8.70288 1.15 6.70652H0.85ZM2.66844 2.17468C1.4612 3.22071 0.85 4.78305 0.85 6.70652H1.15C1.15 4.84739 1.7388 3.37712 2.86489 2.40141L2.66844 2.17468ZM6.5 0.85C5.01984 0.85 3.64954 1.31594 2.66787 2.17517L2.86546 2.40091C3.7838 1.59711 5.08016 1.15 6.5 1.15V0.85ZM6.61039 14.2843C6.16265 13.7976 5.45043 12.9874 4.75532 12.016L4.51135 12.1905C5.21624 13.1756 5.93735 13.9958 6.38961 14.4874L6.61039 14.2843ZM10.5167 6.70652C10.5167 8.09657 9.79095 9.6679 8.90059 11.0648C8.01351 12.4565 6.9784 13.6515 6.39019 14.2837L6.60981 14.4881C7.20493 13.8485 8.25315 12.6386 9.15357 11.226C10.0507 9.81851 10.8167 8.18604 10.8167 6.70652H10.5167ZM6.5 2.45435C8.37919 2.45435 9.37146 3.26901 9.90326 4.19495C10.4422 5.13335 10.5167 6.20255 10.5167 6.70652H10.8167C10.8167 6.18332 10.7411 5.05144 10.1634 4.04554C9.57854 3.02719 8.48747 2.15435 6.5 2.15435V2.45435ZM2.48333 6.70652C2.48333 4.7148 3.25704 3.66403 4.12907 3.10305C5.01239 2.53482 6.01995 2.45435 6.5 2.45435V2.15435C5.99671 2.15435 4.92095 2.23692 3.96676 2.85075C3.00129 3.47184 2.18333 4.62216 2.18333 6.70652H2.48333ZM4.75514 12.0157C3.26056 9.93631 2.48333 8.10962 2.48333 6.70652H2.18333C2.18333 8.2056 3.0061 10.0963 4.51153 12.1908L4.75514 12.0157ZM4 6.46196C4 5.09378 5.11611 3.97065 6.5 3.97065V3.67065C4.95056 3.67065 3.7 4.92796 3.7 6.46196H4ZM6.5 8.93696C5.1149 8.93696 4 7.82893 4 6.46196H3.7C3.7 7.99716 4.95177 9.23696 6.5 9.23696V8.93696ZM9 6.44565C9 7.81383 7.88389 8.93696 6.5 8.93696V9.23696C8.04944 9.23696 9.3 7.97965 9.3 6.44565H9ZM6.5 3.97065C7.8851 3.97065 9 5.07868 9 6.44565H9.3C9.3 4.91045 8.04823 3.67065 6.5 3.67065V3.97065ZM6.5 7.79565C5.76738 7.79565 5.16667 7.19554 5.16667 6.44565H4.86667C4.86667 7.3588 5.59928 8.09565 6.5 8.09565V7.79565ZM7.83333 6.44565C7.83333 7.19554 7.23262 7.79565 6.5 7.79565V8.09565C7.40072 8.09565 8.13333 7.3588 8.13333 6.44565H7.83333ZM6.5 5.09565C7.23262 5.09565 7.83333 5.69576 7.83333 6.44565H8.13333C8.13333 5.5325 7.40072 4.79565 6.5 4.79565V5.09565ZM5.16667 6.44565C5.16667 5.69576 5.76738 5.09565 6.5 5.09565V4.79565C5.59928 4.79565 4.86667 5.5325 4.86667 6.44565H5.16667Z" fill="#68D6F4"/>
</svg>
