<svg width="234" height="78" viewBox="0 0 234 78" fill="none" xmlns="http://www.w3.org/2000/svg">
<g filter="url(#filter0_d)">
<path fill-rule="evenodd" clip-rule="evenodd" d="M55.1018 43.8748C55.1018 57.8613 43.6623 69.1996 29.5509 69.1996C15.4395 69.1996 4 57.8613 4 43.8748V29.6496H55.1018V43.8748Z" fill="#68D6F4"/>
<path fill-rule="evenodd" clip-rule="evenodd" d="M41.3084 43.8748C41.9594 37.4957 40.0187 29.9904 38.0105 25.5409C38.0105 25.5409 56.8459 9.10609 47.9103 4.16348C38.9747 -0.77913 30.7085 20.6957 30.7085 20.6957H27.6379C27.6379 20.6957 19.3533 -0.766956 10.4422 4.16348C1.53119 9.09391 20.342 25.5652 20.342 25.5652C18.3399 30.0148 16.3931 37.52 17.0503 43.8991L41.3084 43.8748Z" fill="white"/>
<path fill-rule="evenodd" clip-rule="evenodd" d="M29.554 34.227C34.9291 34.2303 39.2841 38.5513 39.2818 43.8788C39.2795 49.2064 34.9209 53.5237 29.5458 53.5226C24.1707 53.5215 19.8139 49.2023 19.8139 43.8748C19.8172 38.5454 24.1771 34.227 29.554 34.227Z" fill="white"/>
<path fill-rule="evenodd" clip-rule="evenodd" d="M27.5519 30.1061C28.1131 30.1192 28.5621 30.5723 28.5652 31.1287V35.9983C28.5899 36.2763 28.4892 36.5508 28.2901 36.7482C28.091 36.9455 27.814 37.0454 27.5335 37.0209C26.9651 37.0175 26.5051 36.5616 26.5017 35.9983V31.1287C26.5051 30.5653 26.9651 30.1094 27.5335 30.1061H27.5519ZM44.3791 43.8748C44.3791 44.0371 44.3791 44.1994 44.3791 44.3617C44.1268 52.2803 37.5718 58.567 29.5785 58.5565C25.6464 58.5636 21.8736 57.0171 19.0953 54.2591C16.4437 51.625 14.9061 48.0873 14.7964 44.3678H14.7473V44.3009C14.7473 43.3087 14.7473 42.2983 14.7473 41.2939C14.7473 40.2896 14.864 39.2609 14.9622 38.2504C15.3458 34.1617 16.1189 30.1182 17.2714 26.1739C14.6367 23.6965 8.88234 17.8043 6.89256 12.4113C5.99288 10.1867 5.99068 7.70441 6.88642 5.47826C7.49238 4.05728 8.50419 2.84284 9.79739 1.98435C11.0845 1.1332 12.5866 0.656626 14.1332 0.608695C16.6289 0.558716 19.0481 1.46336 20.8886 3.13478C24.905 6.60435 28.0186 12.9957 29.5478 16.5809C31.077 12.9957 34.1968 6.60435 38.2132 3.13478C40.0432 1.47412 42.4448 0.570314 44.9257 0.608695C46.4716 0.654816 47.9736 1.12926 49.2614 1.97826C50.5555 2.83838 51.5674 4.05504 52.1724 5.47826C53.0668 7.70005 53.0668 10.1773 52.1724 12.3991C50.1826 17.8043 44.4282 23.6904 41.7874 26.1739L41.941 26.6913C42.2051 27.5922 42.4323 28.4322 42.6165 29.193C43.7885 33.9903 44.3822 38.9084 44.3852 43.8443L44.3791 43.8748ZM20.1762 43.8748H20.2253C20.2262 46.3232 21.2094 48.6708 22.9582 50.4C24.7016 52.1404 27.0734 53.1197 29.5478 53.1209C34.6919 53.1075 38.8596 48.9794 38.8765 43.8809C38.8784 39.3693 38.3362 34.8736 37.2613 30.4896C37.0402 29.5765 36.8355 28.8278 36.6472 28.2435C36.4752 27.6348 36.2664 27.0261 36.033 26.3626V26.3261L35.4189 24.5974L36.8253 23.38C36.8253 23.38 44.8765 16.3252 46.9891 10.5548C47.4011 9.61994 47.4406 8.56515 47.0997 7.60261C46.9131 7.15608 46.5967 6.77467 46.1908 6.50696C45.7594 6.22588 45.2574 6.06987 44.7414 6.05652C43.6448 6.06384 42.5924 6.48628 41.7997 7.23739C37.163 11.2791 33.6871 20.9939 33.6748 21.0183L33.0238 22.8443H26.035L25.384 21.0183C25.384 21.0183 21.9265 11.2791 17.2529 7.23739C16.4602 6.48628 15.4079 6.06384 14.3113 6.05652C13.7952 6.06987 13.2932 6.22588 12.8619 6.50696C12.4559 6.77467 12.1395 7.15608 11.953 7.60261C11.6121 8.56515 11.6516 9.61994 12.0635 10.5548C14.1884 16.3252 22.2151 23.3374 22.2397 23.3374L23.646 24.5548L23.0319 26.2957C21.677 30.3337 20.7931 34.5122 20.3973 38.7496C20.3113 39.6687 20.2438 40.5757 20.2069 41.507C20.1762 42.3226 20.1639 43.1139 20.1762 43.8809V43.8748ZM25.2919 43.7409C25.5928 45.0557 26.686 46.3096 28.1353 47.393C29.5847 48.4765 29.6584 48.4035 31.1016 47.2957C32.5448 46.1878 33.5213 45.013 33.8099 43.7348C34.6267 40.1739 24.4751 40.1739 25.2919 43.7348V43.7409ZM31.6789 30.1061C32.2473 30.1094 32.7072 30.5653 32.7106 31.1287V35.9983C32.7353 36.2763 32.6346 36.5508 32.4355 36.7482C32.2364 36.9455 31.9593 37.0454 31.6789 37.0209C31.1104 37.0175 30.6505 36.5616 30.6471 35.9983V31.1287C30.6505 30.5653 31.1104 30.1094 31.6789 30.1061Z" fill="#572F8C"/>
<path fill-rule="evenodd" clip-rule="evenodd" d="M189.738 48.9026H194.307C200.712 48.9026 204.041 44.1791 204.041 39.3339C204.041 34.4887 200.718 29.6496 194.307 29.6496H186.397C185.523 29.6366 184.68 29.9689 184.055 30.5731C183.429 31.1774 183.072 32.0037 183.062 32.8696V54.0035H189.738V48.9026ZM146.804 29.6496C145.929 29.6349 145.085 29.9665 144.458 30.571C143.831 31.1754 143.473 32.0027 143.463 32.8696V54.0035H150.163V35.5904H159.492L165.516 46.2243L161.31 53.9974H168.464L181.92 29.6496H174.476L169.054 39.8757L163.643 29.6496H146.804ZM207.676 53.9974H214.849L228.305 29.6496H220.856L215.433 39.8757L210.022 29.6496H202.487L211.883 46.2243L207.676 53.9974ZM110.859 44.6904V39.0904H98.9139V35.2496H112.087V29.6496H95.5791C94.7056 29.6366 93.8628 29.9689 93.2371 30.5731C92.6113 31.1774 92.2541 32.0037 92.2444 32.8696V50.8017C92.2747 52.598 93.7668 54.0306 95.5791 54.0035H112.191V48.4035H98.9139V44.6904H110.859ZM131.659 39.0904H123.369V29.6496H116.675V53.9974H123.35V44.8183H131.641V54.0035H138.31V29.6557H131.635V39.0904H131.659ZM67.1817 29.6496H73.8573V53.9974H67.1817V29.6496ZM75.3865 40.0948L82.0314 29.6496H89.751L81.8963 41.3913L91.0407 53.9974H82.6455L75.3927 43.1809C74.7608 42.2475 74.7608 41.0282 75.3927 40.0948H75.3865ZM189.738 35.4565H193.871C198.784 35.4565 198.784 43.2052 193.871 43.2052H189.738V35.4626V35.4565Z" fill="white"/>
<path d="M67.3721 58.3678H74.9689V59.9991H72.0518V66.3478H70.2831V59.993H67.366L67.3721 58.3678Z" fill="white"/>
<path fill-rule="evenodd" clip-rule="evenodd" d="M83.5662 62.4018C83.603 60.1204 81.7779 58.2359 79.4766 58.1791C78.3377 58.1246 77.2273 58.5424 76.4117 59.3323C75.5962 60.1221 75.1491 61.2128 75.1777 62.3426C75.1818 64.6242 77.0404 66.4763 79.3424 66.4925C81.6443 66.5088 83.5294 64.6831 83.5662 62.4018ZM81.294 64.1695C80.8176 64.651 80.1562 64.9076 79.4766 64.8748C78.0674 64.8748 76.9249 63.7425 76.9249 62.3456C76.9249 60.9488 78.0674 59.8165 79.4766 59.8165C80.153 59.8059 80.8039 60.0721 81.2758 60.5525C81.7477 61.0329 81.9988 61.6849 81.97 62.3548C82.0164 63.0276 81.7704 63.688 81.294 64.1695Z" fill="white"/>
<path fill-rule="evenodd" clip-rule="evenodd" d="M85.0652 58.3678H88.5043C90.7398 58.3678 91.9005 58.9339 91.9005 60.4861C91.9027 61.146 91.5645 61.7614 91.0039 62.1174C91.7505 62.4236 92.2087 63.1764 92.1339 63.9739C92.1339 65.5383 90.9056 66.3539 88.879 66.3539H85.0652V58.3678ZM86.8339 59.9504V61.533H88.9097C89.6405 61.533 90.0704 61.2713 90.0704 60.7174C90.0704 60.0722 89.4562 59.9504 88.4552 59.9504H86.8339ZM86.8339 64.7774V63.0548H88.7561C89.8063 63.0548 90.3037 63.3287 90.3037 63.9313C90.3037 64.5339 89.7633 64.7774 88.707 64.7774H86.8339Z" fill="white"/>
<path fill-rule="evenodd" clip-rule="evenodd" d="M96.7644 58.1852C95.5296 58.1495 94.3256 58.5704 93.3867 59.3661L94.2772 60.6565C94.9061 60.0969 95.7167 59.7794 96.5617 59.7617C97.8637 59.7617 98.2997 60.4374 98.2997 61.5878C97.7592 61.4434 97.2014 61.3717 96.6416 61.3748C94.5044 61.3748 92.877 62.1296 92.877 63.913C92.877 65.447 94.0377 66.433 95.8064 66.433C96.7386 66.4768 97.6454 66.1248 98.2997 65.4652V66.3417H100.068V61.4722C100.068 59.4026 98.8893 58.1852 96.7644 58.1852ZM98.2997 63.073V63.8339C97.835 64.5384 97.0361 64.955 96.1871 64.9356C95.3151 64.9356 94.7009 64.5278 94.7009 63.9191C94.7009 63.1217 95.5546 62.86 96.8258 62.86C97.325 62.8593 97.8216 62.931 98.2997 63.073Z" fill="white"/>
<path fill-rule="evenodd" clip-rule="evenodd" d="M103.415 58.3678H101.647V69.4217H103.422V65.8243C104.007 66.3138 104.765 66.5524 105.528 66.4878C107.942 66.4878 109.557 64.5948 109.557 62.227C109.557 59.8591 108.071 58.1852 105.651 58.1852C104.808 58.1516 103.992 58.4826 103.415 59.0922V58.3678ZM103.415 63.8826V61.1191H103.434C103.791 60.3293 104.581 59.8198 105.454 59.8165C106.855 59.8165 107.72 60.7539 107.72 62.367C107.773 63.0237 107.541 63.6717 107.083 64.149C106.625 64.6264 105.984 64.8881 105.319 64.8687C104.553 64.8979 103.829 64.5227 103.415 63.8826Z" fill="white"/>
<path fill-rule="evenodd" clip-rule="evenodd" d="M110.859 58.3678H112.627V60.687H114.021C116.625 60.687 117.43 61.9956 117.43 63.4991C117.43 65.0026 116.515 66.36 113.893 66.36H110.859V58.3678ZM112.627 62.3183V64.753H113.856C115.145 64.753 115.594 64.3209 115.594 63.5356C115.594 62.7504 115.115 62.3183 113.874 62.3183H112.627ZM119.997 58.3678H118.228V66.3478H119.997V58.3678Z" fill="white"/>
<path fill-rule="evenodd" clip-rule="evenodd" d="M125.475 64.7287H124.548L124.566 68.1739H126.212V66.3478H132.015V68.1739H133.661V64.7287H132.531V58.3678H126.39V59.7496C126.39 61.8252 126.206 63.4687 125.475 64.7287ZM127.293 64.7287C127.825 63.4373 128.084 62.0513 128.054 60.6565V59.993H130.781V64.7287H127.293Z" fill="white"/>
<path d="M140.159 59.993H137.309V61.2104C137.309 65.4713 135.915 66.5548 133.913 66.3904L133.772 64.7591C134.626 64.8383 135.571 64.3148 135.571 60.6078V58.3678H141.928V66.3478H140.159V59.993Z" fill="white"/>
<path fill-rule="evenodd" clip-rule="evenodd" d="M150.28 66.3478V58.3678L146.97 58.3496C144.335 58.3496 143.389 59.5791 143.389 60.9913C143.316 62.1415 144.097 63.1739 145.232 63.4261L142.904 66.3478H144.968L147.006 63.7304H148.511V66.3478H150.28ZM148.511 62.087H146.761C145.754 62.087 145.207 61.7157 145.207 61.0704C145.207 60.4252 145.655 59.993 146.804 59.993H148.511V62.087Z" fill="white"/>
<path d="M154.744 58.3678H156.918L159.737 61.4843V58.3678H161.506V61.4783L164.392 58.3435H166.53L163.183 61.9956L166.609 66.36H164.454L161.85 62.9817L161.506 63.3348V66.3783H159.737V63.3652L159.363 62.9817L156.826 66.3478H154.72L158.067 62.0017L154.744 58.3678Z" fill="white"/>
<path d="M167.359 66.3478V58.3678H169.127V63.5783L173.426 58.3678H174.962V66.3478H173.193V61.1617L168.894 66.3539L167.359 66.3478Z" fill="white"/>
<path fill-rule="evenodd" clip-rule="evenodd" d="M176.62 58.3678H180.059C182.294 58.3678 183.455 58.9339 183.455 60.4861C183.457 61.146 183.119 61.7614 182.558 62.1174C183.305 62.4236 183.763 63.1764 183.688 63.9739C183.688 65.5383 182.46 66.3539 180.434 66.3539H176.62V58.3678ZM178.388 59.9504V61.533H180.464C181.195 61.533 181.625 61.2713 181.625 60.7174C181.625 60.0722 181.011 59.9504 180.01 59.9504H178.388ZM178.388 64.7774V63.0548H180.305C181.355 63.0548 181.852 63.3287 181.852 63.9313C181.852 64.5339 181.312 64.7774 180.255 64.7774H178.388Z" fill="white"/>
<path fill-rule="evenodd" clip-rule="evenodd" d="M192.943 62.4018C192.98 60.1204 191.155 58.2359 188.853 58.1791C187.714 58.1246 186.604 58.5424 185.788 59.3323C184.973 60.1221 184.526 61.2128 184.554 62.3426C184.558 64.6242 186.417 66.4763 188.719 66.4925C191.021 66.5088 192.906 64.6831 192.943 62.4018ZM190.671 64.1695C190.194 64.651 189.533 64.9076 188.853 64.8748V64.8687C187.444 64.8687 186.302 63.7364 186.302 62.3396C186.302 60.9428 187.444 59.8104 188.853 59.8104C189.531 59.7997 190.183 60.0668 190.655 60.5485C191.127 61.0303 191.377 61.6839 191.347 62.3548C191.393 63.0276 191.147 63.688 190.671 64.1695Z" fill="white"/>
<path d="M193.367 58.3678H200.964V59.9991H198.065V66.3478H196.297V59.993H193.379L193.367 58.3678Z" fill="white"/>
<path d="M207.474 63.1156H203.592V66.3478H201.824V58.3678H203.592V61.4783H207.468V58.3678H209.236V66.3478H207.468L207.474 63.1156Z" fill="white"/>
<path fill-rule="evenodd" clip-rule="evenodd" d="M210.901 58.3678H212.669V60.687H214.033C216.637 60.687 217.441 61.9956 217.441 63.4991C217.441 65.0026 216.526 66.36 213.904 66.36H210.901V58.3678ZM212.669 62.3183V64.753H213.897C215.187 64.753 215.635 64.3209 215.635 63.5356C215.635 62.7504 215.156 62.3183 213.916 62.3183H212.669ZM220.051 58.3678H218.282V66.3478H220.051V58.3678Z" fill="white"/>
<path d="M226.278 62.2209L229.521 66.3539H227.335L225.148 63.5113L222.913 66.3478H220.819L224.043 62.2452L220.972 58.3557H223.14L225.185 60.9243L227.23 58.3557H229.386L226.278 62.2209Z" fill="white"/>
</g>
<defs>
<filter id="filter0_d" x="0" y="0.60673" width="233.521" height="76.815" filterUnits="userSpaceOnUse" color-interpolation-filters="sRGB">
<feFlood flood-opacity="0" result="BackgroundImageFix"/>
<feColorMatrix in="SourceAlpha" type="matrix" values="0 0 0 0 0 0 0 0 0 0 0 0 0 0 0 0 0 0 127 0"/>
<feOffset dy="4"/>
<feGaussianBlur stdDeviation="2"/>
<feColorMatrix type="matrix" values="0 0 0 0 0 0 0 0 0 0 0 0 0 0 0 0 0 0 0.25 0"/>
<feBlend mode="normal" in2="BackgroundImageFix" result="effect1_dropShadow"/>
<feBlend mode="normal" in="SourceGraphic" in2="effect1_dropShadow" result="shape"/>
</filter>
</defs>
</svg>
