<svg width="33" height="30" viewBox="0 0 33 30" fill="none" xmlns="http://www.w3.org/2000/svg">
<path fill-rule="evenodd" clip-rule="evenodd" d="M21.076 19.5162C20.4036 19.4985 19.8202 19.1827 19.4694 18.6418C19.3156 18.4047 19.2129 18.1339 19.1627 17.8464C19.1045 17.515 19.1159 17.1614 19.2023 16.8123C19.362 16.167 19.7491 15.6104 20.292 15.2445C20.6857 14.9791 21.1009 14.8447 21.526 14.8447C22.2495 14.8447 22.9219 15.2416 23.3708 15.9336C23.7065 16.4515 23.8335 17.0087 23.7376 17.545C23.6663 17.9444 23.4327 18.5204 22.7255 18.9969C22.2275 19.3328 21.6621 19.5179 21.1346 19.5179C21.1234 19.5179 21.1124 19.5174 21.1013 19.517C21.0929 19.5167 21.0845 19.5163 21.076 19.5162ZM21.5256 16.4061C21.4062 16.4061 21.2749 16.4535 21.1362 16.5472C20.6778 16.856 20.5485 17.4746 20.7472 17.7811C20.7753 17.8245 20.8613 17.9568 21.1346 17.9568C21.362 17.9568 21.634 17.8615 21.881 17.6951C22.0227 17.5997 22.1984 17.4476 22.2308 17.2655C22.2605 17.0982 22.1722 16.9174 22.0931 16.795C22.0171 16.6779 21.81 16.4061 21.5256 16.4061Z" fill="white"/>
<path fill-rule="evenodd" clip-rule="evenodd" d="M9.82389 19.0036C9.11672 18.5271 8.88309 17.9512 8.81179 17.5516C8.71588 17.0154 8.84287 16.4582 9.17932 15.9406C9.62793 15.2486 10.3003 14.8517 11.0242 14.8517C11.4492 14.8517 11.8641 14.9861 12.2581 15.2516C12.801 15.6174 13.1881 16.1743 13.3478 16.8193C13.4328 17.1638 13.4453 17.5123 13.3896 17.8398C13.3399 18.1319 13.2362 18.4077 13.0801 18.6485C12.7264 19.1937 12.1367 19.5106 11.4577 19.5232C11.452 19.5233 11.4464 19.5236 11.4407 19.5238C11.4322 19.5242 11.4238 19.5245 11.4152 19.5245C10.8874 19.5245 10.3222 19.3394 9.82389 19.0036ZM11.0235 16.4128C10.7391 16.4128 10.5323 16.6846 10.4564 16.8014C10.3772 16.9237 10.2889 17.1044 10.3187 17.2718C10.351 17.4539 10.5268 17.6059 10.6685 17.7014C10.9155 17.8678 11.1874 17.9631 11.4148 17.9631C11.6881 17.9631 11.7741 17.8308 11.8023 17.7874C11.8952 17.644 11.9175 17.4249 11.8622 17.2012C11.797 16.9384 11.6334 16.7023 11.4129 16.5538C11.2738 16.4601 11.1429 16.4128 11.0235 16.4128Z" fill="white"/>
<path fill-rule="evenodd" clip-rule="evenodd" d="M29.6656 17.562C29.3613 15.8789 28.8871 14.523 28.2252 13.4538C29.289 13.0203 30.2409 12.3143 30.9752 11.4015C31.9705 10.1646 32.5187 8.6009 32.5187 6.9985C32.5183 3.16673 29.4598 0.0496521 25.7 0.0496521C23.6749 0.0496521 21.6647 1.71974 20.2596 4.54472H16.1768H12.2587C10.8536 1.7198 8.84349 0.0496521 6.81832 0.0496521C3.05853 0.0496521 0 3.16673 0 6.9985C0 8.6009 0.548082 10.1646 1.5435 11.4015C2.27777 12.3142 3.22967 13.0199 4.29348 13.4538C3.63153 14.523 3.15736 15.8789 2.85306 17.562C2.58111 19.0657 2.60242 20.4714 2.90672 21.7293C1.95057 22.1031 1.10961 22.6223 0.399252 23.2806L1.42969 24.4354C1.9902 23.9158 2.65906 23.5017 3.42409 23.1986C3.57823 23.523 3.75496 23.8338 3.95517 24.129C4.35272 24.7152 4.83571 25.2362 5.3966 25.6867C5.24937 25.7841 5.10404 25.8848 4.96202 25.9899C3.83934 26.8169 2.87728 27.8684 2.10274 29.116L3.39721 29.9507C4.29677 28.5014 5.45675 27.3839 6.85759 26.6132C7.61279 26.9857 8.44657 27.2578 9.34577 27.4232C10.0457 27.5523 10.7243 27.6176 11.3628 27.6176C11.4364 27.6176 11.5097 27.6166 11.5823 27.6149C12.6899 28.9819 14.3362 29.8593 16.1762 29.888L16.213 29.8886L16.2132 29.8886C16.2317 29.889 16.2502 29.8893 16.2688 29.8893C18.1457 29.8893 19.8287 29.0053 20.955 27.6153C21.0211 27.6166 21.0875 27.6176 21.1542 27.6176C21.7926 27.6176 22.4713 27.5523 23.1712 27.4232C24.0848 27.2548 24.931 26.977 25.6957 26.5952C26.9097 27.2581 28.1777 28.3029 29.2006 29.9507L30.4951 29.116C29.7206 27.8684 28.7585 26.8166 27.6358 25.9899C27.4791 25.8745 27.3194 25.7638 27.1564 25.6574C27.702 25.2135 28.1728 24.7026 28.5615 24.129C28.7677 23.8252 28.9486 23.5053 29.1057 23.1709C29.8439 23.455 30.5497 23.8625 31.1681 24.4355L32.1986 23.2806C31.4698 22.6053 30.6037 22.0761 29.6172 21.7002C29.9166 20.4497 29.9352 19.054 29.6656 17.562ZM16.2695 28.3282C16.2387 28.3282 16.2076 28.3279 16.1768 28.3272C15.171 28.3062 14.2433 27.9444 13.4939 27.3471C13.8454 27.2524 14.1834 27.1333 14.506 26.9889C15.1156 26.7165 15.6749 26.3556 16.1768 25.9114L16.2119 25.8803L16.2593 25.8378C16.7822 26.316 17.3693 26.7015 18.0126 26.989C18.3401 27.1354 18.6834 27.2558 19.04 27.3512C18.2684 27.9641 17.3087 28.3282 16.2695 28.3282ZM28.1469 21.273C28.1728 21.1613 28.1957 21.0482 28.2159 20.9335C28.3799 19.9991 28.3606 18.9599 28.1593 17.845C27.815 15.9394 27.2194 14.4961 26.3896 13.5547L26.2433 13.3889C25.9289 13.1945 25.4302 12.8726 24.9266 12.4932C23.6452 11.5274 23.0484 10.731 23.0484 9.98734C23.0484 9.10824 23.4266 7.07734 24.8582 5.68305C25.9207 4.64826 27.3206 4.16404 29.0192 4.2424L28.9495 5.80175C27.6848 5.74337 26.6645 6.08285 25.9161 6.81151C24.8317 7.86763 24.585 9.43169 24.5797 9.96996C24.5974 10.026 24.7624 10.4422 25.9178 11.2982C26.4574 11.698 26.9891 12.0265 27.2142 12.1616C28.2172 11.8555 29.1203 11.2448 29.7904 10.4118C30.5617 9.45297 30.9864 8.24111 30.9864 6.99855C30.9864 4.02785 28.6147 1.61074 25.6998 1.61074C24.1668 1.61074 22.7807 3.14577 21.8556 4.81554C22.1982 4.98292 22.5879 5.24404 22.9881 5.65191L21.905 6.75574C21.4623 6.30449 21.0856 6.15509 20.8864 6.10543H16.1776H11.6188C11.4196 6.15514 11.0429 6.30449 10.6002 6.75574L9.51707 5.65191C9.92148 5.23976 10.3152 4.97761 10.6604 4.81023C9.7353 3.14285 8.35051 1.61079 6.81912 1.61079C3.90421 1.61079 1.5325 4.0279 1.5325 6.9986C1.5325 8.24117 1.95726 9.45303 2.72851 10.4118C3.38823 11.2316 4.27366 11.8362 5.25728 12.1466C5.4949 12.0032 6.00861 11.6838 6.52922 11.2979C7.68468 10.4418 7.84956 10.0253 7.86725 9.96963C7.86199 9.43104 7.61528 7.86731 6.53086 6.81119C5.78252 6.08252 4.76223 5.74299 3.49752 5.80137L3.42813 4.24202C5.12673 4.16366 6.52661 4.64821 7.58909 5.68267C9.02069 7.07696 9.39896 9.10792 9.39896 9.98696C9.39896 10.731 8.8021 11.527 7.52071 12.4928C7.09595 12.813 6.67449 13.0917 6.36429 13.2882L6.12965 13.5543C5.29979 14.4957 4.70426 15.9391 4.36 17.8446C4.15846 18.9598 4.13917 19.9989 4.30309 20.9333C4.32403 21.0533 4.34858 21.1718 4.37573 21.2888C5.23927 21.1017 6.17284 21.0124 7.15907 21.023C8.62798 21.0387 9.85639 21.2711 10.467 21.4105C10.7147 21.4672 10.861 21.5086 10.8802 21.5142L10.4656 23.0169C10.4617 23.0156 10.3518 22.9849 10.1574 22.9402C9.62828 22.8188 8.47187 22.5944 7.10541 22.5837C6.33543 22.5778 5.60643 22.6401 4.92939 22.7685C5.01743 22.9312 5.11265 23.0892 5.21573 23.2413C5.65191 23.8839 6.21801 24.4265 6.89701 24.8584C7.23537 24.7049 7.58287 24.5682 7.93887 24.4489C8.7979 24.161 9.56814 24.02 10.1506 23.9516C10.8132 23.8739 11.2334 23.8906 11.2651 23.8919L11.2315 24.6722L11.2004 25.4516C11.2001 25.4516 11.1992 25.4516 11.1977 25.4515C11.1672 25.4508 10.8874 25.4445 10.4419 25.4906C10.0666 25.5296 9.57377 25.606 9.01325 25.7541C9.21022 25.8044 9.41213 25.8494 9.61893 25.8874C9.96675 25.9515 10.3067 25.9972 10.6366 26.0248C10.885 26.0455 11.1281 26.0569 11.3633 26.0569C11.6984 26.0569 12.0211 26.0355 12.3313 25.9935C13.3152 25.8598 14.1726 25.5143 14.8954 24.9611C14.4498 24.704 14.0057 24.3622 13.6572 23.9869C13.0574 23.3413 12.7462 22.6267 12.7524 21.9137H14.2845C14.2704 22.4586 14.8185 22.9848 15.0574 23.1876C15.4255 23.4997 15.7992 23.6992 16.0423 23.7979C16.0934 23.8185 16.1385 23.8346 16.1768 23.8466C16.2102 23.8569 16.2386 23.8642 16.2606 23.8682C16.3063 23.8576 16.379 23.8322 16.4709 23.7918C16.7098 23.6872 17.0779 23.4811 17.4409 23.1696C17.9294 22.7504 18.2203 22.2965 18.2498 21.9134H19.7835C19.7598 22.7947 19.2494 23.6888 18.3394 24.4378C18.091 24.6422 17.8453 24.8127 17.611 24.9517C18.341 25.5136 19.2088 25.8631 20.2062 25.9955C20.5105 26.0359 20.8266 26.0566 21.1549 26.0566C21.3967 26.0566 21.6467 26.0445 21.9029 26.0225C22.2258 25.9945 22.5589 25.9498 22.8993 25.8871C23.1198 25.8465 23.3345 25.7985 23.5439 25.7437C22.9693 25.5933 22.4706 25.5197 22.0989 25.4836C21.6719 25.4423 21.4124 25.4506 21.4012 25.4513L21.3341 23.8916C21.3652 23.8903 21.7608 23.875 22.3887 23.9447C22.9777 24.0103 23.7713 24.1511 24.6603 24.4489C24.9997 24.5626 25.3311 24.692 25.6548 24.8367C26.319 24.4082 26.874 23.8733 27.3027 23.2413C27.4087 23.0846 27.5069 22.9218 27.5968 22.7537C25.3357 22.3432 23.1116 22.7821 22.3825 22.9542C22.2288 22.9906 22.1414 23.0149 22.1345 23.0169L21.7193 21.5142C21.7369 21.5088 21.8627 21.4735 22.0763 21.4235C22.6656 21.2861 23.9251 21.0396 25.4405 21.0233C26.3979 21.0129 27.305 21.0973 28.1469 21.273Z" fill="white"/>
</svg>
