<svg width="16" height="16" viewBox="0 0 16 16" fill="none" xmlns="http://www.w3.org/2000/svg">
<path fill-rule="evenodd" clip-rule="evenodd" d="M14.2857 11.3714V13.5143C14.2874 13.9165 14.1193 14.3008 13.8229 14.5728C13.5265 14.8447 13.1292 14.9791 12.7286 14.9429C10.5306 14.704 8.4193 13.953 6.5643 12.75C4.83846 11.6533 3.37525 10.1901 2.27859 8.46428C1.07143 6.60086 0.320188 4.47928 0.0857282 2.27143C0.0496377 1.87205 0.183065 1.47589 0.453418 1.17973C0.723771 0.883563 1.10615 0.714662 1.50716 0.714285H3.65001C4.36706 0.707227 4.97823 1.23283 5.07859 1.94286C5.1693 2.62857 5.33644 3.30214 5.57859 3.95C5.77482 4.47205 5.64931 5.06057 5.25716 5.45714L4.35001 6.36428C5.36684 8.15253 6.84748 9.63317 8.63573 10.65L9.54287 9.74286C9.93944 9.3507 10.528 9.22519 11.05 9.42143C11.6979 9.66357 12.3714 9.83071 13.0572 9.92143C13.7754 10.0228 14.3037 10.6463 14.2857 11.3714Z" stroke="#68D6F4" stroke-width="1.5"/>
</svg>
