<svg width="36" height="33" viewBox="0 0 36 33" fill="none" xmlns="http://www.w3.org/2000/svg">
<path fill-rule="evenodd" clip-rule="evenodd" d="M16.5524 21.4123C16.9366 21.6193 17.2077 22.003 17.2964 22.4649C17.379 22.8958 17.3018 23.3611 17.0788 23.7748C16.7307 24.4206 16.099 24.8007 15.4847 24.8007C15.2541 24.8007 15.026 24.7472 14.8161 24.6341C14.432 24.4271 14.1608 24.0434 14.0722 23.5815C13.9896 23.1506 14.0668 22.6853 14.2898 22.2717C14.5128 21.858 14.8588 21.5377 15.2642 21.3698C15.6986 21.1899 16.1682 21.2053 16.5524 21.4123ZM15.2915 23.752C15.5694 23.9019 15.9839 23.6945 16.1967 23.2994C16.3089 23.0912 16.3511 22.8558 16.3122 22.6538C16.2936 22.5569 16.2384 22.3814 16.077 22.2944C16.0113 22.259 15.943 22.2464 15.8791 22.2464C15.7857 22.2464 15.7016 22.2732 15.6475 22.2956C15.4573 22.3743 15.284 22.5389 15.1718 22.747C15.0597 22.9553 15.0175 23.1906 15.0563 23.3927C15.0749 23.4896 15.1301 23.6651 15.2915 23.752Z" fill="white"/>
<path d="M17.2964 22.4649L17.591 22.4084L17.591 22.4084L17.2964 22.4649ZM16.5524 21.4123L16.4101 21.6764V21.6764L16.5524 21.4123ZM17.0788 23.7748L16.8147 23.6324V23.6324L17.0788 23.7748ZM14.8161 24.6341L14.9584 24.37L14.9584 24.37L14.8161 24.6341ZM14.0722 23.5815L13.7776 23.638L13.7776 23.638L14.0722 23.5815ZM14.2898 22.2717L14.5538 22.414L14.2898 22.2717ZM15.2642 21.3698L15.1494 21.0926L15.1494 21.0926L15.2642 21.3698ZM16.1967 23.2994L15.9326 23.1571L15.9326 23.1571L16.1967 23.2994ZM15.2915 23.752L15.4338 23.488L15.4337 23.4879L15.2915 23.752ZM16.3122 22.6538L16.0176 22.7103L16.0176 22.7105L16.3122 22.6538ZM16.077 22.2944L15.9346 22.5585L15.9347 22.5585L16.077 22.2944ZM15.6475 22.2956L15.7622 22.5728L15.7623 22.5727L15.6475 22.2956ZM15.1718 22.747L14.9078 22.6046L14.9077 22.6048L15.1718 22.747ZM15.0563 23.3927L14.7616 23.4492L14.7617 23.4494L15.0563 23.3927ZM17.591 22.4084C17.4869 21.8658 17.1651 21.4017 16.6947 21.1482L16.4101 21.6764C16.7081 21.837 16.9286 22.1402 17.0018 22.5215L17.591 22.4084ZM17.3429 23.9171C17.5962 23.4472 17.6876 22.9121 17.591 22.4084L17.0017 22.5214C17.0704 22.8796 17.0074 23.2749 16.8147 23.6324L17.3429 23.9171ZM15.4847 25.1007C16.2208 25.1007 16.9481 24.6495 17.3429 23.9171L16.8147 23.6324C16.5133 24.1917 15.9772 24.5007 15.4847 24.5007V25.1007ZM14.6738 24.8982C14.9297 25.0361 15.207 25.1007 15.4847 25.1007V24.5007C15.3011 24.5007 15.1223 24.4583 14.9584 24.37L14.6738 24.8982ZM13.7776 23.638C13.8817 24.1806 14.2035 24.6448 14.6738 24.8982L14.9584 24.37C14.6605 24.2095 14.44 23.9062 14.3668 23.525L13.7776 23.638ZM14.0257 22.1293C13.7724 22.5991 13.681 23.1343 13.7776 23.638L14.3668 23.525C14.2982 23.1668 14.3612 22.7714 14.5538 22.414L14.0257 22.1293ZM15.1494 21.0926C14.6755 21.2889 14.2789 21.6595 14.0257 22.1293L14.5538 22.414C14.7466 22.0565 15.0421 21.7865 15.379 21.6469L15.1494 21.0926ZM16.6947 21.1482C16.2243 20.8948 15.6596 20.8813 15.1494 21.0926L15.379 21.6469C15.7375 21.4985 16.1121 21.5158 16.4101 21.6764L16.6947 21.1482ZM15.9326 23.1571C15.853 23.3048 15.7396 23.4091 15.6343 23.4618C15.526 23.5159 15.4605 23.5024 15.4338 23.488L15.1491 24.0161C15.4003 24.1516 15.681 24.1093 15.9027 23.9984C16.1273 23.8861 16.3275 23.6891 16.4608 23.4417L15.9326 23.1571ZM16.0176 22.7105C16.0415 22.8346 16.0172 23 15.9326 23.1571L16.4608 23.4417C16.6006 23.1823 16.6607 22.8771 16.6068 22.5971L16.0176 22.7105ZM15.9347 22.5585C15.9515 22.5676 15.9683 22.5838 15.9845 22.6136C16.0014 22.6447 16.0119 22.6807 16.0176 22.7103L16.6068 22.5974C16.5841 22.479 16.5052 22.1844 16.2193 22.0303L15.9347 22.5585ZM15.8791 22.5464C15.9034 22.5464 15.9207 22.551 15.9346 22.5585L16.2194 22.0304C16.1019 21.967 15.9827 21.9464 15.8791 21.9464V22.5464ZM15.7623 22.5727C15.7964 22.5586 15.8397 22.5464 15.8791 22.5464V21.9464C15.7317 21.9464 15.6067 21.9878 15.5327 22.0184L15.7623 22.5727ZM15.4359 22.8894C15.5206 22.7323 15.6453 22.6211 15.7622 22.5728L15.5328 22.0184C15.2693 22.1274 15.0475 22.3454 14.9078 22.6046L15.4359 22.8894ZM15.3509 23.3362C15.3271 23.2119 15.3513 23.0464 15.436 22.8892L14.9077 22.6048C14.768 22.8642 14.708 23.1693 14.7616 23.4492L15.3509 23.3362ZM15.4337 23.4879C15.417 23.4789 15.4002 23.4628 15.384 23.433C15.3671 23.4018 15.3566 23.3657 15.3509 23.336L14.7617 23.4494C14.7844 23.5674 14.8633 23.8621 15.1492 24.0162L15.4337 23.4879Z" fill="white"/>
<path fill-rule="evenodd" clip-rule="evenodd" d="M19.2445 21.4123C20.0137 20.9979 21.0285 21.3835 21.5073 22.2717C21.7303 22.6854 21.8075 23.1506 21.7248 23.5815C21.6362 24.0434 21.365 24.4271 20.9809 24.6342C20.7711 24.7473 20.5429 24.8008 20.3124 24.8008C19.6979 24.8008 19.0663 24.4207 18.7182 23.7748V23.7748C18.2395 22.8865 18.4756 21.8267 19.2445 21.4123ZM20.5056 23.752C20.667 23.6651 20.7222 23.4896 20.7408 23.3927C20.7795 23.1906 20.7374 22.9553 20.6252 22.747C20.4123 22.3519 19.9979 22.1448 19.7199 22.2944C19.4422 22.4441 19.3874 22.9043 19.6003 23.2994V23.2993C19.8133 23.6945 20.228 23.9019 20.5056 23.752Z" fill="white"/>
<path d="M21.5073 22.2717L21.7714 22.1293L21.7713 22.1293L21.5073 22.2717ZM19.2445 21.4123L19.1022 21.1482L19.1022 21.1482L19.2445 21.4123ZM21.7248 23.5815L22.0195 23.638L22.0195 23.638L21.7248 23.5815ZM20.9809 24.6342L20.8386 24.3701L20.8385 24.3701L20.9809 24.6342ZM18.7182 23.7748H18.4182V23.8505L18.4541 23.9172L18.7182 23.7748ZM18.7182 23.7748H19.0182V23.6991L18.9823 23.6324L18.7182 23.7748ZM20.7408 23.3927L21.0354 23.4492L21.0354 23.4492L20.7408 23.3927ZM20.5056 23.752L20.3633 23.4879L20.3631 23.4881L20.5056 23.752ZM20.6252 22.747L20.8894 22.6048L20.8893 22.6047L20.6252 22.747ZM19.7199 22.2944L19.5778 22.0302L19.5776 22.0303L19.7199 22.2944ZM19.6003 23.2994L19.3363 23.4417L19.9003 23.2994H19.6003ZM19.6003 23.2993L19.8644 23.157L19.3003 23.2993H19.6003ZM21.7713 22.1293C21.2339 21.1323 20.0517 20.6367 19.1022 21.1482L19.3868 21.6764C19.9756 21.3592 20.8231 21.6346 21.2432 22.414L21.7713 22.1293ZM22.0195 23.638C22.1161 23.1343 22.0246 22.5992 21.7714 22.1293L21.2432 22.414C21.4359 22.7715 21.4989 23.1669 21.4302 23.525L22.0195 23.638ZM21.1232 24.8983C21.5936 24.6448 21.9153 24.1806 22.0195 23.638L21.4302 23.525C21.357 23.9062 21.1365 24.2095 20.8386 24.3701L21.1232 24.8983ZM20.3124 25.1008C20.5899 25.1008 20.8674 25.0362 21.1232 24.8982L20.8385 24.3701C20.6748 24.4583 20.4959 24.5008 20.3124 24.5008V25.1008ZM18.4541 23.9172C18.8489 24.6496 19.5762 25.1008 20.3124 25.1008V24.5008C19.8197 24.5008 19.2838 24.1918 18.9822 23.6325L18.4541 23.9172ZM18.4182 23.7748V23.7748H19.0182V23.7748H18.4182ZM19.1022 21.1482C18.1529 21.6598 17.9168 22.92 18.4541 23.9171L18.9823 23.6324C18.5622 22.853 18.7983 21.9936 19.3868 21.6764L19.1022 21.1482ZM20.4462 23.3362C20.4405 23.3658 20.43 23.4018 20.4131 23.433C20.3969 23.4627 20.3801 23.4789 20.3633 23.4879L20.6478 24.0162C20.9338 23.8622 21.0128 23.5674 21.0354 23.4492L20.4462 23.3362ZM20.3611 22.8892C20.4457 23.0464 20.47 23.2119 20.4462 23.3362L21.0354 23.4492C21.0891 23.1693 21.0291 22.8642 20.8894 22.6048L20.3611 22.8892ZM19.8621 22.5585C19.8889 22.5441 19.9546 22.5307 20.0628 22.5848C20.1681 22.6374 20.2816 22.7417 20.3611 22.8893L20.8893 22.6047C20.756 22.3573 20.5557 22.1604 20.3311 22.0481C20.1095 21.9373 19.8289 21.895 19.5778 22.0302L19.8621 22.5585ZM19.8644 23.1571C19.7848 23.0094 19.7601 22.8573 19.774 22.7403C19.7884 22.6201 19.8357 22.5728 19.8623 22.5584L19.5776 22.0303C19.3264 22.1657 19.2075 22.4233 19.1782 22.6694C19.1486 22.9187 19.2029 23.1943 19.3363 23.4417L19.8644 23.1571ZM19.3003 23.2993V23.2994H19.9003V23.2993H19.3003ZM20.3631 23.4881C20.3367 23.5023 20.2713 23.5159 20.1629 23.4618C20.0576 23.4091 19.944 23.3047 19.8644 23.157L19.3363 23.4416C19.4696 23.6891 19.6699 23.8861 19.8946 23.9984C20.1162 24.1092 20.3969 24.1516 20.6481 24.016L20.3631 23.4881Z" fill="white"/>
<path fill-rule="evenodd" clip-rule="evenodd" d="M34.1168 5.54399C34.9175 3.03306 34.9968 0.73882 34.9997 0.642426C35.0077 0.385039 34.8193 0.163592 34.5641 0.130191C32.046 -0.199275 29.4497 0.415166 26.8475 1.95661C24.9426 3.08516 23.4914 4.44885 22.6996 5.27685C21.1436 4.50095 19.5319 4.10816 17.8986 4.10816C16.2654 4.10816 14.6538 4.50089 13.098 5.27665C12.3061 4.44865 10.855 3.08503 8.95012 1.95661C6.34773 0.4151 3.75175 -0.199342 1.23353 0.130191C0.978285 0.163592 0.789838 0.385106 0.797854 0.642426C0.800793 0.73882 0.88002 3.03306 1.68084 5.54399C2.68654 8.69777 4.39606 10.7636 6.645 11.5605C4.97202 14.3877 4.01001 17.6556 4.01001 20.6742C4.01001 23.967 5.46294 27.0591 8.10114 29.3807C10.7212 31.6863 14.2007 32.9561 17.8985 32.9561C21.5963 32.9561 25.0758 31.6863 27.6959 29.3807C30.3341 27.0591 31.787 23.967 31.787 20.6742C31.787 17.6557 30.825 14.3879 29.1521 11.5608C31.4013 10.7639 33.111 8.69797 34.1168 5.54399ZM12.1881 5.7786C11.677 6.08736 11.1804 6.43366 10.6997 6.8171C9.83504 4.8695 8.43996 3.2704 6.54326 2.06022C6.26276 1.88126 5.98293 1.7186 5.70597 1.5701C8.69574 2.54307 11.0605 4.63623 12.1881 5.7786ZM9.90285 7.50021C8.05972 2.98309 3.66077 1.61379 1.8439 1.23335C2.02841 3.22411 2.94052 9.38542 7.19371 10.6873C7.46091 10.2866 7.74242 9.89672 8.03841 9.52049C8.62386 8.77639 9.24679 8.10236 9.90285 7.50021ZM30.7851 20.6742C30.785 26.8939 25.0042 31.9541 17.8985 31.9541C10.7929 31.9541 5.01203 26.8939 5.01203 20.6742C5.01203 17.1133 6.43778 13.1753 8.82587 10.1401C10.0439 8.59215 11.4271 7.36728 12.9372 6.49946C14.5414 5.5776 16.2107 5.11018 17.8986 5.11018C19.5865 5.11018 21.2558 5.5776 22.86 6.49946C24.3701 7.36721 25.7533 8.59209 26.9713 10.1401C29.3594 13.1753 30.7851 17.1133 30.7851 20.6742ZM27.7587 9.52049C28.0547 9.89679 28.3362 10.2868 28.6034 10.6874C32.8576 9.38576 33.7694 3.22257 33.9538 1.23235C32.5248 1.52808 29.6835 2.3931 27.5669 4.79829C27.4678 4.91078 27.3295 4.9683 27.1906 4.9683C27.073 4.9683 26.955 4.92715 26.8598 4.84338C26.652 4.66061 26.6318 4.34397 26.8147 4.13628C27.8277 2.98509 28.9902 2.15842 30.1071 1.56522C27.11 2.53605 24.7388 4.63442 23.6092 5.7788C24.1204 6.08756 24.617 6.43399 25.0978 6.81743C25.2191 6.54468 25.35 6.27721 25.4919 6.01915C25.6252 5.77673 25.9299 5.68822 26.1722 5.82142C26.4147 5.95476 26.5033 6.25937 26.37 6.50186C26.1942 6.82184 26.0356 7.15745 25.8952 7.50108C26.5509 8.10303 27.1735 8.77679 27.7587 9.52049Z" fill="white"/>
<path d="M34.9997 0.642426L34.6999 0.633164L34.6999 0.633277L34.9997 0.642426ZM34.1168 5.54399L33.8309 5.45285L33.8309 5.45285L34.1168 5.54399ZM34.5641 0.130191L34.603 -0.167273L34.603 -0.167274L34.5641 0.130191ZM26.8475 1.95661L26.6946 1.6985L26.6946 1.69851L26.8475 1.95661ZM22.6996 5.27685L22.5657 5.54533L22.7636 5.644L22.9164 5.48419L22.6996 5.27685ZM13.098 5.27665L12.8812 5.484L13.034 5.64379L13.2318 5.54513L13.098 5.27665ZM8.95012 1.95661L9.10302 1.6985L9.10302 1.6985L8.95012 1.95661ZM1.23353 0.130191L1.27246 0.427655L1.27246 0.427655L1.23353 0.130191ZM0.797854 0.642426L1.09771 0.633282L1.09771 0.633084L0.797854 0.642426ZM1.68084 5.54399L1.96666 5.45285L1.96665 5.45284L1.68084 5.54399ZM6.645 11.5605L6.90318 11.7133L7.08886 11.3996L6.7452 11.2778L6.645 11.5605ZM8.10114 29.3807L7.90295 29.6059L7.90295 29.6059L8.10114 29.3807ZM27.6959 29.3807L27.894 29.6059L27.894 29.6059L27.6959 29.3807ZM29.1521 11.5608L29.052 11.278L28.7083 11.3997L28.8939 11.7135L29.1521 11.5608ZM10.6997 6.8171L10.4255 6.93883L10.5831 7.29382L10.8867 7.05164L10.6997 6.8171ZM12.1881 5.7786L12.3433 6.03538L12.6689 5.83864L12.4016 5.56785L12.1881 5.7786ZM6.54326 2.06022L6.70463 1.80732L6.70462 1.80731L6.54326 2.06022ZM5.70597 1.5701L5.79881 1.28483L5.56421 1.83449L5.70597 1.5701ZM1.8439 1.23335L1.90538 0.939721L1.50768 0.856446L1.54518 1.26104L1.8439 1.23335ZM9.90285 7.50021L10.1057 7.72123L10.2595 7.58011L10.1806 7.38688L9.90285 7.50021ZM7.19371 10.6873L7.1059 10.9741L7.3194 11.0395L7.44328 10.8537L7.19371 10.6873ZM8.03841 9.52049L7.80264 9.33499L7.80264 9.335L8.03841 9.52049ZM30.7851 20.6742L31.0851 20.6742V20.6742H30.7851ZM8.82587 10.1401L8.5901 9.95464L8.5901 9.95464L8.82587 10.1401ZM12.9372 6.49946L12.7877 6.23935L12.7877 6.23935L12.9372 6.49946ZM22.86 6.49946L23.0095 6.23935L23.0095 6.23935L22.86 6.49946ZM26.9713 10.1401L26.7355 10.3256L26.7355 10.3257L26.9713 10.1401ZM28.6034 10.6874L28.3539 10.8539L28.4778 11.0396L28.6912 10.9743L28.6034 10.6874ZM27.7587 9.52049L27.9944 9.33502L27.9944 9.335L27.7587 9.52049ZM33.9538 1.23235L34.2525 1.26002L34.2899 0.856433L33.893 0.938576L33.9538 1.23235ZM27.5669 4.79829L27.792 4.99656L27.7921 4.99648L27.5669 4.79829ZM26.8598 4.84338L27.058 4.61817L27.0579 4.61814L26.8598 4.84338ZM26.8147 4.13628L27.0399 4.33452L27.0399 4.33447L26.8147 4.13628ZM30.1071 1.56522L30.2478 1.83017L30.0146 1.27982L30.1071 1.56522ZM23.6092 5.7788L23.3957 5.56806L23.1284 5.83886L23.4541 6.03559L23.6092 5.7788ZM25.0978 6.81743L24.9108 7.05197L25.2142 7.29398L25.3719 6.93935L25.0978 6.81743ZM25.4919 6.01915L25.229 5.87458L25.229 5.87461L25.4919 6.01915ZM26.1722 5.82142L26.3168 5.55854L26.3167 5.55851L26.1722 5.82142ZM26.37 6.50186L26.1071 6.35737L26.1071 6.35739L26.37 6.50186ZM25.8952 7.50108L25.6175 7.3876L25.5385 7.58087L25.6923 7.72207L25.8952 7.50108ZM34.6999 0.633277C34.6973 0.718556 34.6193 2.98071 33.8309 5.45285L34.4026 5.63514C35.2157 3.0854 35.2963 0.759085 35.2996 0.651575L34.6999 0.633277ZM34.5251 0.427655C34.6275 0.441047 34.7031 0.529843 34.6999 0.633164L35.2996 0.651687C35.3123 0.240235 35.0112 -0.113864 34.603 -0.167273L34.5251 0.427655ZM27.0004 2.21473C29.5563 0.700717 32.0857 0.108474 34.5251 0.427655L34.603 -0.167274C32.0063 -0.507024 29.3432 0.129616 26.6946 1.6985L27.0004 2.21473ZM22.9164 5.48419C23.697 4.66787 25.127 3.3246 27.0005 2.21472L26.6946 1.69851C24.7582 2.84572 23.2857 4.22983 22.4827 5.06952L22.9164 5.48419ZM17.8986 4.40816C19.4824 4.40816 21.0485 4.78875 22.5657 5.54533L22.8334 5.00838C21.2387 4.21316 19.5814 3.80816 17.8986 3.80816V4.40816ZM13.2318 5.54513C14.7489 4.78869 16.315 4.40816 17.8986 4.40816V3.80816C16.2159 3.80816 14.5587 4.21309 12.9641 5.00818L13.2318 5.54513ZM8.79722 2.21472C10.6706 3.32447 12.1005 4.66767 12.8812 5.484L13.3148 5.06931C12.5118 4.22963 11.0394 2.84558 9.10302 1.6985L8.79722 2.21472ZM1.27246 0.427655C3.71207 0.10841 6.24115 0.700647 8.79723 2.21473L9.10302 1.6985C6.45432 0.129553 3.79144 -0.507093 1.19461 -0.167273L1.27246 0.427655ZM1.09771 0.633084C1.09449 0.529935 1.17007 0.441053 1.27246 0.427655L1.19461 -0.167273C0.786498 -0.11387 0.48518 0.240277 0.497999 0.651767L1.09771 0.633084ZM1.96665 5.45284C1.17821 2.98071 1.10031 0.718563 1.09771 0.633282L0.497993 0.651569C0.501271 0.759078 0.581825 3.0854 1.39502 5.63515L1.96665 5.45284ZM6.7452 11.2778C4.61535 10.523 2.95545 8.55361 1.96666 5.45285L1.39502 5.63514C2.41762 8.84192 4.17676 11.0042 6.5448 11.8433L6.7452 11.2778ZM4.31001 20.6742C4.31001 17.7156 5.2542 14.5 6.90318 11.7133L6.38682 11.4078C4.68984 14.2755 3.71001 17.5956 3.71001 20.6742H4.31001ZM8.29933 29.1555C5.72093 26.8865 4.31001 23.8745 4.31001 20.6742H3.71001C3.71001 24.0596 5.20496 27.2317 7.90295 29.6059L8.29933 29.1555ZM17.8985 32.6561C14.269 32.6561 10.8612 31.4099 8.29933 29.1555L7.90295 29.6059C10.5813 31.9628 14.1325 33.2561 17.8985 33.2561V32.6561ZM27.4977 29.1555C24.9358 31.4099 21.5281 32.6561 17.8985 32.6561V33.2561C21.6646 33.2561 25.2157 31.9628 27.894 29.6059L27.4977 29.1555ZM31.487 20.6742C31.487 23.8745 30.0761 26.8865 27.4977 29.1555L27.894 29.6059C30.592 27.2317 32.087 24.0596 32.087 20.6742H31.487ZM28.8939 11.7135C30.5428 14.5001 31.487 17.7158 31.487 20.6742H32.087C32.087 17.5957 31.1072 14.2756 29.4103 11.408L28.8939 11.7135ZM33.8309 5.45285C32.8421 8.5538 31.1821 10.5233 29.052 11.278L29.2523 11.8435C31.6206 11.0045 33.3799 8.84213 34.4026 5.63514L33.8309 5.45285ZM10.8867 7.05164C11.3576 6.6761 11.8435 6.33727 12.3433 6.03538L12.033 5.52182C11.5105 5.83745 11.0033 6.19122 10.5126 6.58256L10.8867 7.05164ZM6.3819 2.31313C8.23163 3.49334 9.58603 5.04795 10.4255 6.93883L10.9739 6.69537C10.0841 4.69105 8.64829 3.04746 6.70463 1.80732L6.3819 2.31313ZM5.56421 1.83449C5.83492 1.97965 6.10819 2.1385 6.3819 2.31313L6.70462 1.80731C6.41733 1.62402 6.13093 1.45755 5.84773 1.30571L5.56421 1.83449ZM12.4016 5.56785C11.2619 4.41317 8.8564 2.27986 5.79881 1.28483L5.61313 1.85537C8.53508 2.80627 10.8592 4.85928 11.9746 5.98935L12.4016 5.56785ZM1.78242 1.52698C3.57454 1.90224 7.84097 3.24105 9.62508 7.61355L10.1806 7.38688C8.27848 2.72513 3.74701 1.32534 1.90538 0.939721L1.78242 1.52698ZM7.28151 10.4004C5.28394 9.78897 4.04132 8.0267 3.27149 6.10699C2.50438 4.19405 2.23376 2.18898 2.14262 1.20567L1.54518 1.26104C1.63855 2.26848 1.91624 4.33944 2.7146 6.33031C3.51025 8.3144 4.85028 10.2837 7.1059 10.9741L7.28151 10.4004ZM7.80264 9.335C7.50152 9.71773 7.21544 10.114 6.94413 10.5208L7.44328 10.8537C7.70639 10.4593 7.98331 10.0757 8.27419 9.70599L7.80264 9.335ZM9.69999 7.27919C9.03145 7.8928 8.3976 8.5788 7.80264 9.33499L8.27419 9.706C8.85013 8.97398 9.46212 8.31193 10.1057 7.72123L9.69999 7.27919ZM17.8985 32.2541C25.1311 32.2541 31.085 27.0959 31.0851 20.6742L30.4851 20.6742C30.485 26.692 24.8772 31.6541 17.8985 31.6541V32.2541ZM4.71203 20.6742C4.71203 27.0959 10.666 32.2541 17.8985 32.2541V31.6541C10.9198 31.6541 5.31203 26.692 5.31203 20.6742H4.71203ZM8.5901 9.95464C6.16415 13.038 4.71203 17.0402 4.71203 20.6742H5.31203C5.31203 17.1864 6.71141 13.3127 9.06164 10.3257L8.5901 9.95464ZM12.7877 6.23935C11.2402 7.12863 9.82874 8.38041 8.5901 9.95464L9.06164 10.3257C10.259 8.80389 11.6139 7.60593 13.0867 6.75957L12.7877 6.23935ZM17.8986 4.81018C16.1533 4.81018 14.4329 5.29393 12.7877 6.23935L13.0866 6.75957C14.6499 5.86126 16.2681 5.41018 17.8986 5.41018V4.81018ZM23.0095 6.23935C21.3643 5.29393 19.6439 4.81018 17.8986 4.81018V5.41018C19.5291 5.41018 21.1473 5.86126 22.7106 6.75957L23.0095 6.23935ZM27.207 9.95465C25.9685 8.38035 24.5569 7.12856 23.0095 6.23935L22.7106 6.75957C24.1833 7.60586 25.5382 8.80382 26.7355 10.3256L27.207 9.95465ZM31.0851 20.6742C31.0851 17.0402 29.633 13.038 27.207 9.95464L26.7355 10.3257C29.0857 13.3127 30.4851 17.1864 30.4851 20.6742H31.0851ZM28.853 10.5209C28.5816 10.1142 28.2956 9.71782 27.9944 9.33502L27.5229 9.70597C27.8137 10.0758 28.0907 10.4594 28.3539 10.8539L28.853 10.5209ZM33.655 1.20468C33.564 2.18773 33.2934 4.19313 32.5263 6.10644C31.7564 8.02653 30.5137 9.78919 28.5157 10.4005L28.6912 10.9743C30.9473 10.284 32.2875 8.3142 33.0832 6.32974C33.8816 4.33849 34.1592 2.26719 34.2525 1.26002L33.655 1.20468ZM27.7921 4.99648C29.8463 2.66216 32.6129 1.81621 34.0146 1.52613L33.893 0.938576C32.4367 1.23996 29.5206 2.12403 27.3417 4.6001L27.7921 4.99648ZM27.1906 5.2683C27.4121 5.2683 27.6337 5.17636 27.792 4.99656L27.3417 4.60002C27.3019 4.64521 27.2469 4.6683 27.1906 4.6683V5.2683ZM26.6616 5.06859C26.8136 5.20237 27.0028 5.2683 27.1906 5.2683V4.6683C27.1432 4.6683 27.0963 4.65193 27.058 4.61817L26.6616 5.06859ZM26.5895 3.93805C26.2972 4.27011 26.3294 4.77637 26.6616 5.06862L27.0579 4.61814C26.9746 4.54485 26.9665 4.41783 27.0399 4.33452L26.5895 3.93805ZM29.9663 1.30028C28.824 1.90703 27.6308 2.75476 26.5895 3.9381L27.0399 4.33447C28.0247 3.21543 29.1565 2.40981 30.2478 1.83017L29.9663 1.30028ZM23.8227 5.98955C24.9401 4.85748 27.2705 2.7994 30.1995 1.85062L30.0146 1.27982C26.9495 2.2727 24.5374 4.41136 23.3957 5.56806L23.8227 5.98955ZM25.2849 6.58289C24.7942 6.19156 24.2869 5.83766 23.7643 5.52201L23.4541 6.03559C23.9539 6.33746 24.4399 6.67642 24.9108 7.05197L25.2849 6.58289ZM25.229 5.87461C25.0825 6.14104 24.9479 6.41618 24.8237 6.69552L25.3719 6.93935C25.4903 6.67318 25.6175 6.41337 25.7548 6.1637L25.229 5.87461ZM26.3167 5.55851C25.9292 5.3455 25.4422 5.48706 25.229 5.87458L25.7547 6.16373C25.8083 6.0664 25.9306 6.03094 26.0278 6.08433L26.3167 5.55851ZM26.6329 6.64636C26.846 6.25867 26.7044 5.77169 26.3168 5.55854L26.0277 6.0843C26.125 6.13783 26.1605 6.26008 26.1071 6.35737L26.6329 6.64636ZM26.1729 7.61456C26.3094 7.28071 26.463 6.95551 26.6329 6.64633L26.1071 6.35739C25.9253 6.68817 25.7619 7.0342 25.6175 7.3876L26.1729 7.61456ZM27.9944 9.335C27.3998 8.57921 26.7662 7.89348 26.0981 7.28009L25.6923 7.72207C26.3355 8.31258 26.9473 8.97438 27.5229 9.70599L27.9944 9.335Z" fill="white"/>
<path fill-rule="evenodd" clip-rule="evenodd" d="M22.5032 19.3894C21.2968 18.2213 19.6625 17.578 17.9011 17.5781C14.1894 17.5781 11.3905 20.3611 11.3905 24.0517C11.3905 24.9825 11.6717 25.7127 12.2265 26.2218C12.4217 26.4009 12.6427 26.5436 12.8816 26.6576C13.5765 28.5083 15.3506 29.7432 17.3373 29.7432H18.4597C20.449 29.7432 22.2122 28.5172 22.9106 26.6718C23.1551 26.5561 23.3819 26.4104 23.5833 26.2256C24.1375 25.7166 24.4185 24.9852 24.4185 24.0517C24.4185 22.2412 23.7383 20.5855 22.5032 19.3894ZM18.4597 28.7411H17.3373C16.0367 28.7411 14.8512 28.071 14.1713 27.0093C15.068 27.1208 16.0339 27.0384 16.8372 26.9693C17.2388 26.9348 17.618 26.9023 17.9033 26.9023C18.1963 26.9023 18.5809 26.9351 18.9881 26.9698L18.9882 26.9698L18.9909 26.97C19.5356 27.0165 20.1274 27.0669 20.7149 27.0669C21.0204 27.0669 21.3245 27.0525 21.6206 27.0176C20.9412 28.0754 19.7621 28.7411 18.4597 28.7411ZM19.0761 25.9716C20.3511 26.0804 22.0977 26.2293 22.9056 25.4875C23.2493 25.1718 23.4165 24.7021 23.4165 24.0517C23.4165 22.5149 22.8446 21.1149 21.8061 20.1093C20.7877 19.1231 19.4008 18.5801 17.9011 18.5801C16.4019 18.5801 15.0164 19.1231 13.9998 20.109C12.9633 21.1142 12.3925 22.5144 12.3925 24.0517C12.3925 24.6993 12.5599 25.1677 12.904 25.4836C13.7184 26.2311 15.4706 26.0808 16.7503 25.9711L16.7515 25.971C17.1751 25.9346 17.5751 25.9003 17.9033 25.9003C18.2394 25.9003 18.6455 25.9349 19.0752 25.9715L19.0761 25.9716Z" fill="white"/>
<path d="M17.9011 17.5781V17.8781H17.9011L17.9011 17.5781ZM22.5032 19.3894L22.7118 19.1739L22.7118 19.1739L22.5032 19.3894ZM12.2265 26.2218L12.4294 26.0008L12.4294 26.0008L12.2265 26.2218ZM12.8816 26.6576L13.1625 26.5521L13.12 26.4389L13.0109 26.3868L12.8816 26.6576ZM22.9106 26.6718L22.7823 26.4006L22.6728 26.4524L22.63 26.5656L22.9106 26.6718ZM23.5833 26.2256L23.7862 26.4466L23.7862 26.4465L23.5833 26.2256ZM14.1713 27.0093L14.2083 26.7116L13.574 26.6327L13.9187 27.1711L14.1713 27.0093ZM16.8372 26.9693L16.8115 26.6704L16.8115 26.6704L16.8372 26.9693ZM18.9881 26.9698L19.0137 26.6709L19.0136 26.6709L18.9881 26.9698ZM18.9882 26.9698L18.9626 27.2687L18.9626 27.2687L18.9882 26.9698ZM18.9909 26.97L18.9653 27.2689L18.9653 27.2689L18.9909 26.97ZM21.6206 27.0176L21.873 27.1797L22.2163 26.6452L21.5854 26.7196L21.6206 27.0176ZM22.9056 25.4875L23.1085 25.7085L23.1085 25.7084L22.9056 25.4875ZM19.0761 25.9716L19.1016 25.6727L19.1016 25.6727L19.0761 25.9716ZM21.8061 20.1093L21.5974 20.3248L21.5974 20.3248L21.8061 20.1093ZM13.9998 20.109L13.7909 19.8937L13.7909 19.8937L13.9998 20.109ZM12.904 25.4836L12.7012 25.7046L12.7012 25.7046L12.904 25.4836ZM16.7503 25.9711L16.7759 26.27L16.7762 26.27L16.7503 25.9711ZM16.7515 25.971L16.7258 25.6721L16.7256 25.6721L16.7515 25.971ZM19.0752 25.9715L19.0497 26.2704L19.0497 26.2704L19.0752 25.9715ZM17.9011 17.8781C19.5888 17.878 21.147 18.4939 22.2945 19.605L22.7118 19.1739C21.4466 17.9488 19.7362 17.278 17.901 17.2781L17.9011 17.8781ZM11.6905 24.0517C11.6905 20.5284 14.3535 17.8781 17.9011 17.8781V17.2781C14.0254 17.2781 11.0905 20.1938 11.0905 24.0517H11.6905ZM12.4294 26.0008C11.9506 25.5615 11.6905 24.9199 11.6905 24.0517H11.0905C11.0905 25.0452 11.3928 25.8639 12.0237 26.4429L12.4294 26.0008ZM13.0109 26.3868C12.7948 26.2837 12.5996 26.157 12.4294 26.0008L12.0237 26.4429C12.2438 26.6449 12.4906 26.8034 12.7524 26.9283L13.0109 26.3868ZM17.3373 29.4432C15.4759 29.4432 13.8135 28.286 13.1625 26.5521L12.6008 26.763C13.3395 28.7305 15.2254 30.0432 17.3373 30.0432V29.4432ZM18.4597 29.4432H17.3373V30.0432H18.4597V29.4432ZM22.63 26.5656C21.9756 28.2946 20.324 29.4432 18.4597 29.4432V30.0432C20.574 30.0432 22.4487 28.7398 23.1912 26.778L22.63 26.5656ZM23.3804 26.0046C23.2042 26.1663 23.0034 26.296 22.7823 26.4006L23.0389 26.943C23.3067 26.8162 23.5596 26.6545 23.7862 26.4466L23.3804 26.0046ZM24.1185 24.0517C24.1185 24.9229 23.8583 25.5657 23.3803 26.0046L23.7862 26.4465C24.4166 25.8676 24.7185 25.0475 24.7185 24.0517H24.1185ZM22.2945 19.605C23.4679 20.7412 24.1185 22.3176 24.1185 24.0517H24.7185C24.7185 22.1648 24.0087 20.4297 22.7118 19.1739L22.2945 19.605ZM17.3373 29.0411H18.4597V28.4411H17.3373V29.0411ZM13.9187 27.1711C14.6527 28.3175 15.9327 29.0411 17.3373 29.0411V28.4411C16.1407 28.4411 15.0496 27.8246 14.424 26.8475L13.9187 27.1711ZM16.8115 26.6704C16.0027 26.7399 15.0685 26.8185 14.2083 26.7116L14.1343 27.307C15.0675 27.423 16.0651 27.3368 16.8629 27.2682L16.8115 26.6704ZM17.9033 26.6023C17.6022 26.6023 17.2082 26.6363 16.8115 26.6704L16.8628 27.2682C17.2694 27.2333 17.6338 27.2023 17.9033 27.2023V26.6023ZM19.0136 26.6709C18.6112 26.6366 18.212 26.6023 17.9033 26.6023V27.2023C18.1806 27.2023 18.5506 27.2336 18.9626 27.2687L19.0136 26.6709ZM19.0138 26.6709L19.0137 26.6709L18.9625 27.2687L18.9626 27.2687L19.0138 26.6709ZM19.0165 26.6711L19.0138 26.6709L18.9626 27.2687L18.9653 27.2689L19.0165 26.6711ZM20.7149 26.7669C20.1422 26.7669 19.563 26.7178 19.0164 26.6711L18.9653 27.2689C19.5081 27.3153 20.1125 27.3669 20.7149 27.3669V26.7669ZM21.5854 26.7196C21.3033 26.7529 21.0112 26.7669 20.7149 26.7669V27.3669C21.0296 27.3669 21.3457 27.3521 21.6557 27.3155L21.5854 26.7196ZM18.4597 29.0411C19.8657 29.0411 21.1392 28.3222 21.873 27.1797L21.3681 26.8555C20.7431 27.8286 19.6585 28.4411 18.4597 28.4411V29.0411ZM22.7027 25.2665C22.3788 25.5639 21.8308 25.708 21.148 25.7491C20.4766 25.7894 19.7433 25.7274 19.1016 25.6727L19.0506 26.2705C19.684 26.3245 20.4615 26.3914 21.184 26.348C21.8952 26.3052 22.6244 26.153 23.1085 25.7085L22.7027 25.2665ZM23.1165 24.0517C23.1165 24.6522 22.9633 25.0272 22.7026 25.2665L23.1085 25.7084C23.5354 25.3164 23.7165 24.752 23.7165 24.0517H23.1165ZM21.5974 20.3248C22.5735 21.27 23.1165 22.5905 23.1165 24.0517H23.7165C23.7165 22.4394 23.1156 20.9597 22.0148 19.8938L21.5974 20.3248ZM17.9011 18.8801C19.3279 18.8801 20.6384 19.3962 21.5974 20.3248L22.0148 19.8938C20.9369 18.85 19.4737 18.2801 17.9011 18.2801V18.8801ZM14.2086 20.3244C15.1658 19.3961 16.4748 18.8801 17.9011 18.8801V18.2801C16.329 18.2801 14.8671 18.85 13.7909 19.8937L14.2086 20.3244ZM12.6925 24.0517C12.6925 22.5897 13.2345 21.2691 14.2086 20.3244L13.7909 19.8937C12.6922 20.9593 12.0925 22.4391 12.0925 24.0517H12.6925ZM13.1069 25.2626C12.8456 25.0228 12.6925 24.6488 12.6925 24.0517H12.0925C12.0925 24.7498 12.2741 25.3126 12.7012 25.7046L13.1069 25.2626ZM16.7247 25.6722C16.0806 25.7274 15.3448 25.79 14.6707 25.7494C13.9855 25.7081 13.4341 25.5629 13.1069 25.2626L12.7012 25.7046C13.1883 26.1518 13.9203 26.3052 14.6346 26.3483C15.3601 26.392 16.1402 26.3245 16.7759 26.27L16.7247 25.6722ZM16.7256 25.6721L16.7244 25.6722L16.7762 26.27L16.7774 26.2699L16.7256 25.6721ZM17.9033 25.6003C17.5595 25.6003 17.1452 25.6361 16.7258 25.6721L16.7772 26.2699C17.2049 26.2331 17.5908 26.2003 17.9033 26.2003V25.6003ZM19.1007 25.6726C18.6751 25.6363 18.2549 25.6003 17.9033 25.6003V26.2003C18.224 26.2003 18.6159 26.2334 19.0497 26.2704L19.1007 25.6726ZM19.1016 25.6727L19.1007 25.6726L19.0497 26.2704L19.0506 26.2705L19.1016 25.6727Z" fill="white"/>
<path d="M13.6145 14.8181C13.3378 14.8181 13.1135 15.0425 13.1135 15.3191V15.8547C13.1135 16.4643 12.6176 16.9602 12.008 16.9602C11.3985 16.9602 10.9025 16.4643 10.9025 15.8547V15.3191C10.9025 14.7096 11.3985 14.2136 12.008 14.2136C12.2848 14.2136 12.509 13.9893 12.509 13.7126C12.509 13.4359 12.2848 13.2116 12.008 13.2116C10.846 13.2116 9.90051 14.1571 9.90051 15.3191V15.8547C9.90051 17.0168 10.8459 17.9622 12.008 17.9622C13.1702 17.9622 14.1156 17.0168 14.1156 15.8547V15.3191C14.1156 15.0425 13.8913 14.8181 13.6145 14.8181Z" fill="white" stroke="white" stroke-width="0.6"/>
<path d="M25.3954 14.8181C25.1187 14.8181 24.8944 15.0425 24.8944 15.3191V15.8547C24.8944 16.4643 24.3985 16.9602 23.7889 16.9602C23.1794 16.9602 22.6834 16.4643 22.6834 15.8547V15.3191C22.6834 14.7096 23.1794 14.2136 23.7889 14.2136C24.0657 14.2136 24.2899 13.9893 24.2899 13.7126C24.2899 13.4359 24.0657 13.2116 23.7889 13.2116C22.6268 13.2116 21.6814 14.1571 21.6814 15.3191V15.8547C21.6814 17.0168 22.6268 17.9622 23.7889 17.9622C24.9511 17.9622 25.8964 17.0168 25.8964 15.8547V15.3191C25.8964 15.0425 25.6722 14.8181 25.3954 14.8181Z" fill="white" stroke="white" stroke-width="0.6"/>
</svg>
