<svg width="15" height="15" viewBox="0 0 15 15" fill="none" xmlns="http://www.w3.org/2000/svg">
<path fill-rule="evenodd" clip-rule="evenodd" d="M11.8867 5.94922C11.8867 7.125 11.543 8.21875 10.957 9.14062L10.7617 9.41797L15 13.6602L13.6836 15L9.44141 10.7578L9.17188 10.9453C8.24219 11.5469 7.13281 11.8984 5.94141 11.8984C2.66016 11.8984 0 9.23438 0 5.94922C0 2.66406 2.66016 0 5.94531 0C9.22656 0 11.8867 2.66406 11.8867 5.94922ZM10.6484 5.94531C10.6484 4.69141 10.1602 3.51172 9.27344 2.625C8.38672 1.73828 7.20703 1.25 5.95312 1.25C4.69922 1.25 3.51953 1.73828 2.63281 2.625C1.74609 3.51172 1.25781 4.69141 1.25781 5.94531C1.25781 7.19922 1.74609 8.37891 2.63281 9.26562C3.51953 10.1523 4.69922 10.6406 5.95312 10.6406C7.20703 10.6406 8.38672 10.1523 9.27344 9.26562C10.1602 8.37891 10.6484 7.19922 10.6484 5.94531Z" fill="#68D6F4"/>
</svg>
