<svg width="24" height="25" viewBox="0 0 24 25" fill="none" xmlns="http://www.w3.org/2000/svg">
<path fill-rule="evenodd" clip-rule="evenodd" d="M0.0211182 24.0876C0.0211182 17.635 4.09889 14.0815 11.5031 14.0815C18.9074 14.0815 22.9852 17.6354 22.9851 24.0876C22.9851 24.5916 22.5825 25 22.0858 25H0.920486C0.42373 25 0.0211182 24.5916 0.0211182 24.0876ZM11.5031 15.9064C5.44856 15.9064 2.20634 18.3507 1.85258 23.1752H21.1541C20.8 18.3507 17.5577 15.9064 11.5031 15.9064Z" fill="#68D6F4"/>
<path d="M22.9851 24.0876L22.7351 24.0876V24.0876H22.9851ZM1.85258 23.1752L1.60325 23.1569L1.58358 23.4252H1.85258V23.1752ZM21.1541 23.1752V23.4252H21.4231L21.4034 23.1569L21.1541 23.1752ZM11.5031 13.8315C7.76472 13.8315 4.82715 14.7283 2.82129 16.4764C0.809962 18.2291 -0.228882 20.8064 -0.228882 24.0876H0.271118C0.271118 20.9162 1.27116 18.4904 3.14978 16.8533C5.03387 15.2114 7.83731 14.3315 11.5031 14.3315V13.8315ZM23.2351 24.0876C23.2352 20.8066 22.1963 18.2293 20.185 16.4765C18.1792 14.7284 15.2416 13.8315 11.5031 13.8315V14.3315C15.169 14.3315 17.9724 15.2115 19.8565 16.8534C21.7351 18.4906 22.7352 20.9164 22.7351 24.0876L23.2351 24.0876ZM22.0858 25.25C22.724 25.25 23.2351 24.7262 23.2351 24.0876H22.7351C22.7351 24.4569 22.4411 24.75 22.0858 24.75V25.25ZM0.920486 25.25H22.0858V24.75H0.920486V25.25ZM-0.228882 24.0876C-0.228882 24.7262 0.28228 25.25 0.920486 25.25V24.75C0.565181 24.75 0.271118 24.4569 0.271118 24.0876H-0.228882ZM2.10191 23.1935C2.27465 20.8377 3.14774 19.0935 4.69049 17.9313C6.24198 16.7624 8.50455 16.1564 11.5031 16.1564V15.6564C8.44717 15.6564 6.06133 16.2725 4.38962 17.5319C2.70917 18.7979 1.78428 20.6882 1.60325 23.1569L2.10191 23.1935ZM21.1541 22.9252H1.85258V23.4252H21.1541V22.9252ZM11.5031 16.1564C14.5018 16.1564 16.7643 16.7624 18.3159 17.9313C19.8587 19.0935 20.7318 20.8377 20.9047 23.1935L21.4034 23.1569C21.2222 20.6881 20.2972 18.7979 18.6167 17.5319C16.945 16.2725 14.5591 15.6564 11.5031 15.6564V16.1564Z" fill="#68D6F4"/>
<path fill-rule="evenodd" clip-rule="evenodd" d="M5.53735 6.17368C5.53735 2.6542 8.10204 0 11.5032 0C14.9043 0 17.469 2.6542 17.469 6.17397C17.469 9.79624 14.7928 12.743 11.5032 12.743C8.21361 12.743 5.53735 9.79624 5.53735 6.17368ZM7.33609 6.17397C7.33609 8.79014 9.20529 10.9185 11.5032 10.9185C13.8011 10.9185 15.6703 8.79014 15.6703 6.17397C15.6703 3.69434 13.8791 1.8248 11.5032 1.8248C9.08867 1.8248 7.33609 3.65391 7.33609 6.17397Z" fill="#68D6F4"/>
<path d="M11.5032 -0.25C7.95596 -0.25 5.28735 2.52427 5.28735 6.17368H5.78735C5.78735 2.78413 8.24812 0.25 11.5032 0.25V-0.25ZM17.719 6.17397C17.719 2.52428 15.0504 -0.25 11.5032 -0.25V0.25C14.7583 0.25 17.219 2.78412 17.219 6.17397H17.719ZM11.5032 12.993C14.953 12.993 17.719 9.91111 17.719 6.17397H17.219C17.219 9.68137 14.6326 12.493 11.5032 12.493V12.993ZM5.28735 6.17368C5.28735 9.9111 8.05342 12.993 11.5032 12.993V12.493C8.3738 12.493 5.78735 9.68138 5.78735 6.17368H5.28735ZM11.5032 10.6685C9.37286 10.6685 7.58609 8.68354 7.58609 6.17397H7.08609C7.08609 8.89673 9.03772 11.1685 11.5032 11.1685V10.6685ZM15.4203 6.17397C15.4203 8.68354 13.6335 10.6685 11.5032 10.6685V11.1685C13.9687 11.1685 15.9203 8.89673 15.9203 6.17397H15.4203ZM11.5032 2.0748C13.731 2.0748 15.4203 3.82222 15.4203 6.17397H15.9203C15.9203 3.56645 14.0271 1.5748 11.5032 1.5748V2.0748ZM7.58609 6.17397C7.58609 3.7818 9.23671 2.0748 11.5032 2.0748V1.5748C8.94063 1.5748 7.08609 3.52602 7.08609 6.17397H7.58609Z" fill="#68D6F4"/>
</svg>
